M48
; DRILL file {KiCad (5.1.10)-1} date 11/17/21 08:32:06
; FORMAT={-:-/ absolute / inch / decimal}
; #@! TF.CreationDate,2021-11-17T08:32:06-05:00
; #@! TF.GenerationSoftware,Kicad,Pcbnew,(5.1.10)-1
; #@! TF.FileFunction,Plated,1,2,PTH
FMAT,2
INCH
T1C0.0157
T2C0.0315
T3C0.0394
T4C0.1772
%
G90
G05
T1
X5.825Y-3.702
X5.827Y-3.477
X5.827Y-3.927
X5.827Y-4.152
X5.975Y-3.525
X5.975Y-3.75
X5.975Y-3.975
X5.975Y-4.2
X6.15Y-3.325
X6.375Y-3.325
T2
X6.275Y-3.4
X6.275Y-3.5
X6.275Y-3.6
X6.275Y-3.7
X6.275Y-3.8
X6.275Y-3.9
X6.275Y-4.0
X6.275Y-4.1
X6.575Y-3.4
X6.575Y-3.5
X6.575Y-3.6
X6.575Y-3.7
X6.575Y-3.8
X6.575Y-3.9
X6.575Y-4.0
X6.575Y-4.1
T3
X5.575Y-3.6
X5.575Y-3.825
X5.575Y-4.05
X5.575Y-4.275
X5.675Y-3.6
X5.675Y-3.825
X5.675Y-4.05
X5.675Y-4.275
X7.05Y-3.375
X7.05Y-3.475
X7.05Y-3.575
X7.05Y-3.675
X7.05Y-3.775
X7.05Y-3.875
X7.05Y-3.975
T4
X5.2165Y-2.75
X5.2165Y-3.2
X5.5Y-2.75
X5.5Y-3.2
T0
M30
