%TF.GenerationSoftware,KiCad,Pcbnew,(5.1.9)-1*%
%TF.CreationDate,2021-11-28T17:49:43-05:00*%
%TF.ProjectId,Telem Board,54656c65-6d20-4426-9f61-72642e6b6963,rev?*%
%TF.SameCoordinates,Original*%
%TF.FileFunction,Soldermask,Bot*%
%TF.FilePolarity,Negative*%
%FSLAX46Y46*%
G04 Gerber Fmt 4.6, Leading zero omitted, Abs format (unit mm)*
G04 Created by KiCad (PCBNEW (5.1.9)-1) date 2021-11-28 17:49:43*
%MOMM*%
%LPD*%
G01*
G04 APERTURE LIST*
%ADD10C,6.000000*%
%ADD11C,2.700000*%
%ADD12O,1.600000X1.600000*%
%ADD13R,1.600000X1.600000*%
%ADD14O,1.700000X1.700000*%
%ADD15R,1.700000X1.700000*%
G04 APERTURE END LIST*
%TO.C,J7*%
G36*
G01*
X142700000Y-79780000D02*
X142700000Y-82780000D01*
G75*
G02*
X141200000Y-84280000I-1500000J0D01*
G01*
X138200000Y-84280000D01*
G75*
G02*
X136700000Y-82780000I0J1500000D01*
G01*
X136700000Y-79780000D01*
G75*
G02*
X138200000Y-78280000I1500000J0D01*
G01*
X141200000Y-78280000D01*
G75*
G02*
X142700000Y-79780000I0J-1500000D01*
G01*
G37*
D10*
X132500000Y-81280000D03*
%TD*%
D11*
%TO.C,H2*%
X174625000Y-104775000D03*
%TD*%
%TO.C,H1*%
X132080000Y-92075000D03*
%TD*%
D12*
%TO.C,U2*%
X167005000Y-86360000D03*
X159385000Y-104140000D03*
X167005000Y-88900000D03*
X159385000Y-101600000D03*
X167005000Y-91440000D03*
X159385000Y-99060000D03*
X167005000Y-93980000D03*
X159385000Y-96520000D03*
X167005000Y-96520000D03*
X159385000Y-93980000D03*
X167005000Y-99060000D03*
X159385000Y-91440000D03*
X167005000Y-101600000D03*
X159385000Y-88900000D03*
X167005000Y-104140000D03*
D13*
X159385000Y-86360000D03*
%TD*%
%TO.C,J6*%
G36*
G01*
X142700000Y-68350000D02*
X142700000Y-71350000D01*
G75*
G02*
X141200000Y-72850000I-1500000J0D01*
G01*
X138200000Y-72850000D01*
G75*
G02*
X136700000Y-71350000I0J1500000D01*
G01*
X136700000Y-68350000D01*
G75*
G02*
X138200000Y-66850000I1500000J0D01*
G01*
X141200000Y-66850000D01*
G75*
G02*
X142700000Y-68350000I0J-1500000D01*
G01*
G37*
D10*
X132500000Y-69850000D03*
%TD*%
D14*
%TO.C,J5*%
X141605000Y-108585000D03*
D15*
X144145000Y-108585000D03*
%TD*%
D14*
%TO.C,J4*%
X141605000Y-102870000D03*
D15*
X144145000Y-102870000D03*
%TD*%
D14*
%TO.C,J3*%
X141605000Y-97155000D03*
D15*
X144145000Y-97155000D03*
%TD*%
D14*
%TO.C,J2*%
X141605000Y-91440000D03*
D15*
X144145000Y-91440000D03*
%TD*%
D14*
%TO.C,J1*%
X179070000Y-100965000D03*
X179070000Y-98425000D03*
X179070000Y-95885000D03*
X179070000Y-93345000D03*
X179070000Y-90805000D03*
X179070000Y-88265000D03*
D15*
X179070000Y-85725000D03*
%TD*%
M02*
