%TF.GenerationSoftware,KiCad,Pcbnew,(5.1.9)-1*%
%TF.CreationDate,2021-11-28T17:49:43-05:00*%
%TF.ProjectId,Telem Board,54656c65-6d20-4426-9f61-72642e6b6963,rev?*%
%TF.SameCoordinates,Original*%
%TF.FileFunction,Copper,L1,Top*%
%TF.FilePolarity,Positive*%
%FSLAX46Y46*%
G04 Gerber Fmt 4.6, Leading zero omitted, Abs format (unit mm)*
G04 Created by KiCad (PCBNEW (5.1.9)-1) date 2021-11-28 17:49:43*
%MOMM*%
%LPD*%
G01*
G04 APERTURE LIST*
%TA.AperFunction,ComponentPad*%
%ADD10C,6.000000*%
%TD*%
%TA.AperFunction,ComponentPad*%
%ADD11O,1.600000X1.600000*%
%TD*%
%TA.AperFunction,ComponentPad*%
%ADD12R,1.600000X1.600000*%
%TD*%
%TA.AperFunction,SMDPad,CuDef*%
%ADD13R,2.000000X1.500000*%
%TD*%
%TA.AperFunction,SMDPad,CuDef*%
%ADD14R,2.000000X3.800000*%
%TD*%
%TA.AperFunction,ComponentPad*%
%ADD15O,1.700000X1.700000*%
%TD*%
%TA.AperFunction,ComponentPad*%
%ADD16R,1.700000X1.700000*%
%TD*%
%TA.AperFunction,ViaPad*%
%ADD17C,0.800000*%
%TD*%
%TA.AperFunction,Conductor*%
%ADD18C,0.762000*%
%TD*%
%TA.AperFunction,Conductor*%
%ADD19C,0.508000*%
%TD*%
%TA.AperFunction,Conductor*%
%ADD20C,0.254000*%
%TD*%
%TA.AperFunction,Conductor*%
%ADD21C,0.100000*%
%TD*%
G04 APERTURE END LIST*
%TO.P,F2,2*%
%TO.N,Net-(F2-Pad2)*%
%TA.AperFunction,SMDPad,CuDef*%
G36*
G01*
X146695000Y-80630000D02*
X147945000Y-80630000D01*
G75*
G02*
X148195000Y-80880000I0J-250000D01*
G01*
X148195000Y-81680000D01*
G75*
G02*
X147945000Y-81930000I-250000J0D01*
G01*
X146695000Y-81930000D01*
G75*
G02*
X146445000Y-81680000I0J250000D01*
G01*
X146445000Y-80880000D01*
G75*
G02*
X146695000Y-80630000I250000J0D01*
G01*
G37*
%TD.AperFunction*%
%TO.P,F2,1*%
%TO.N,Net-(F2-Pad1)*%
%TA.AperFunction,SMDPad,CuDef*%
G36*
G01*
X146695000Y-77530000D02*
X147945000Y-77530000D01*
G75*
G02*
X148195000Y-77780000I0J-250000D01*
G01*
X148195000Y-78580000D01*
G75*
G02*
X147945000Y-78830000I-250000J0D01*
G01*
X146695000Y-78830000D01*
G75*
G02*
X146445000Y-78580000I0J250000D01*
G01*
X146445000Y-77780000D01*
G75*
G02*
X146695000Y-77530000I250000J0D01*
G01*
G37*
%TD.AperFunction*%
%TD*%
%TO.P,F1,2*%
%TO.N,Net-(F1-Pad2)*%
%TA.AperFunction,SMDPad,CuDef*%
G36*
G01*
X146695000Y-69200000D02*
X147945000Y-69200000D01*
G75*
G02*
X148195000Y-69450000I0J-250000D01*
G01*
X148195000Y-70250000D01*
G75*
G02*
X147945000Y-70500000I-250000J0D01*
G01*
X146695000Y-70500000D01*
G75*
G02*
X146445000Y-70250000I0J250000D01*
G01*
X146445000Y-69450000D01*
G75*
G02*
X146695000Y-69200000I250000J0D01*
G01*
G37*
%TD.AperFunction*%
%TO.P,F1,1*%
%TO.N,Net-(F1-Pad1)*%
%TA.AperFunction,SMDPad,CuDef*%
G36*
G01*
X146695000Y-66100000D02*
X147945000Y-66100000D01*
G75*
G02*
X148195000Y-66350000I0J-250000D01*
G01*
X148195000Y-67150000D01*
G75*
G02*
X147945000Y-67400000I-250000J0D01*
G01*
X146695000Y-67400000D01*
G75*
G02*
X146445000Y-67150000I0J250000D01*
G01*
X146445000Y-66350000D01*
G75*
G02*
X146695000Y-66100000I250000J0D01*
G01*
G37*
%TD.AperFunction*%
%TD*%
%TO.P,R8,2*%
%TO.N,GNDA*%
%TA.AperFunction,SMDPad,CuDef*%
G36*
G01*
X154955002Y-78817500D02*
X153654998Y-78817500D01*
G75*
G02*
X153405000Y-78567502I0J249998D01*
G01*
X153405000Y-77742498D01*
G75*
G02*
X153654998Y-77492500I249998J0D01*
G01*
X154955002Y-77492500D01*
G75*
G02*
X155205000Y-77742498I0J-249998D01*
G01*
X155205000Y-78567502D01*
G75*
G02*
X154955002Y-78817500I-249998J0D01*
G01*
G37*
%TD.AperFunction*%
%TO.P,R8,1*%
%TO.N,/CH1*%
%TA.AperFunction,SMDPad,CuDef*%
G36*
G01*
X154955002Y-81942500D02*
X153654998Y-81942500D01*
G75*
G02*
X153405000Y-81692502I0J249998D01*
G01*
X153405000Y-80867498D01*
G75*
G02*
X153654998Y-80617500I249998J0D01*
G01*
X154955002Y-80617500D01*
G75*
G02*
X155205000Y-80867498I0J-249998D01*
G01*
X155205000Y-81692502D01*
G75*
G02*
X154955002Y-81942500I-249998J0D01*
G01*
G37*
%TD.AperFunction*%
%TD*%
%TO.P,R7,2*%
%TO.N,/CH1*%
%TA.AperFunction,SMDPad,CuDef*%
G36*
G01*
X149844998Y-80617500D02*
X151145002Y-80617500D01*
G75*
G02*
X151395000Y-80867498I0J-249998D01*
G01*
X151395000Y-81692502D01*
G75*
G02*
X151145002Y-81942500I-249998J0D01*
G01*
X149844998Y-81942500D01*
G75*
G02*
X149595000Y-81692502I0J249998D01*
G01*
X149595000Y-80867498D01*
G75*
G02*
X149844998Y-80617500I249998J0D01*
G01*
G37*
%TD.AperFunction*%
%TO.P,R7,1*%
%TO.N,Net-(F2-Pad1)*%
%TA.AperFunction,SMDPad,CuDef*%
G36*
G01*
X149844998Y-77492500D02*
X151145002Y-77492500D01*
G75*
G02*
X151395000Y-77742498I0J-249998D01*
G01*
X151395000Y-78567502D01*
G75*
G02*
X151145002Y-78817500I-249998J0D01*
G01*
X149844998Y-78817500D01*
G75*
G02*
X149595000Y-78567502I0J249998D01*
G01*
X149595000Y-77742498D01*
G75*
G02*
X149844998Y-77492500I249998J0D01*
G01*
G37*
%TD.AperFunction*%
%TD*%
%TO.P,J7,1*%
%TO.N,Net-(F2-Pad2)*%
%TA.AperFunction,ComponentPad*%
G36*
G01*
X142700000Y-79780000D02*
X142700000Y-82780000D01*
G75*
G02*
X141200000Y-84280000I-1500000J0D01*
G01*
X138200000Y-84280000D01*
G75*
G02*
X136700000Y-82780000I0J1500000D01*
G01*
X136700000Y-79780000D01*
G75*
G02*
X138200000Y-78280000I1500000J0D01*
G01*
X141200000Y-78280000D01*
G75*
G02*
X142700000Y-79780000I0J-1500000D01*
G01*
G37*
%TD.AperFunction*%
D10*
%TO.P,J7,2*%
%TO.N,GNDA*%
X132500000Y-81280000D03*
%TD*%
%TO.P,C9,2*%
%TO.N,GNDA*%
%TA.AperFunction,SMDPad,CuDef*%
G36*
G01*
X157955000Y-79792500D02*
X157005000Y-79792500D01*
G75*
G02*
X156755000Y-79542500I0J250000D01*
G01*
X156755000Y-78867500D01*
G75*
G02*
X157005000Y-78617500I250000J0D01*
G01*
X157955000Y-78617500D01*
G75*
G02*
X158205000Y-78867500I0J-250000D01*
G01*
X158205000Y-79542500D01*
G75*
G02*
X157955000Y-79792500I-250000J0D01*
G01*
G37*
%TD.AperFunction*%
%TO.P,C9,1*%
%TO.N,/CH1*%
%TA.AperFunction,SMDPad,CuDef*%
G36*
G01*
X157955000Y-81867500D02*
X157005000Y-81867500D01*
G75*
G02*
X156755000Y-81617500I0J250000D01*
G01*
X156755000Y-80942500D01*
G75*
G02*
X157005000Y-80692500I250000J0D01*
G01*
X157955000Y-80692500D01*
G75*
G02*
X158205000Y-80942500I0J-250000D01*
G01*
X158205000Y-81617500D01*
G75*
G02*
X157955000Y-81867500I-250000J0D01*
G01*
G37*
%TD.AperFunction*%
%TD*%
D11*
%TO.P,U2,16*%
%TO.N,+3V3*%
X167005000Y-86360000D03*
%TO.P,U2,8*%
%TO.N,N/C*%
X159385000Y-104140000D03*
%TO.P,U2,15*%
%TO.N,+3V3*%
X167005000Y-88900000D03*
%TO.P,U2,7*%
%TO.N,N/C*%
X159385000Y-101600000D03*
%TO.P,U2,14*%
%TO.N,GNDA*%
X167005000Y-91440000D03*
%TO.P,U2,6*%
%TO.N,/CH5*%
X159385000Y-99060000D03*
%TO.P,U2,13*%
%TO.N,/SPI_SCK*%
X167005000Y-93980000D03*
%TO.P,U2,5*%
%TO.N,/CH4*%
X159385000Y-96520000D03*
%TO.P,U2,12*%
%TO.N,/SPI_MISO*%
X167005000Y-96520000D03*
%TO.P,U2,4*%
%TO.N,/CH3*%
X159385000Y-93980000D03*
%TO.P,U2,11*%
%TO.N,/SPI_MOSI*%
X167005000Y-99060000D03*
%TO.P,U2,3*%
%TO.N,/CH2*%
X159385000Y-91440000D03*
%TO.P,U2,10*%
%TO.N,/ADC_CS*%
X167005000Y-101600000D03*
%TO.P,U2,2*%
%TO.N,/CH1*%
X159385000Y-88900000D03*
%TO.P,U2,9*%
%TO.N,GNDA*%
X167005000Y-104140000D03*
D12*
%TO.P,U2,1*%
%TO.N,/CH0*%
X159385000Y-86360000D03*
%TD*%
D13*
%TO.P,U1,1*%
%TO.N,GNDA*%
X173330000Y-75960000D03*
%TO.P,U1,3*%
%TO.N,+5V*%
X173330000Y-71360000D03*
%TO.P,U1,2*%
%TO.N,+3V3*%
X173330000Y-73660000D03*
D14*
X167030000Y-73660000D03*
%TD*%
%TO.P,R6,2*%
%TO.N,GNDA*%
%TA.AperFunction,SMDPad,CuDef*%
G36*
G01*
X154955002Y-67387500D02*
X153654998Y-67387500D01*
G75*
G02*
X153405000Y-67137502I0J249998D01*
G01*
X153405000Y-66312498D01*
G75*
G02*
X153654998Y-66062500I249998J0D01*
G01*
X154955002Y-66062500D01*
G75*
G02*
X155205000Y-66312498I0J-249998D01*
G01*
X155205000Y-67137502D01*
G75*
G02*
X154955002Y-67387500I-249998J0D01*
G01*
G37*
%TD.AperFunction*%
%TO.P,R6,1*%
%TO.N,/CH0*%
%TA.AperFunction,SMDPad,CuDef*%
G36*
G01*
X154955002Y-70512500D02*
X153654998Y-70512500D01*
G75*
G02*
X153405000Y-70262502I0J249998D01*
G01*
X153405000Y-69437498D01*
G75*
G02*
X153654998Y-69187500I249998J0D01*
G01*
X154955002Y-69187500D01*
G75*
G02*
X155205000Y-69437498I0J-249998D01*
G01*
X155205000Y-70262502D01*
G75*
G02*
X154955002Y-70512500I-249998J0D01*
G01*
G37*
%TD.AperFunction*%
%TD*%
%TO.P,R5,2*%
%TO.N,/CH0*%
%TA.AperFunction,SMDPad,CuDef*%
G36*
G01*
X149844998Y-69187500D02*
X151145002Y-69187500D01*
G75*
G02*
X151395000Y-69437498I0J-249998D01*
G01*
X151395000Y-70262502D01*
G75*
G02*
X151145002Y-70512500I-249998J0D01*
G01*
X149844998Y-70512500D01*
G75*
G02*
X149595000Y-70262502I0J249998D01*
G01*
X149595000Y-69437498D01*
G75*
G02*
X149844998Y-69187500I249998J0D01*
G01*
G37*
%TD.AperFunction*%
%TO.P,R5,1*%
%TO.N,Net-(F1-Pad1)*%
%TA.AperFunction,SMDPad,CuDef*%
G36*
G01*
X149844998Y-66062500D02*
X151145002Y-66062500D01*
G75*
G02*
X151395000Y-66312498I0J-249998D01*
G01*
X151395000Y-67137502D01*
G75*
G02*
X151145002Y-67387500I-249998J0D01*
G01*
X149844998Y-67387500D01*
G75*
G02*
X149595000Y-67137502I0J249998D01*
G01*
X149595000Y-66312498D01*
G75*
G02*
X149844998Y-66062500I249998J0D01*
G01*
G37*
%TD.AperFunction*%
%TD*%
%TO.P,R4,2*%
%TO.N,/CH5*%
%TA.AperFunction,SMDPad,CuDef*%
G36*
G01*
X149209998Y-107922500D02*
X150510002Y-107922500D01*
G75*
G02*
X150760000Y-108172498I0J-249998D01*
G01*
X150760000Y-108997502D01*
G75*
G02*
X150510002Y-109247500I-249998J0D01*
G01*
X149209998Y-109247500D01*
G75*
G02*
X148960000Y-108997502I0J249998D01*
G01*
X148960000Y-108172498D01*
G75*
G02*
X149209998Y-107922500I249998J0D01*
G01*
G37*
%TD.AperFunction*%
%TO.P,R4,1*%
%TO.N,+3V3*%
%TA.AperFunction,SMDPad,CuDef*%
G36*
G01*
X149209998Y-104797500D02*
X150510002Y-104797500D01*
G75*
G02*
X150760000Y-105047498I0J-249998D01*
G01*
X150760000Y-105872502D01*
G75*
G02*
X150510002Y-106122500I-249998J0D01*
G01*
X149209998Y-106122500D01*
G75*
G02*
X148960000Y-105872502I0J249998D01*
G01*
X148960000Y-105047498D01*
G75*
G02*
X149209998Y-104797500I249998J0D01*
G01*
G37*
%TD.AperFunction*%
%TD*%
%TO.P,R3,2*%
%TO.N,/CH4*%
%TA.AperFunction,SMDPad,CuDef*%
G36*
G01*
X149209998Y-102207500D02*
X150510002Y-102207500D01*
G75*
G02*
X150760000Y-102457498I0J-249998D01*
G01*
X150760000Y-103282502D01*
G75*
G02*
X150510002Y-103532500I-249998J0D01*
G01*
X149209998Y-103532500D01*
G75*
G02*
X148960000Y-103282502I0J249998D01*
G01*
X148960000Y-102457498D01*
G75*
G02*
X149209998Y-102207500I249998J0D01*
G01*
G37*
%TD.AperFunction*%
%TO.P,R3,1*%
%TO.N,+3V3*%
%TA.AperFunction,SMDPad,CuDef*%
G36*
G01*
X149209998Y-99082500D02*
X150510002Y-99082500D01*
G75*
G02*
X150760000Y-99332498I0J-249998D01*
G01*
X150760000Y-100157502D01*
G75*
G02*
X150510002Y-100407500I-249998J0D01*
G01*
X149209998Y-100407500D01*
G75*
G02*
X148960000Y-100157502I0J249998D01*
G01*
X148960000Y-99332498D01*
G75*
G02*
X149209998Y-99082500I249998J0D01*
G01*
G37*
%TD.AperFunction*%
%TD*%
%TO.P,R2,2*%
%TO.N,/CH3*%
%TA.AperFunction,SMDPad,CuDef*%
G36*
G01*
X149209998Y-96492500D02*
X150510002Y-96492500D01*
G75*
G02*
X150760000Y-96742498I0J-249998D01*
G01*
X150760000Y-97567502D01*
G75*
G02*
X150510002Y-97817500I-249998J0D01*
G01*
X149209998Y-97817500D01*
G75*
G02*
X148960000Y-97567502I0J249998D01*
G01*
X148960000Y-96742498D01*
G75*
G02*
X149209998Y-96492500I249998J0D01*
G01*
G37*
%TD.AperFunction*%
%TO.P,R2,1*%
%TO.N,+3V3*%
%TA.AperFunction,SMDPad,CuDef*%
G36*
G01*
X149209998Y-93367500D02*
X150510002Y-93367500D01*
G75*
G02*
X150760000Y-93617498I0J-249998D01*
G01*
X150760000Y-94442502D01*
G75*
G02*
X150510002Y-94692500I-249998J0D01*
G01*
X149209998Y-94692500D01*
G75*
G02*
X148960000Y-94442502I0J249998D01*
G01*
X148960000Y-93617498D01*
G75*
G02*
X149209998Y-93367500I249998J0D01*
G01*
G37*
%TD.AperFunction*%
%TD*%
%TO.P,R1,2*%
%TO.N,/CH2*%
%TA.AperFunction,SMDPad,CuDef*%
G36*
G01*
X149209998Y-90777500D02*
X150510002Y-90777500D01*
G75*
G02*
X150760000Y-91027498I0J-249998D01*
G01*
X150760000Y-91852502D01*
G75*
G02*
X150510002Y-92102500I-249998J0D01*
G01*
X149209998Y-92102500D01*
G75*
G02*
X148960000Y-91852502I0J249998D01*
G01*
X148960000Y-91027498D01*
G75*
G02*
X149209998Y-90777500I249998J0D01*
G01*
G37*
%TD.AperFunction*%
%TO.P,R1,1*%
%TO.N,+3V3*%
%TA.AperFunction,SMDPad,CuDef*%
G36*
G01*
X149209998Y-87652500D02*
X150510002Y-87652500D01*
G75*
G02*
X150760000Y-87902498I0J-249998D01*
G01*
X150760000Y-88727502D01*
G75*
G02*
X150510002Y-88977500I-249998J0D01*
G01*
X149209998Y-88977500D01*
G75*
G02*
X148960000Y-88727502I0J249998D01*
G01*
X148960000Y-87902498D01*
G75*
G02*
X149209998Y-87652500I249998J0D01*
G01*
G37*
%TD.AperFunction*%
%TD*%
%TO.P,J6,1*%
%TO.N,Net-(F1-Pad2)*%
%TA.AperFunction,ComponentPad*%
G36*
G01*
X142700000Y-68350000D02*
X142700000Y-71350000D01*
G75*
G02*
X141200000Y-72850000I-1500000J0D01*
G01*
X138200000Y-72850000D01*
G75*
G02*
X136700000Y-71350000I0J1500000D01*
G01*
X136700000Y-68350000D01*
G75*
G02*
X138200000Y-66850000I1500000J0D01*
G01*
X141200000Y-66850000D01*
G75*
G02*
X142700000Y-68350000I0J-1500000D01*
G01*
G37*
%TD.AperFunction*%
D10*
%TO.P,J6,2*%
%TO.N,GNDA*%
X132500000Y-69850000D03*
%TD*%
D15*
%TO.P,J5,2*%
%TO.N,GNDA*%
X141605000Y-108585000D03*
D16*
%TO.P,J5,1*%
%TO.N,/CH5*%
X144145000Y-108585000D03*
%TD*%
D15*
%TO.P,J4,2*%
%TO.N,GNDA*%
X141605000Y-102870000D03*
D16*
%TO.P,J4,1*%
%TO.N,/CH4*%
X144145000Y-102870000D03*
%TD*%
D15*
%TO.P,J3,2*%
%TO.N,GNDA*%
X141605000Y-97155000D03*
D16*
%TO.P,J3,1*%
%TO.N,/CH3*%
X144145000Y-97155000D03*
%TD*%
D15*
%TO.P,J2,2*%
%TO.N,GNDA*%
X141605000Y-91440000D03*
D16*
%TO.P,J2,1*%
%TO.N,/CH2*%
X144145000Y-91440000D03*
%TD*%
D15*
%TO.P,J1,7*%
%TO.N,GNDA*%
X179070000Y-100965000D03*
%TO.P,J1,6*%
%TO.N,N/C*%
X179070000Y-98425000D03*
%TO.P,J1,5*%
%TO.N,/ADC_CS*%
X179070000Y-95885000D03*
%TO.P,J1,4*%
%TO.N,/SPI_MOSI*%
X179070000Y-93345000D03*
%TO.P,J1,3*%
%TO.N,/SPI_MISO*%
X179070000Y-90805000D03*
%TO.P,J1,2*%
%TO.N,/SPI_SCK*%
X179070000Y-88265000D03*
D16*
%TO.P,J1,1*%
%TO.N,+5V*%
X179070000Y-85725000D03*
%TD*%
%TO.P,C8,2*%
%TO.N,GNDA*%
%TA.AperFunction,SMDPad,CuDef*%
G36*
G01*
X170340000Y-90620000D02*
X171290000Y-90620000D01*
G75*
G02*
X171540000Y-90870000I0J-250000D01*
G01*
X171540000Y-91545000D01*
G75*
G02*
X171290000Y-91795000I-250000J0D01*
G01*
X170340000Y-91795000D01*
G75*
G02*
X170090000Y-91545000I0J250000D01*
G01*
X170090000Y-90870000D01*
G75*
G02*
X170340000Y-90620000I250000J0D01*
G01*
G37*
%TD.AperFunction*%
%TO.P,C8,1*%
%TO.N,+3V3*%
%TA.AperFunction,SMDPad,CuDef*%
G36*
G01*
X170340000Y-88545000D02*
X171290000Y-88545000D01*
G75*
G02*
X171540000Y-88795000I0J-250000D01*
G01*
X171540000Y-89470000D01*
G75*
G02*
X171290000Y-89720000I-250000J0D01*
G01*
X170340000Y-89720000D01*
G75*
G02*
X170090000Y-89470000I0J250000D01*
G01*
X170090000Y-88795000D01*
G75*
G02*
X170340000Y-88545000I250000J0D01*
G01*
G37*
%TD.AperFunction*%
%TD*%
%TO.P,C7,2*%
%TO.N,GNDA*%
%TA.AperFunction,SMDPad,CuDef*%
G36*
G01*
X176690000Y-74110000D02*
X177640000Y-74110000D01*
G75*
G02*
X177890000Y-74360000I0J-250000D01*
G01*
X177890000Y-75035000D01*
G75*
G02*
X177640000Y-75285000I-250000J0D01*
G01*
X176690000Y-75285000D01*
G75*
G02*
X176440000Y-75035000I0J250000D01*
G01*
X176440000Y-74360000D01*
G75*
G02*
X176690000Y-74110000I250000J0D01*
G01*
G37*
%TD.AperFunction*%
%TO.P,C7,1*%
%TO.N,+5V*%
%TA.AperFunction,SMDPad,CuDef*%
G36*
G01*
X176690000Y-72035000D02*
X177640000Y-72035000D01*
G75*
G02*
X177890000Y-72285000I0J-250000D01*
G01*
X177890000Y-72960000D01*
G75*
G02*
X177640000Y-73210000I-250000J0D01*
G01*
X176690000Y-73210000D01*
G75*
G02*
X176440000Y-72960000I0J250000D01*
G01*
X176440000Y-72285000D01*
G75*
G02*
X176690000Y-72035000I250000J0D01*
G01*
G37*
%TD.AperFunction*%
%TD*%
%TO.P,C6,2*%
%TO.N,GNDA*%
%TA.AperFunction,SMDPad,CuDef*%
G36*
G01*
X168725000Y-81120000D02*
X168725000Y-80170000D01*
G75*
G02*
X168975000Y-79920000I250000J0D01*
G01*
X169650000Y-79920000D01*
G75*
G02*
X169900000Y-80170000I0J-250000D01*
G01*
X169900000Y-81120000D01*
G75*
G02*
X169650000Y-81370000I-250000J0D01*
G01*
X168975000Y-81370000D01*
G75*
G02*
X168725000Y-81120000I0J250000D01*
G01*
G37*
%TD.AperFunction*%
%TO.P,C6,1*%
%TO.N,+3V3*%
%TA.AperFunction,SMDPad,CuDef*%
G36*
G01*
X166650000Y-81120000D02*
X166650000Y-80170000D01*
G75*
G02*
X166900000Y-79920000I250000J0D01*
G01*
X167575000Y-79920000D01*
G75*
G02*
X167825000Y-80170000I0J-250000D01*
G01*
X167825000Y-81120000D01*
G75*
G02*
X167575000Y-81370000I-250000J0D01*
G01*
X166900000Y-81370000D01*
G75*
G02*
X166650000Y-81120000I0J250000D01*
G01*
G37*
%TD.AperFunction*%
%TD*%
%TO.P,C5,2*%
%TO.N,GNDA*%
%TA.AperFunction,SMDPad,CuDef*%
G36*
G01*
X157955000Y-68362500D02*
X157005000Y-68362500D01*
G75*
G02*
X156755000Y-68112500I0J250000D01*
G01*
X156755000Y-67437500D01*
G75*
G02*
X157005000Y-67187500I250000J0D01*
G01*
X157955000Y-67187500D01*
G75*
G02*
X158205000Y-67437500I0J-250000D01*
G01*
X158205000Y-68112500D01*
G75*
G02*
X157955000Y-68362500I-250000J0D01*
G01*
G37*
%TD.AperFunction*%
%TO.P,C5,1*%
%TO.N,/CH0*%
%TA.AperFunction,SMDPad,CuDef*%
G36*
G01*
X157955000Y-70437500D02*
X157005000Y-70437500D01*
G75*
G02*
X156755000Y-70187500I0J250000D01*
G01*
X156755000Y-69512500D01*
G75*
G02*
X157005000Y-69262500I250000J0D01*
G01*
X157955000Y-69262500D01*
G75*
G02*
X158205000Y-69512500I0J-250000D01*
G01*
X158205000Y-70187500D01*
G75*
G02*
X157955000Y-70437500I-250000J0D01*
G01*
G37*
%TD.AperFunction*%
%TD*%
%TO.P,C4,2*%
%TO.N,GNDA*%
%TA.AperFunction,SMDPad,CuDef*%
G36*
G01*
X154145000Y-107097500D02*
X153195000Y-107097500D01*
G75*
G02*
X152945000Y-106847500I0J250000D01*
G01*
X152945000Y-106172500D01*
G75*
G02*
X153195000Y-105922500I250000J0D01*
G01*
X154145000Y-105922500D01*
G75*
G02*
X154395000Y-106172500I0J-250000D01*
G01*
X154395000Y-106847500D01*
G75*
G02*
X154145000Y-107097500I-250000J0D01*
G01*
G37*
%TD.AperFunction*%
%TO.P,C4,1*%
%TO.N,/CH5*%
%TA.AperFunction,SMDPad,CuDef*%
G36*
G01*
X154145000Y-109172500D02*
X153195000Y-109172500D01*
G75*
G02*
X152945000Y-108922500I0J250000D01*
G01*
X152945000Y-108247500D01*
G75*
G02*
X153195000Y-107997500I250000J0D01*
G01*
X154145000Y-107997500D01*
G75*
G02*
X154395000Y-108247500I0J-250000D01*
G01*
X154395000Y-108922500D01*
G75*
G02*
X154145000Y-109172500I-250000J0D01*
G01*
G37*
%TD.AperFunction*%
%TD*%
%TO.P,C3,2*%
%TO.N,GNDA*%
%TA.AperFunction,SMDPad,CuDef*%
G36*
G01*
X154145000Y-101382500D02*
X153195000Y-101382500D01*
G75*
G02*
X152945000Y-101132500I0J250000D01*
G01*
X152945000Y-100457500D01*
G75*
G02*
X153195000Y-100207500I250000J0D01*
G01*
X154145000Y-100207500D01*
G75*
G02*
X154395000Y-100457500I0J-250000D01*
G01*
X154395000Y-101132500D01*
G75*
G02*
X154145000Y-101382500I-250000J0D01*
G01*
G37*
%TD.AperFunction*%
%TO.P,C3,1*%
%TO.N,/CH4*%
%TA.AperFunction,SMDPad,CuDef*%
G36*
G01*
X154145000Y-103457500D02*
X153195000Y-103457500D01*
G75*
G02*
X152945000Y-103207500I0J250000D01*
G01*
X152945000Y-102532500D01*
G75*
G02*
X153195000Y-102282500I250000J0D01*
G01*
X154145000Y-102282500D01*
G75*
G02*
X154395000Y-102532500I0J-250000D01*
G01*
X154395000Y-103207500D01*
G75*
G02*
X154145000Y-103457500I-250000J0D01*
G01*
G37*
%TD.AperFunction*%
%TD*%
%TO.P,C2,2*%
%TO.N,GNDA*%
%TA.AperFunction,SMDPad,CuDef*%
G36*
G01*
X154145000Y-95667500D02*
X153195000Y-95667500D01*
G75*
G02*
X152945000Y-95417500I0J250000D01*
G01*
X152945000Y-94742500D01*
G75*
G02*
X153195000Y-94492500I250000J0D01*
G01*
X154145000Y-94492500D01*
G75*
G02*
X154395000Y-94742500I0J-250000D01*
G01*
X154395000Y-95417500D01*
G75*
G02*
X154145000Y-95667500I-250000J0D01*
G01*
G37*
%TD.AperFunction*%
%TO.P,C2,1*%
%TO.N,/CH3*%
%TA.AperFunction,SMDPad,CuDef*%
G36*
G01*
X154145000Y-97742500D02*
X153195000Y-97742500D01*
G75*
G02*
X152945000Y-97492500I0J250000D01*
G01*
X152945000Y-96817500D01*
G75*
G02*
X153195000Y-96567500I250000J0D01*
G01*
X154145000Y-96567500D01*
G75*
G02*
X154395000Y-96817500I0J-250000D01*
G01*
X154395000Y-97492500D01*
G75*
G02*
X154145000Y-97742500I-250000J0D01*
G01*
G37*
%TD.AperFunction*%
%TD*%
%TO.P,C1,2*%
%TO.N,GNDA*%
%TA.AperFunction,SMDPad,CuDef*%
G36*
G01*
X154145000Y-89952500D02*
X153195000Y-89952500D01*
G75*
G02*
X152945000Y-89702500I0J250000D01*
G01*
X152945000Y-89027500D01*
G75*
G02*
X153195000Y-88777500I250000J0D01*
G01*
X154145000Y-88777500D01*
G75*
G02*
X154395000Y-89027500I0J-250000D01*
G01*
X154395000Y-89702500D01*
G75*
G02*
X154145000Y-89952500I-250000J0D01*
G01*
G37*
%TD.AperFunction*%
%TO.P,C1,1*%
%TO.N,/CH2*%
%TA.AperFunction,SMDPad,CuDef*%
G36*
G01*
X154145000Y-92027500D02*
X153195000Y-92027500D01*
G75*
G02*
X152945000Y-91777500I0J250000D01*
G01*
X152945000Y-91102500D01*
G75*
G02*
X153195000Y-90852500I250000J0D01*
G01*
X154145000Y-90852500D01*
G75*
G02*
X154395000Y-91102500I0J-250000D01*
G01*
X154395000Y-91777500D01*
G75*
G02*
X154145000Y-92027500I-250000J0D01*
G01*
G37*
%TD.AperFunction*%
%TD*%
D17*
%TO.N,GNDA*%
X151765000Y-89535000D03*
X151765000Y-95250000D03*
X151765000Y-100965000D03*
X151765000Y-106680000D03*
%TO.N,+3V3*%
X148005000Y-88315000D03*
X147955000Y-94030000D03*
X148005000Y-99745000D03*
X148005000Y-105460000D03*
X156210000Y-84455000D03*
X161925000Y-84455000D03*
%TD*%
D18*
%TO.N,GNDA*%
X170582500Y-91440000D02*
X170815000Y-91207500D01*
X167005000Y-91440000D02*
X170582500Y-91440000D01*
D19*
%TO.N,/CH2*%
X144145000Y-91440000D02*
X159385000Y-91440000D01*
%TO.N,/CH3*%
X156210000Y-97155000D02*
X159385000Y-93980000D01*
X144145000Y-97155000D02*
X156210000Y-97155000D01*
%TO.N,/CH4*%
X144145000Y-102870000D02*
X153670000Y-102870000D01*
X153670000Y-102870000D02*
X154940000Y-102870000D01*
X154940000Y-102870000D02*
X156210000Y-101600000D01*
X156210000Y-99695000D02*
X159385000Y-96520000D01*
X156210000Y-101600000D02*
X156210000Y-99695000D01*
%TO.N,/CH5*%
X153403122Y-108585000D02*
X153670000Y-108585000D01*
X144145000Y-108585000D02*
X153403122Y-108585000D01*
X157480000Y-106045000D02*
X157480000Y-100965000D01*
X154940000Y-108585000D02*
X157480000Y-106045000D01*
X153670000Y-108585000D02*
X154940000Y-108585000D01*
X157480000Y-100965000D02*
X159385000Y-99060000D01*
D18*
%TO.N,/CH0*%
X160655000Y-72390000D02*
X160655000Y-85090000D01*
X158115000Y-69850000D02*
X160655000Y-72390000D01*
X160655000Y-85090000D02*
X159385000Y-86360000D01*
X150152500Y-69850000D02*
X158115000Y-69850000D01*
%TO.N,+3V3*%
X173330000Y-73660000D02*
X167030000Y-73660000D01*
X167030000Y-80437500D02*
X167237500Y-80645000D01*
X167030000Y-73660000D02*
X167030000Y-80437500D01*
X167237500Y-86127500D02*
X167005000Y-86360000D01*
X167237500Y-80645000D02*
X167237500Y-86127500D01*
X167005000Y-86360000D02*
X167005000Y-88900000D01*
X170582500Y-88900000D02*
X170815000Y-89132500D01*
X167005000Y-88900000D02*
X170582500Y-88900000D01*
X149860000Y-99745000D02*
X148005000Y-99745000D01*
X149860000Y-105460000D02*
X148005000Y-105460000D01*
X149860000Y-94030000D02*
X147955000Y-94030000D01*
X149860000Y-88315000D02*
X148005000Y-88315000D01*
X148005000Y-88315000D02*
X148005000Y-88315000D01*
X147955000Y-94030000D02*
X147955000Y-94030000D01*
X148005000Y-99745000D02*
X148005000Y-99745000D01*
X148005000Y-105460000D02*
X148005000Y-105460000D01*
X149860000Y-88315000D02*
X152350000Y-88315000D01*
X152350000Y-88315000D02*
X156210000Y-84455000D01*
X165100000Y-84455000D02*
X161925000Y-84455000D01*
X167005000Y-86360000D02*
X165100000Y-84455000D01*
%TO.N,+5V*%
X175902500Y-71360000D02*
X173330000Y-71360000D01*
X177165000Y-72622500D02*
X175902500Y-71360000D01*
X177165000Y-72709772D02*
X177165000Y-72622500D01*
X178910114Y-74454886D02*
X177165000Y-72709772D01*
X178910114Y-85565114D02*
X178910114Y-74454886D01*
X179070000Y-85725000D02*
X178910114Y-85565114D01*
D19*
%TO.N,/ADC_CS*%
X176530000Y-95885000D02*
X179070000Y-95885000D01*
X170815000Y-101600000D02*
X176530000Y-95885000D01*
X167005000Y-101600000D02*
X170815000Y-101600000D01*
%TO.N,/SPI_MOSI*%
X170815000Y-99060000D02*
X176530000Y-93345000D01*
X176530000Y-93345000D02*
X179070000Y-93345000D01*
X167005000Y-99060000D02*
X170815000Y-99060000D01*
%TO.N,/SPI_MISO*%
X176530000Y-90805000D02*
X179070000Y-90805000D01*
X170815000Y-96520000D02*
X176530000Y-90805000D01*
X167005000Y-96520000D02*
X170815000Y-96520000D01*
%TO.N,/SPI_SCK*%
X176530000Y-88265000D02*
X179070000Y-88265000D01*
X170815000Y-93980000D02*
X176530000Y-88265000D01*
X167005000Y-93980000D02*
X170815000Y-93980000D01*
D18*
%TO.N,/CH1*%
X150152500Y-81280000D02*
X157480000Y-81280000D01*
X157480000Y-86995000D02*
X159385000Y-88900000D01*
X157480000Y-81280000D02*
X157480000Y-86995000D01*
%TO.N,Net-(F1-Pad2)*%
X147320000Y-69850000D02*
X139700000Y-69850000D01*
%TO.N,Net-(F1-Pad1)*%
X147345000Y-66725000D02*
X147320000Y-66750000D01*
X150495000Y-66725000D02*
X147345000Y-66725000D01*
%TO.N,Net-(F2-Pad2)*%
X139700000Y-81280000D02*
X147320000Y-81280000D01*
%TO.N,Net-(F2-Pad1)*%
X150470000Y-78180000D02*
X150495000Y-78155000D01*
X147320000Y-78180000D02*
X150470000Y-78180000D01*
%TD*%
D20*
%TO.N,GNDA*%
X163068000Y-83439000D02*
X162122459Y-83439000D01*
X162026939Y-83420000D01*
X161823061Y-83420000D01*
X161671000Y-83450247D01*
X161671000Y-72439893D01*
X161675914Y-72389999D01*
X161671000Y-72340105D01*
X161671000Y-72340098D01*
X161656298Y-72190829D01*
X161598202Y-71999313D01*
X161503860Y-71822810D01*
X161376896Y-71668104D01*
X161338133Y-71636292D01*
X158868712Y-69166872D01*
X158836896Y-69128104D01*
X158682190Y-69001140D01*
X158675891Y-68997773D01*
X158582962Y-68884538D01*
X158576406Y-68879158D01*
X158656185Y-68813685D01*
X158735537Y-68716994D01*
X158794502Y-68606680D01*
X158830812Y-68486982D01*
X158843072Y-68362500D01*
X158840000Y-68060750D01*
X158681250Y-67902000D01*
X157607000Y-67902000D01*
X157607000Y-67922000D01*
X157353000Y-67922000D01*
X157353000Y-67902000D01*
X156278750Y-67902000D01*
X156120000Y-68060750D01*
X156116928Y-68362500D01*
X156129188Y-68486982D01*
X156165498Y-68606680D01*
X156224463Y-68716994D01*
X156303815Y-68813685D01*
X156328569Y-68834000D01*
X155603037Y-68834000D01*
X155582962Y-68809538D01*
X155448387Y-68699095D01*
X155294852Y-68617028D01*
X155128256Y-68566492D01*
X154955002Y-68549428D01*
X153654998Y-68549428D01*
X153481744Y-68566492D01*
X153315148Y-68617028D01*
X153161613Y-68699095D01*
X153027038Y-68809538D01*
X153006963Y-68834000D01*
X151793037Y-68834000D01*
X151772962Y-68809538D01*
X151638387Y-68699095D01*
X151484852Y-68617028D01*
X151318256Y-68566492D01*
X151145002Y-68549428D01*
X149844998Y-68549428D01*
X149671744Y-68566492D01*
X149505148Y-68617028D01*
X149351613Y-68699095D01*
X149217038Y-68809538D01*
X149106595Y-68944113D01*
X149024528Y-69097648D01*
X148973992Y-69264244D01*
X148956928Y-69437498D01*
X148956928Y-70262502D01*
X148973992Y-70435756D01*
X149024528Y-70602352D01*
X149106595Y-70755887D01*
X149217038Y-70890462D01*
X149351613Y-71000905D01*
X149505148Y-71082972D01*
X149671744Y-71133508D01*
X149844998Y-71150572D01*
X151145002Y-71150572D01*
X151318256Y-71133508D01*
X151484852Y-71082972D01*
X151638387Y-71000905D01*
X151772962Y-70890462D01*
X151793037Y-70866000D01*
X153006963Y-70866000D01*
X153027038Y-70890462D01*
X153161613Y-71000905D01*
X153315148Y-71082972D01*
X153481744Y-71133508D01*
X153654998Y-71150572D01*
X154955002Y-71150572D01*
X155128256Y-71133508D01*
X155294852Y-71082972D01*
X155448387Y-71000905D01*
X155582962Y-70890462D01*
X155603037Y-70866000D01*
X156438619Y-70866000D01*
X156511614Y-70925905D01*
X156665150Y-71007972D01*
X156831746Y-71058508D01*
X157005000Y-71075572D01*
X157903732Y-71075572D01*
X159639000Y-72810841D01*
X159639001Y-84669158D01*
X159386231Y-84921928D01*
X158585000Y-84921928D01*
X158496000Y-84930693D01*
X158496000Y-82316829D01*
X158582962Y-82245462D01*
X158693405Y-82110886D01*
X158775472Y-81957350D01*
X158826008Y-81790754D01*
X158843072Y-81617500D01*
X158843072Y-80942500D01*
X158826008Y-80769246D01*
X158775472Y-80602650D01*
X158693405Y-80449114D01*
X158582962Y-80314538D01*
X158576406Y-80309158D01*
X158656185Y-80243685D01*
X158735537Y-80146994D01*
X158794502Y-80036680D01*
X158830812Y-79916982D01*
X158843072Y-79792500D01*
X158840000Y-79490750D01*
X158681250Y-79332000D01*
X157607000Y-79332000D01*
X157607000Y-79352000D01*
X157353000Y-79352000D01*
X157353000Y-79332000D01*
X156278750Y-79332000D01*
X156120000Y-79490750D01*
X156116928Y-79792500D01*
X156129188Y-79916982D01*
X156165498Y-80036680D01*
X156224463Y-80146994D01*
X156303815Y-80243685D01*
X156328569Y-80264000D01*
X155603037Y-80264000D01*
X155582962Y-80239538D01*
X155448387Y-80129095D01*
X155294852Y-80047028D01*
X155128256Y-79996492D01*
X154955002Y-79979428D01*
X153654998Y-79979428D01*
X153481744Y-79996492D01*
X153315148Y-80047028D01*
X153161613Y-80129095D01*
X153027038Y-80239538D01*
X153006963Y-80264000D01*
X151793037Y-80264000D01*
X151772962Y-80239538D01*
X151638387Y-80129095D01*
X151484852Y-80047028D01*
X151318256Y-79996492D01*
X151145002Y-79979428D01*
X149844998Y-79979428D01*
X149671744Y-79996492D01*
X149505148Y-80047028D01*
X149351613Y-80129095D01*
X149217038Y-80239538D01*
X149106595Y-80374113D01*
X149024528Y-80527648D01*
X148973992Y-80694244D01*
X148956928Y-80867498D01*
X148956928Y-81692502D01*
X148973992Y-81865756D01*
X149024528Y-82032352D01*
X149106595Y-82185887D01*
X149217038Y-82320462D01*
X149351613Y-82430905D01*
X149505148Y-82512972D01*
X149671744Y-82563508D01*
X149844998Y-82580572D01*
X151145002Y-82580572D01*
X151318256Y-82563508D01*
X151484852Y-82512972D01*
X151638387Y-82430905D01*
X151772962Y-82320462D01*
X151793037Y-82296000D01*
X153006963Y-82296000D01*
X153027038Y-82320462D01*
X153161613Y-82430905D01*
X153315148Y-82512972D01*
X153481744Y-82563508D01*
X153654998Y-82580572D01*
X154955002Y-82580572D01*
X155128256Y-82563508D01*
X155294852Y-82512972D01*
X155448387Y-82430905D01*
X155582962Y-82320462D01*
X155603037Y-82296000D01*
X156438619Y-82296000D01*
X156464000Y-82316830D01*
X156464000Y-83450247D01*
X156311939Y-83420000D01*
X156108061Y-83420000D01*
X155908102Y-83459774D01*
X155719744Y-83537795D01*
X155550226Y-83651063D01*
X155406063Y-83795226D01*
X155351956Y-83876203D01*
X151929160Y-87299000D01*
X151158037Y-87299000D01*
X151137962Y-87274538D01*
X151003387Y-87164095D01*
X150849852Y-87082028D01*
X150683256Y-87031492D01*
X150510002Y-87014428D01*
X149209998Y-87014428D01*
X149036744Y-87031492D01*
X148870148Y-87082028D01*
X148716613Y-87164095D01*
X148582038Y-87274538D01*
X148561963Y-87299000D01*
X148202459Y-87299000D01*
X148106939Y-87280000D01*
X147903061Y-87280000D01*
X147703102Y-87319774D01*
X147514744Y-87397795D01*
X147345226Y-87511063D01*
X147201063Y-87655226D01*
X147087795Y-87824744D01*
X147009774Y-88013102D01*
X146970000Y-88213061D01*
X146970000Y-88416939D01*
X147009774Y-88616898D01*
X147087795Y-88805256D01*
X147201063Y-88974774D01*
X147345226Y-89118937D01*
X147514744Y-89232205D01*
X147703102Y-89310226D01*
X147903061Y-89350000D01*
X148106939Y-89350000D01*
X148202459Y-89331000D01*
X148561963Y-89331000D01*
X148582038Y-89355462D01*
X148716613Y-89465905D01*
X148870148Y-89547972D01*
X149036744Y-89598508D01*
X149209998Y-89615572D01*
X150510002Y-89615572D01*
X150683256Y-89598508D01*
X150849852Y-89547972D01*
X151003387Y-89465905D01*
X151137962Y-89355462D01*
X151158037Y-89331000D01*
X152300098Y-89331000D01*
X152350000Y-89335915D01*
X152399902Y-89331000D01*
X152549171Y-89316298D01*
X152740687Y-89258202D01*
X152778483Y-89238000D01*
X153543000Y-89238000D01*
X153543000Y-89218000D01*
X153797000Y-89218000D01*
X153797000Y-89238000D01*
X154871250Y-89238000D01*
X155030000Y-89079250D01*
X155033072Y-88777500D01*
X155020812Y-88653018D01*
X154984502Y-88533320D01*
X154925537Y-88423006D01*
X154846185Y-88326315D01*
X154749494Y-88246963D01*
X154639180Y-88187998D01*
X154519482Y-88151688D01*
X154395000Y-88139428D01*
X153959366Y-88142475D01*
X156464001Y-85637840D01*
X156464001Y-86945088D01*
X156459085Y-86995000D01*
X156478702Y-87194170D01*
X156511777Y-87303201D01*
X156536799Y-87385687D01*
X156631141Y-87562190D01*
X156758105Y-87716896D01*
X156796868Y-87748708D01*
X157950000Y-88901841D01*
X157950000Y-89041335D01*
X158005147Y-89318574D01*
X158113320Y-89579727D01*
X158270363Y-89814759D01*
X158470241Y-90014637D01*
X158702759Y-90170000D01*
X158470241Y-90325363D01*
X158270363Y-90525241D01*
X158253151Y-90551000D01*
X154835712Y-90551000D01*
X154772962Y-90474538D01*
X154766406Y-90469158D01*
X154846185Y-90403685D01*
X154925537Y-90306994D01*
X154984502Y-90196680D01*
X155020812Y-90076982D01*
X155033072Y-89952500D01*
X155030000Y-89650750D01*
X154871250Y-89492000D01*
X153797000Y-89492000D01*
X153797000Y-89512000D01*
X153543000Y-89512000D01*
X153543000Y-89492000D01*
X152468750Y-89492000D01*
X152310000Y-89650750D01*
X152306928Y-89952500D01*
X152319188Y-90076982D01*
X152355498Y-90196680D01*
X152414463Y-90306994D01*
X152493815Y-90403685D01*
X152573594Y-90469158D01*
X152567038Y-90474538D01*
X152504288Y-90551000D01*
X151257431Y-90551000D01*
X151248405Y-90534113D01*
X151137962Y-90399538D01*
X151003387Y-90289095D01*
X150849852Y-90207028D01*
X150683256Y-90156492D01*
X150510002Y-90139428D01*
X149209998Y-90139428D01*
X149036744Y-90156492D01*
X148870148Y-90207028D01*
X148716613Y-90289095D01*
X148582038Y-90399538D01*
X148471595Y-90534113D01*
X148462569Y-90551000D01*
X145629231Y-90551000D01*
X145620812Y-90465518D01*
X145584502Y-90345820D01*
X145525537Y-90235506D01*
X145446185Y-90138815D01*
X145349494Y-90059463D01*
X145239180Y-90000498D01*
X145119482Y-89964188D01*
X144995000Y-89951928D01*
X143295000Y-89951928D01*
X143170518Y-89964188D01*
X143050820Y-90000498D01*
X142940506Y-90059463D01*
X142843815Y-90138815D01*
X142764463Y-90235506D01*
X142705498Y-90345820D01*
X142681034Y-90426466D01*
X142605269Y-90342412D01*
X142371920Y-90168359D01*
X142109099Y-90043175D01*
X141961890Y-89998524D01*
X141732000Y-90119845D01*
X141732000Y-91313000D01*
X141752000Y-91313000D01*
X141752000Y-91567000D01*
X141732000Y-91567000D01*
X141732000Y-92760155D01*
X141961890Y-92881476D01*
X142109099Y-92836825D01*
X142371920Y-92711641D01*
X142605269Y-92537588D01*
X142681034Y-92453534D01*
X142705498Y-92534180D01*
X142764463Y-92644494D01*
X142843815Y-92741185D01*
X142940506Y-92820537D01*
X143050820Y-92879502D01*
X143170518Y-92915812D01*
X143295000Y-92928072D01*
X144995000Y-92928072D01*
X145119482Y-92915812D01*
X145239180Y-92879502D01*
X145349494Y-92820537D01*
X145446185Y-92741185D01*
X145525537Y-92644494D01*
X145584502Y-92534180D01*
X145620812Y-92414482D01*
X145629231Y-92329000D01*
X148462569Y-92329000D01*
X148471595Y-92345887D01*
X148582038Y-92480462D01*
X148716613Y-92590905D01*
X148870148Y-92672972D01*
X149036744Y-92723508D01*
X149153424Y-92735000D01*
X149036744Y-92746492D01*
X148870148Y-92797028D01*
X148716613Y-92879095D01*
X148582038Y-92989538D01*
X148561963Y-93014000D01*
X148152459Y-93014000D01*
X148056939Y-92995000D01*
X147853061Y-92995000D01*
X147653102Y-93034774D01*
X147464744Y-93112795D01*
X147295226Y-93226063D01*
X147151063Y-93370226D01*
X147037795Y-93539744D01*
X146959774Y-93728102D01*
X146920000Y-93928061D01*
X146920000Y-94131939D01*
X146959774Y-94331898D01*
X147037795Y-94520256D01*
X147151063Y-94689774D01*
X147295226Y-94833937D01*
X147464744Y-94947205D01*
X147653102Y-95025226D01*
X147853061Y-95065000D01*
X148056939Y-95065000D01*
X148152459Y-95046000D01*
X148561963Y-95046000D01*
X148582038Y-95070462D01*
X148716613Y-95180905D01*
X148870148Y-95262972D01*
X149036744Y-95313508D01*
X149209998Y-95330572D01*
X150510002Y-95330572D01*
X150683256Y-95313508D01*
X150849852Y-95262972D01*
X151003387Y-95180905D01*
X151137962Y-95070462D01*
X151248405Y-94935887D01*
X151330472Y-94782352D01*
X151381008Y-94615756D01*
X151393147Y-94492500D01*
X152306928Y-94492500D01*
X152310000Y-94794250D01*
X152468750Y-94953000D01*
X153543000Y-94953000D01*
X153543000Y-94016250D01*
X153797000Y-94016250D01*
X153797000Y-94953000D01*
X154871250Y-94953000D01*
X155030000Y-94794250D01*
X155033072Y-94492500D01*
X155020812Y-94368018D01*
X154984502Y-94248320D01*
X154925537Y-94138006D01*
X154846185Y-94041315D01*
X154749494Y-93961963D01*
X154639180Y-93902998D01*
X154519482Y-93866688D01*
X154395000Y-93854428D01*
X153955750Y-93857500D01*
X153797000Y-94016250D01*
X153543000Y-94016250D01*
X153384250Y-93857500D01*
X152945000Y-93854428D01*
X152820518Y-93866688D01*
X152700820Y-93902998D01*
X152590506Y-93961963D01*
X152493815Y-94041315D01*
X152414463Y-94138006D01*
X152355498Y-94248320D01*
X152319188Y-94368018D01*
X152306928Y-94492500D01*
X151393147Y-94492500D01*
X151398072Y-94442502D01*
X151398072Y-93617498D01*
X151381008Y-93444244D01*
X151330472Y-93277648D01*
X151248405Y-93124113D01*
X151137962Y-92989538D01*
X151003387Y-92879095D01*
X150849852Y-92797028D01*
X150683256Y-92746492D01*
X150566576Y-92735000D01*
X150683256Y-92723508D01*
X150849852Y-92672972D01*
X151003387Y-92590905D01*
X151137962Y-92480462D01*
X151248405Y-92345887D01*
X151257431Y-92329000D01*
X152504288Y-92329000D01*
X152567038Y-92405462D01*
X152701614Y-92515905D01*
X152855150Y-92597972D01*
X153021746Y-92648508D01*
X153195000Y-92665572D01*
X154145000Y-92665572D01*
X154318254Y-92648508D01*
X154484850Y-92597972D01*
X154638386Y-92515905D01*
X154772962Y-92405462D01*
X154835712Y-92329000D01*
X158253151Y-92329000D01*
X158270363Y-92354759D01*
X158470241Y-92554637D01*
X158702759Y-92710000D01*
X158470241Y-92865363D01*
X158270363Y-93065241D01*
X158113320Y-93300273D01*
X158005147Y-93561426D01*
X157950000Y-93838665D01*
X157950000Y-94121335D01*
X157956044Y-94151720D01*
X155841765Y-96266000D01*
X154835712Y-96266000D01*
X154772962Y-96189538D01*
X154766406Y-96184158D01*
X154846185Y-96118685D01*
X154925537Y-96021994D01*
X154984502Y-95911680D01*
X155020812Y-95791982D01*
X155033072Y-95667500D01*
X155030000Y-95365750D01*
X154871250Y-95207000D01*
X153797000Y-95207000D01*
X153797000Y-95227000D01*
X153543000Y-95227000D01*
X153543000Y-95207000D01*
X152468750Y-95207000D01*
X152310000Y-95365750D01*
X152306928Y-95667500D01*
X152319188Y-95791982D01*
X152355498Y-95911680D01*
X152414463Y-96021994D01*
X152493815Y-96118685D01*
X152573594Y-96184158D01*
X152567038Y-96189538D01*
X152504288Y-96266000D01*
X151257431Y-96266000D01*
X151248405Y-96249113D01*
X151137962Y-96114538D01*
X151003387Y-96004095D01*
X150849852Y-95922028D01*
X150683256Y-95871492D01*
X150510002Y-95854428D01*
X149209998Y-95854428D01*
X149036744Y-95871492D01*
X148870148Y-95922028D01*
X148716613Y-96004095D01*
X148582038Y-96114538D01*
X148471595Y-96249113D01*
X148462569Y-96266000D01*
X145629231Y-96266000D01*
X145620812Y-96180518D01*
X145584502Y-96060820D01*
X145525537Y-95950506D01*
X145446185Y-95853815D01*
X145349494Y-95774463D01*
X145239180Y-95715498D01*
X145119482Y-95679188D01*
X144995000Y-95666928D01*
X143295000Y-95666928D01*
X143170518Y-95679188D01*
X143050820Y-95715498D01*
X142940506Y-95774463D01*
X142843815Y-95853815D01*
X142764463Y-95950506D01*
X142705498Y-96060820D01*
X142681034Y-96141466D01*
X142605269Y-96057412D01*
X142371920Y-95883359D01*
X142109099Y-95758175D01*
X141961890Y-95713524D01*
X141732000Y-95834845D01*
X141732000Y-97028000D01*
X141752000Y-97028000D01*
X141752000Y-97282000D01*
X141732000Y-97282000D01*
X141732000Y-98475155D01*
X141961890Y-98596476D01*
X142109099Y-98551825D01*
X142371920Y-98426641D01*
X142605269Y-98252588D01*
X142681034Y-98168534D01*
X142705498Y-98249180D01*
X142764463Y-98359494D01*
X142843815Y-98456185D01*
X142940506Y-98535537D01*
X143050820Y-98594502D01*
X143170518Y-98630812D01*
X143295000Y-98643072D01*
X144995000Y-98643072D01*
X145119482Y-98630812D01*
X145239180Y-98594502D01*
X145349494Y-98535537D01*
X145446185Y-98456185D01*
X145525537Y-98359494D01*
X145584502Y-98249180D01*
X145620812Y-98129482D01*
X145629231Y-98044000D01*
X148462569Y-98044000D01*
X148471595Y-98060887D01*
X148582038Y-98195462D01*
X148716613Y-98305905D01*
X148870148Y-98387972D01*
X149036744Y-98438508D01*
X149153424Y-98450000D01*
X149036744Y-98461492D01*
X148870148Y-98512028D01*
X148716613Y-98594095D01*
X148582038Y-98704538D01*
X148561963Y-98729000D01*
X148202459Y-98729000D01*
X148106939Y-98710000D01*
X147903061Y-98710000D01*
X147703102Y-98749774D01*
X147514744Y-98827795D01*
X147345226Y-98941063D01*
X147201063Y-99085226D01*
X147087795Y-99254744D01*
X147009774Y-99443102D01*
X146970000Y-99643061D01*
X146970000Y-99846939D01*
X147009774Y-100046898D01*
X147087795Y-100235256D01*
X147201063Y-100404774D01*
X147345226Y-100548937D01*
X147514744Y-100662205D01*
X147703102Y-100740226D01*
X147903061Y-100780000D01*
X148106939Y-100780000D01*
X148202459Y-100761000D01*
X148561963Y-100761000D01*
X148582038Y-100785462D01*
X148716613Y-100895905D01*
X148870148Y-100977972D01*
X149036744Y-101028508D01*
X149209998Y-101045572D01*
X150510002Y-101045572D01*
X150683256Y-101028508D01*
X150849852Y-100977972D01*
X151003387Y-100895905D01*
X151137962Y-100785462D01*
X151248405Y-100650887D01*
X151330472Y-100497352D01*
X151381008Y-100330756D01*
X151393147Y-100207500D01*
X152306928Y-100207500D01*
X152310000Y-100509250D01*
X152468750Y-100668000D01*
X153543000Y-100668000D01*
X153543000Y-99731250D01*
X153797000Y-99731250D01*
X153797000Y-100668000D01*
X154871250Y-100668000D01*
X155030000Y-100509250D01*
X155033072Y-100207500D01*
X155020812Y-100083018D01*
X154984502Y-99963320D01*
X154925537Y-99853006D01*
X154846185Y-99756315D01*
X154749494Y-99676963D01*
X154639180Y-99617998D01*
X154519482Y-99581688D01*
X154395000Y-99569428D01*
X153955750Y-99572500D01*
X153797000Y-99731250D01*
X153543000Y-99731250D01*
X153384250Y-99572500D01*
X152945000Y-99569428D01*
X152820518Y-99581688D01*
X152700820Y-99617998D01*
X152590506Y-99676963D01*
X152493815Y-99756315D01*
X152414463Y-99853006D01*
X152355498Y-99963320D01*
X152319188Y-100083018D01*
X152306928Y-100207500D01*
X151393147Y-100207500D01*
X151398072Y-100157502D01*
X151398072Y-99332498D01*
X151381008Y-99159244D01*
X151330472Y-98992648D01*
X151248405Y-98839113D01*
X151137962Y-98704538D01*
X151003387Y-98594095D01*
X150849852Y-98512028D01*
X150683256Y-98461492D01*
X150566576Y-98450000D01*
X150683256Y-98438508D01*
X150849852Y-98387972D01*
X151003387Y-98305905D01*
X151137962Y-98195462D01*
X151248405Y-98060887D01*
X151257431Y-98044000D01*
X152504288Y-98044000D01*
X152567038Y-98120462D01*
X152701614Y-98230905D01*
X152855150Y-98312972D01*
X153021746Y-98363508D01*
X153195000Y-98380572D01*
X154145000Y-98380572D01*
X154318254Y-98363508D01*
X154484850Y-98312972D01*
X154638386Y-98230905D01*
X154772962Y-98120462D01*
X154835712Y-98044000D01*
X156166340Y-98044000D01*
X156210000Y-98048300D01*
X156253660Y-98044000D01*
X156253667Y-98044000D01*
X156384274Y-98031136D01*
X156551851Y-97980303D01*
X156706291Y-97897753D01*
X156841659Y-97786659D01*
X156869499Y-97752736D01*
X157951809Y-96670427D01*
X157956044Y-96691720D01*
X155612259Y-99035506D01*
X155578342Y-99063341D01*
X155550507Y-99097258D01*
X155550505Y-99097260D01*
X155467248Y-99198709D01*
X155384698Y-99353148D01*
X155333864Y-99520726D01*
X155316700Y-99695000D01*
X155321001Y-99738670D01*
X155321000Y-101231764D01*
X155009939Y-101542825D01*
X155020812Y-101506982D01*
X155033072Y-101382500D01*
X155030000Y-101080750D01*
X154871250Y-100922000D01*
X153797000Y-100922000D01*
X153797000Y-100942000D01*
X153543000Y-100942000D01*
X153543000Y-100922000D01*
X152468750Y-100922000D01*
X152310000Y-101080750D01*
X152306928Y-101382500D01*
X152319188Y-101506982D01*
X152355498Y-101626680D01*
X152414463Y-101736994D01*
X152493815Y-101833685D01*
X152573594Y-101899158D01*
X152567038Y-101904538D01*
X152504288Y-101981000D01*
X151257431Y-101981000D01*
X151248405Y-101964113D01*
X151137962Y-101829538D01*
X151003387Y-101719095D01*
X150849852Y-101637028D01*
X150683256Y-101586492D01*
X150510002Y-101569428D01*
X149209998Y-101569428D01*
X149036744Y-101586492D01*
X148870148Y-101637028D01*
X148716613Y-101719095D01*
X148582038Y-101829538D01*
X148471595Y-101964113D01*
X148462569Y-101981000D01*
X145629231Y-101981000D01*
X145620812Y-101895518D01*
X145584502Y-101775820D01*
X145525537Y-101665506D01*
X145446185Y-101568815D01*
X145349494Y-101489463D01*
X145239180Y-101430498D01*
X145119482Y-101394188D01*
X144995000Y-101381928D01*
X143295000Y-101381928D01*
X143170518Y-101394188D01*
X143050820Y-101430498D01*
X142940506Y-101489463D01*
X142843815Y-101568815D01*
X142764463Y-101665506D01*
X142705498Y-101775820D01*
X142681034Y-101856466D01*
X142605269Y-101772412D01*
X142371920Y-101598359D01*
X142109099Y-101473175D01*
X141961890Y-101428524D01*
X141732000Y-101549845D01*
X141732000Y-102743000D01*
X141752000Y-102743000D01*
X141752000Y-102997000D01*
X141732000Y-102997000D01*
X141732000Y-104190155D01*
X141961890Y-104311476D01*
X142109099Y-104266825D01*
X142371920Y-104141641D01*
X142605269Y-103967588D01*
X142681034Y-103883534D01*
X142705498Y-103964180D01*
X142764463Y-104074494D01*
X142843815Y-104171185D01*
X142940506Y-104250537D01*
X143050820Y-104309502D01*
X143170518Y-104345812D01*
X143295000Y-104358072D01*
X144995000Y-104358072D01*
X145119482Y-104345812D01*
X145239180Y-104309502D01*
X145349494Y-104250537D01*
X145446185Y-104171185D01*
X145525537Y-104074494D01*
X145584502Y-103964180D01*
X145620812Y-103844482D01*
X145629231Y-103759000D01*
X148462569Y-103759000D01*
X148471595Y-103775887D01*
X148582038Y-103910462D01*
X148716613Y-104020905D01*
X148870148Y-104102972D01*
X149036744Y-104153508D01*
X149153424Y-104165000D01*
X149036744Y-104176492D01*
X148870148Y-104227028D01*
X148716613Y-104309095D01*
X148582038Y-104419538D01*
X148561963Y-104444000D01*
X148202459Y-104444000D01*
X148106939Y-104425000D01*
X147903061Y-104425000D01*
X147703102Y-104464774D01*
X147514744Y-104542795D01*
X147345226Y-104656063D01*
X147201063Y-104800226D01*
X147087795Y-104969744D01*
X147009774Y-105158102D01*
X146970000Y-105358061D01*
X146970000Y-105561939D01*
X147009774Y-105761898D01*
X147087795Y-105950256D01*
X147201063Y-106119774D01*
X147345226Y-106263937D01*
X147514744Y-106377205D01*
X147703102Y-106455226D01*
X147903061Y-106495000D01*
X148106939Y-106495000D01*
X148202459Y-106476000D01*
X148561963Y-106476000D01*
X148582038Y-106500462D01*
X148716613Y-106610905D01*
X148870148Y-106692972D01*
X149036744Y-106743508D01*
X149209998Y-106760572D01*
X150510002Y-106760572D01*
X150683256Y-106743508D01*
X150849852Y-106692972D01*
X151003387Y-106610905D01*
X151137962Y-106500462D01*
X151248405Y-106365887D01*
X151330472Y-106212352D01*
X151381008Y-106045756D01*
X151393147Y-105922500D01*
X152306928Y-105922500D01*
X152310000Y-106224250D01*
X152468750Y-106383000D01*
X153543000Y-106383000D01*
X153543000Y-105446250D01*
X153797000Y-105446250D01*
X153797000Y-106383000D01*
X154871250Y-106383000D01*
X155030000Y-106224250D01*
X155033072Y-105922500D01*
X155020812Y-105798018D01*
X154984502Y-105678320D01*
X154925537Y-105568006D01*
X154846185Y-105471315D01*
X154749494Y-105391963D01*
X154639180Y-105332998D01*
X154519482Y-105296688D01*
X154395000Y-105284428D01*
X153955750Y-105287500D01*
X153797000Y-105446250D01*
X153543000Y-105446250D01*
X153384250Y-105287500D01*
X152945000Y-105284428D01*
X152820518Y-105296688D01*
X152700820Y-105332998D01*
X152590506Y-105391963D01*
X152493815Y-105471315D01*
X152414463Y-105568006D01*
X152355498Y-105678320D01*
X152319188Y-105798018D01*
X152306928Y-105922500D01*
X151393147Y-105922500D01*
X151398072Y-105872502D01*
X151398072Y-105047498D01*
X151381008Y-104874244D01*
X151330472Y-104707648D01*
X151248405Y-104554113D01*
X151137962Y-104419538D01*
X151003387Y-104309095D01*
X150849852Y-104227028D01*
X150683256Y-104176492D01*
X150566576Y-104165000D01*
X150683256Y-104153508D01*
X150849852Y-104102972D01*
X151003387Y-104020905D01*
X151137962Y-103910462D01*
X151248405Y-103775887D01*
X151257431Y-103759000D01*
X152504288Y-103759000D01*
X152567038Y-103835462D01*
X152701614Y-103945905D01*
X152855150Y-104027972D01*
X153021746Y-104078508D01*
X153195000Y-104095572D01*
X154145000Y-104095572D01*
X154318254Y-104078508D01*
X154484850Y-104027972D01*
X154638386Y-103945905D01*
X154772962Y-103835462D01*
X154835712Y-103759000D01*
X154896340Y-103759000D01*
X154940000Y-103763300D01*
X154983660Y-103759000D01*
X154983667Y-103759000D01*
X155114274Y-103746136D01*
X155281851Y-103695303D01*
X155436291Y-103612753D01*
X155571659Y-103501659D01*
X155599499Y-103467736D01*
X156591001Y-102476235D01*
X156591000Y-105676764D01*
X155009939Y-107257826D01*
X155020812Y-107221982D01*
X155033072Y-107097500D01*
X155030000Y-106795750D01*
X154871250Y-106637000D01*
X153797000Y-106637000D01*
X153797000Y-106657000D01*
X153543000Y-106657000D01*
X153543000Y-106637000D01*
X152468750Y-106637000D01*
X152310000Y-106795750D01*
X152306928Y-107097500D01*
X152319188Y-107221982D01*
X152355498Y-107341680D01*
X152414463Y-107451994D01*
X152493815Y-107548685D01*
X152573594Y-107614158D01*
X152567038Y-107619538D01*
X152504288Y-107696000D01*
X151257431Y-107696000D01*
X151248405Y-107679113D01*
X151137962Y-107544538D01*
X151003387Y-107434095D01*
X150849852Y-107352028D01*
X150683256Y-107301492D01*
X150510002Y-107284428D01*
X149209998Y-107284428D01*
X149036744Y-107301492D01*
X148870148Y-107352028D01*
X148716613Y-107434095D01*
X148582038Y-107544538D01*
X148471595Y-107679113D01*
X148462569Y-107696000D01*
X145629231Y-107696000D01*
X145620812Y-107610518D01*
X145584502Y-107490820D01*
X145525537Y-107380506D01*
X145446185Y-107283815D01*
X145349494Y-107204463D01*
X145239180Y-107145498D01*
X145119482Y-107109188D01*
X144995000Y-107096928D01*
X143295000Y-107096928D01*
X143170518Y-107109188D01*
X143050820Y-107145498D01*
X142940506Y-107204463D01*
X142843815Y-107283815D01*
X142764463Y-107380506D01*
X142705498Y-107490820D01*
X142681034Y-107571466D01*
X142605269Y-107487412D01*
X142371920Y-107313359D01*
X142109099Y-107188175D01*
X141961890Y-107143524D01*
X141732000Y-107264845D01*
X141732000Y-108458000D01*
X141752000Y-108458000D01*
X141752000Y-108712000D01*
X141732000Y-108712000D01*
X141732000Y-109905155D01*
X141961890Y-110026476D01*
X142109099Y-109981825D01*
X142371920Y-109856641D01*
X142605269Y-109682588D01*
X142681034Y-109598534D01*
X142705498Y-109679180D01*
X142764463Y-109789494D01*
X142843815Y-109886185D01*
X142940506Y-109965537D01*
X143050820Y-110024502D01*
X143170518Y-110060812D01*
X143295000Y-110073072D01*
X144995000Y-110073072D01*
X145119482Y-110060812D01*
X145239180Y-110024502D01*
X145349494Y-109965537D01*
X145446185Y-109886185D01*
X145525537Y-109789494D01*
X145584502Y-109679180D01*
X145620812Y-109559482D01*
X145629231Y-109474000D01*
X148462569Y-109474000D01*
X148471595Y-109490887D01*
X148582038Y-109625462D01*
X148716613Y-109735905D01*
X148870148Y-109817972D01*
X149036744Y-109868508D01*
X149209998Y-109885572D01*
X150510002Y-109885572D01*
X150683256Y-109868508D01*
X150849852Y-109817972D01*
X151003387Y-109735905D01*
X151137962Y-109625462D01*
X151248405Y-109490887D01*
X151257431Y-109474000D01*
X152504288Y-109474000D01*
X152567038Y-109550462D01*
X152701614Y-109660905D01*
X152855150Y-109742972D01*
X153021746Y-109793508D01*
X153195000Y-109810572D01*
X154145000Y-109810572D01*
X154318254Y-109793508D01*
X154484850Y-109742972D01*
X154638386Y-109660905D01*
X154772962Y-109550462D01*
X154835712Y-109474000D01*
X154896340Y-109474000D01*
X154940000Y-109478300D01*
X154983660Y-109474000D01*
X154983667Y-109474000D01*
X155114274Y-109461136D01*
X155281851Y-109410303D01*
X155436291Y-109327753D01*
X155571659Y-109216659D01*
X155599499Y-109182736D01*
X158077743Y-106704493D01*
X158111659Y-106676659D01*
X158222753Y-106541291D01*
X158305303Y-106386851D01*
X158354627Y-106224250D01*
X158356136Y-106219276D01*
X158359406Y-106186076D01*
X158369000Y-106088667D01*
X158369000Y-106088661D01*
X158373300Y-106045001D01*
X158369000Y-106001341D01*
X158369000Y-105153396D01*
X158470241Y-105254637D01*
X158705273Y-105411680D01*
X158966426Y-105519853D01*
X159243665Y-105575000D01*
X159526335Y-105575000D01*
X159803574Y-105519853D01*
X160064727Y-105411680D01*
X160299759Y-105254637D01*
X160499637Y-105054759D01*
X160656680Y-104819727D01*
X160764853Y-104558574D01*
X160820000Y-104281335D01*
X160820000Y-103998665D01*
X160764853Y-103721426D01*
X160656680Y-103460273D01*
X160499637Y-103225241D01*
X160299759Y-103025363D01*
X160067241Y-102870000D01*
X160299759Y-102714637D01*
X160499637Y-102514759D01*
X160656680Y-102279727D01*
X160764853Y-102018574D01*
X160820000Y-101741335D01*
X160820000Y-101458665D01*
X160764853Y-101181426D01*
X160656680Y-100920273D01*
X160499637Y-100685241D01*
X160299759Y-100485363D01*
X160067241Y-100330000D01*
X160299759Y-100174637D01*
X160499637Y-99974759D01*
X160656680Y-99739727D01*
X160764853Y-99478574D01*
X160820000Y-99201335D01*
X160820000Y-98918665D01*
X160764853Y-98641426D01*
X160656680Y-98380273D01*
X160499637Y-98145241D01*
X160299759Y-97945363D01*
X160067241Y-97790000D01*
X160299759Y-97634637D01*
X160499637Y-97434759D01*
X160656680Y-97199727D01*
X160764853Y-96938574D01*
X160820000Y-96661335D01*
X160820000Y-96378665D01*
X160764853Y-96101426D01*
X160656680Y-95840273D01*
X160499637Y-95605241D01*
X160299759Y-95405363D01*
X160067241Y-95250000D01*
X160299759Y-95094637D01*
X160499637Y-94894759D01*
X160656680Y-94659727D01*
X160764853Y-94398574D01*
X160820000Y-94121335D01*
X160820000Y-93838665D01*
X160764853Y-93561426D01*
X160656680Y-93300273D01*
X160499637Y-93065241D01*
X160299759Y-92865363D01*
X160067241Y-92710000D01*
X160299759Y-92554637D01*
X160499637Y-92354759D01*
X160656680Y-92119727D01*
X160764853Y-91858574D01*
X160820000Y-91581335D01*
X160820000Y-91298665D01*
X160764853Y-91021426D01*
X160656680Y-90760273D01*
X160499637Y-90525241D01*
X160299759Y-90325363D01*
X160067241Y-90170000D01*
X160299759Y-90014637D01*
X160499637Y-89814759D01*
X160656680Y-89579727D01*
X160764853Y-89318574D01*
X160820000Y-89041335D01*
X160820000Y-88758665D01*
X160764853Y-88481426D01*
X160656680Y-88220273D01*
X160499637Y-87985241D01*
X160301039Y-87786643D01*
X160309482Y-87785812D01*
X160429180Y-87749502D01*
X160539494Y-87690537D01*
X160636185Y-87611185D01*
X160715537Y-87514494D01*
X160774502Y-87404180D01*
X160810812Y-87284482D01*
X160823072Y-87160000D01*
X160823072Y-86358769D01*
X161338133Y-85843708D01*
X161376896Y-85811896D01*
X161503860Y-85657190D01*
X161598202Y-85480687D01*
X161609190Y-85444464D01*
X161623102Y-85450226D01*
X161823061Y-85490000D01*
X162026939Y-85490000D01*
X162122459Y-85471000D01*
X163068000Y-85471000D01*
X163068000Y-89535000D01*
X163070440Y-89559776D01*
X163077667Y-89583601D01*
X163089403Y-89605557D01*
X163105197Y-89624803D01*
X163740197Y-90259803D01*
X163759443Y-90275597D01*
X163781399Y-90287333D01*
X163805224Y-90294560D01*
X163830000Y-90297000D01*
X166139520Y-90297000D01*
X165941481Y-90476586D01*
X165773963Y-90702580D01*
X165653754Y-90956913D01*
X165613096Y-91090961D01*
X165735085Y-91313000D01*
X166878000Y-91313000D01*
X166878000Y-91293000D01*
X167132000Y-91293000D01*
X167132000Y-91313000D01*
X167152000Y-91313000D01*
X167152000Y-91567000D01*
X167132000Y-91567000D01*
X167132000Y-91587000D01*
X166878000Y-91587000D01*
X166878000Y-91567000D01*
X165735085Y-91567000D01*
X165613096Y-91789039D01*
X165653754Y-91923087D01*
X165773963Y-92177420D01*
X165941481Y-92403414D01*
X166139520Y-92583000D01*
X163830000Y-92583000D01*
X163805224Y-92585440D01*
X163781399Y-92592667D01*
X163759443Y-92604403D01*
X163740197Y-92620197D01*
X163105197Y-93255197D01*
X163089403Y-93274443D01*
X163077667Y-93296399D01*
X163070440Y-93320224D01*
X163068000Y-93345000D01*
X163068000Y-111100000D01*
X128295000Y-111100000D01*
X128295000Y-108941891D01*
X140163519Y-108941891D01*
X140260843Y-109216252D01*
X140409822Y-109466355D01*
X140604731Y-109682588D01*
X140838080Y-109856641D01*
X141100901Y-109981825D01*
X141248110Y-110026476D01*
X141478000Y-109905155D01*
X141478000Y-108712000D01*
X140284186Y-108712000D01*
X140163519Y-108941891D01*
X128295000Y-108941891D01*
X128295000Y-108228109D01*
X140163519Y-108228109D01*
X140284186Y-108458000D01*
X141478000Y-108458000D01*
X141478000Y-107264845D01*
X141248110Y-107143524D01*
X141100901Y-107188175D01*
X140838080Y-107313359D01*
X140604731Y-107487412D01*
X140409822Y-107703645D01*
X140260843Y-107953748D01*
X140163519Y-108228109D01*
X128295000Y-108228109D01*
X128295000Y-103226891D01*
X140163519Y-103226891D01*
X140260843Y-103501252D01*
X140409822Y-103751355D01*
X140604731Y-103967588D01*
X140838080Y-104141641D01*
X141100901Y-104266825D01*
X141248110Y-104311476D01*
X141478000Y-104190155D01*
X141478000Y-102997000D01*
X140284186Y-102997000D01*
X140163519Y-103226891D01*
X128295000Y-103226891D01*
X128295000Y-102513109D01*
X140163519Y-102513109D01*
X140284186Y-102743000D01*
X141478000Y-102743000D01*
X141478000Y-101549845D01*
X141248110Y-101428524D01*
X141100901Y-101473175D01*
X140838080Y-101598359D01*
X140604731Y-101772412D01*
X140409822Y-101988645D01*
X140260843Y-102238748D01*
X140163519Y-102513109D01*
X128295000Y-102513109D01*
X128295000Y-97511891D01*
X140163519Y-97511891D01*
X140260843Y-97786252D01*
X140409822Y-98036355D01*
X140604731Y-98252588D01*
X140838080Y-98426641D01*
X141100901Y-98551825D01*
X141248110Y-98596476D01*
X141478000Y-98475155D01*
X141478000Y-97282000D01*
X140284186Y-97282000D01*
X140163519Y-97511891D01*
X128295000Y-97511891D01*
X128295000Y-96798109D01*
X140163519Y-96798109D01*
X140284186Y-97028000D01*
X141478000Y-97028000D01*
X141478000Y-95834845D01*
X141248110Y-95713524D01*
X141100901Y-95758175D01*
X140838080Y-95883359D01*
X140604731Y-96057412D01*
X140409822Y-96273645D01*
X140260843Y-96523748D01*
X140163519Y-96798109D01*
X128295000Y-96798109D01*
X128295000Y-91879495D01*
X130095000Y-91879495D01*
X130095000Y-92270505D01*
X130171282Y-92654003D01*
X130320915Y-93015250D01*
X130538149Y-93340364D01*
X130814636Y-93616851D01*
X131139750Y-93834085D01*
X131500997Y-93983718D01*
X131884495Y-94060000D01*
X132275505Y-94060000D01*
X132659003Y-93983718D01*
X133020250Y-93834085D01*
X133345364Y-93616851D01*
X133621851Y-93340364D01*
X133839085Y-93015250D01*
X133988718Y-92654003D01*
X134065000Y-92270505D01*
X134065000Y-91879495D01*
X134048570Y-91796891D01*
X140163519Y-91796891D01*
X140260843Y-92071252D01*
X140409822Y-92321355D01*
X140604731Y-92537588D01*
X140838080Y-92711641D01*
X141100901Y-92836825D01*
X141248110Y-92881476D01*
X141478000Y-92760155D01*
X141478000Y-91567000D01*
X140284186Y-91567000D01*
X140163519Y-91796891D01*
X134048570Y-91796891D01*
X133988718Y-91495997D01*
X133839085Y-91134750D01*
X133804580Y-91083109D01*
X140163519Y-91083109D01*
X140284186Y-91313000D01*
X141478000Y-91313000D01*
X141478000Y-90119845D01*
X141248110Y-89998524D01*
X141100901Y-90043175D01*
X140838080Y-90168359D01*
X140604731Y-90342412D01*
X140409822Y-90558645D01*
X140260843Y-90808748D01*
X140163519Y-91083109D01*
X133804580Y-91083109D01*
X133621851Y-90809636D01*
X133345364Y-90533149D01*
X133020250Y-90315915D01*
X132659003Y-90166282D01*
X132275505Y-90090000D01*
X131884495Y-90090000D01*
X131500997Y-90166282D01*
X131139750Y-90315915D01*
X130814636Y-90533149D01*
X130538149Y-90809636D01*
X130320915Y-91134750D01*
X130171282Y-91495997D01*
X130095000Y-91879495D01*
X128295000Y-91879495D01*
X128295000Y-83838686D01*
X130120919Y-83838686D01*
X130457106Y-84307868D01*
X131087068Y-84648237D01*
X131771327Y-84859166D01*
X132483589Y-84932550D01*
X133196482Y-84865569D01*
X133882609Y-84660796D01*
X134515603Y-84326102D01*
X134542894Y-84307868D01*
X134879081Y-83838686D01*
X132500000Y-81459605D01*
X130120919Y-83838686D01*
X128295000Y-83838686D01*
X128295000Y-81263589D01*
X128847450Y-81263589D01*
X128914431Y-81976482D01*
X129119204Y-82662609D01*
X129453898Y-83295603D01*
X129472132Y-83322894D01*
X129941314Y-83659081D01*
X132320395Y-81280000D01*
X132679605Y-81280000D01*
X135058686Y-83659081D01*
X135527868Y-83322894D01*
X135868237Y-82692932D01*
X136061928Y-82064594D01*
X136061928Y-82780000D01*
X136103010Y-83197117D01*
X136224679Y-83598205D01*
X136422258Y-83967849D01*
X136688155Y-84291845D01*
X137012151Y-84557742D01*
X137381795Y-84755321D01*
X137782883Y-84876990D01*
X138200000Y-84918072D01*
X141200000Y-84918072D01*
X141617117Y-84876990D01*
X142018205Y-84755321D01*
X142387849Y-84557742D01*
X142711845Y-84291845D01*
X142977742Y-83967849D01*
X143175321Y-83598205D01*
X143296990Y-83197117D01*
X143338072Y-82780000D01*
X143338072Y-82296000D01*
X146057221Y-82296000D01*
X146067038Y-82307962D01*
X146201614Y-82418405D01*
X146355150Y-82500472D01*
X146521746Y-82551008D01*
X146695000Y-82568072D01*
X147945000Y-82568072D01*
X148118254Y-82551008D01*
X148284850Y-82500472D01*
X148438386Y-82418405D01*
X148572962Y-82307962D01*
X148683405Y-82173386D01*
X148765472Y-82019850D01*
X148816008Y-81853254D01*
X148833072Y-81680000D01*
X148833072Y-80880000D01*
X148816008Y-80706746D01*
X148765472Y-80540150D01*
X148683405Y-80386614D01*
X148572962Y-80252038D01*
X148438386Y-80141595D01*
X148284850Y-80059528D01*
X148118254Y-80008992D01*
X147945000Y-79991928D01*
X146695000Y-79991928D01*
X146521746Y-80008992D01*
X146355150Y-80059528D01*
X146201614Y-80141595D01*
X146067038Y-80252038D01*
X146057221Y-80264000D01*
X143338072Y-80264000D01*
X143338072Y-79780000D01*
X143296990Y-79362883D01*
X143175321Y-78961795D01*
X142977742Y-78592151D01*
X142711845Y-78268155D01*
X142387849Y-78002258D01*
X142018205Y-77804679D01*
X141936850Y-77780000D01*
X145806928Y-77780000D01*
X145806928Y-78580000D01*
X145823992Y-78753254D01*
X145874528Y-78919850D01*
X145956595Y-79073386D01*
X146067038Y-79207962D01*
X146201614Y-79318405D01*
X146355150Y-79400472D01*
X146521746Y-79451008D01*
X146695000Y-79468072D01*
X147945000Y-79468072D01*
X148118254Y-79451008D01*
X148284850Y-79400472D01*
X148438386Y-79318405D01*
X148572962Y-79207962D01*
X148582779Y-79196000D01*
X149217694Y-79196000D01*
X149351613Y-79305905D01*
X149505148Y-79387972D01*
X149671744Y-79438508D01*
X149844998Y-79455572D01*
X151145002Y-79455572D01*
X151318256Y-79438508D01*
X151484852Y-79387972D01*
X151638387Y-79305905D01*
X151772962Y-79195462D01*
X151883405Y-79060887D01*
X151965472Y-78907352D01*
X151992728Y-78817500D01*
X152766928Y-78817500D01*
X152779188Y-78941982D01*
X152815498Y-79061680D01*
X152874463Y-79171994D01*
X152953815Y-79268685D01*
X153050506Y-79348037D01*
X153160820Y-79407002D01*
X153280518Y-79443312D01*
X153405000Y-79455572D01*
X154019250Y-79452500D01*
X154178000Y-79293750D01*
X154178000Y-78282000D01*
X154432000Y-78282000D01*
X154432000Y-79293750D01*
X154590750Y-79452500D01*
X155205000Y-79455572D01*
X155329482Y-79443312D01*
X155449180Y-79407002D01*
X155559494Y-79348037D01*
X155656185Y-79268685D01*
X155735537Y-79171994D01*
X155794502Y-79061680D01*
X155830812Y-78941982D01*
X155843072Y-78817500D01*
X155841442Y-78617500D01*
X156116928Y-78617500D01*
X156120000Y-78919250D01*
X156278750Y-79078000D01*
X157353000Y-79078000D01*
X157353000Y-78141250D01*
X157607000Y-78141250D01*
X157607000Y-79078000D01*
X158681250Y-79078000D01*
X158840000Y-78919250D01*
X158843072Y-78617500D01*
X158830812Y-78493018D01*
X158794502Y-78373320D01*
X158735537Y-78263006D01*
X158656185Y-78166315D01*
X158559494Y-78086963D01*
X158449180Y-78027998D01*
X158329482Y-77991688D01*
X158205000Y-77979428D01*
X157765750Y-77982500D01*
X157607000Y-78141250D01*
X157353000Y-78141250D01*
X157194250Y-77982500D01*
X156755000Y-77979428D01*
X156630518Y-77991688D01*
X156510820Y-78027998D01*
X156400506Y-78086963D01*
X156303815Y-78166315D01*
X156224463Y-78263006D01*
X156165498Y-78373320D01*
X156129188Y-78493018D01*
X156116928Y-78617500D01*
X155841442Y-78617500D01*
X155840000Y-78440750D01*
X155681250Y-78282000D01*
X154432000Y-78282000D01*
X154178000Y-78282000D01*
X152928750Y-78282000D01*
X152770000Y-78440750D01*
X152766928Y-78817500D01*
X151992728Y-78817500D01*
X152016008Y-78740756D01*
X152033072Y-78567502D01*
X152033072Y-77742498D01*
X152016008Y-77569244D01*
X151992729Y-77492500D01*
X152766928Y-77492500D01*
X152770000Y-77869250D01*
X152928750Y-78028000D01*
X154178000Y-78028000D01*
X154178000Y-77016250D01*
X154432000Y-77016250D01*
X154432000Y-78028000D01*
X155681250Y-78028000D01*
X155840000Y-77869250D01*
X155843072Y-77492500D01*
X155830812Y-77368018D01*
X155794502Y-77248320D01*
X155735537Y-77138006D01*
X155656185Y-77041315D01*
X155559494Y-76961963D01*
X155449180Y-76902998D01*
X155329482Y-76866688D01*
X155205000Y-76854428D01*
X154590750Y-76857500D01*
X154432000Y-77016250D01*
X154178000Y-77016250D01*
X154019250Y-76857500D01*
X153405000Y-76854428D01*
X153280518Y-76866688D01*
X153160820Y-76902998D01*
X153050506Y-76961963D01*
X152953815Y-77041315D01*
X152874463Y-77138006D01*
X152815498Y-77248320D01*
X152779188Y-77368018D01*
X152766928Y-77492500D01*
X151992729Y-77492500D01*
X151965472Y-77402648D01*
X151883405Y-77249113D01*
X151772962Y-77114538D01*
X151638387Y-77004095D01*
X151484852Y-76922028D01*
X151318256Y-76871492D01*
X151145002Y-76854428D01*
X149844998Y-76854428D01*
X149671744Y-76871492D01*
X149505148Y-76922028D01*
X149351613Y-77004095D01*
X149217038Y-77114538D01*
X149176446Y-77164000D01*
X148582779Y-77164000D01*
X148572962Y-77152038D01*
X148438386Y-77041595D01*
X148284850Y-76959528D01*
X148118254Y-76908992D01*
X147945000Y-76891928D01*
X146695000Y-76891928D01*
X146521746Y-76908992D01*
X146355150Y-76959528D01*
X146201614Y-77041595D01*
X146067038Y-77152038D01*
X145956595Y-77286614D01*
X145874528Y-77440150D01*
X145823992Y-77606746D01*
X145806928Y-77780000D01*
X141936850Y-77780000D01*
X141617117Y-77683010D01*
X141200000Y-77641928D01*
X138200000Y-77641928D01*
X137782883Y-77683010D01*
X137381795Y-77804679D01*
X137012151Y-78002258D01*
X136688155Y-78268155D01*
X136422258Y-78592151D01*
X136224679Y-78961795D01*
X136103010Y-79362883D01*
X136061928Y-79780000D01*
X136061928Y-80504305D01*
X135880796Y-79897391D01*
X135546102Y-79264397D01*
X135527868Y-79237106D01*
X135058686Y-78900919D01*
X132679605Y-81280000D01*
X132320395Y-81280000D01*
X129941314Y-78900919D01*
X129472132Y-79237106D01*
X129131763Y-79867068D01*
X128920834Y-80551327D01*
X128847450Y-81263589D01*
X128295000Y-81263589D01*
X128295000Y-78721314D01*
X130120919Y-78721314D01*
X132500000Y-81100395D01*
X134879081Y-78721314D01*
X134542894Y-78252132D01*
X133912932Y-77911763D01*
X133228673Y-77700834D01*
X132516411Y-77627450D01*
X131803518Y-77694431D01*
X131117391Y-77899204D01*
X130484397Y-78233898D01*
X130457106Y-78252132D01*
X130120919Y-78721314D01*
X128295000Y-78721314D01*
X128295000Y-72408686D01*
X130120919Y-72408686D01*
X130457106Y-72877868D01*
X131087068Y-73218237D01*
X131771327Y-73429166D01*
X132483589Y-73502550D01*
X133196482Y-73435569D01*
X133882609Y-73230796D01*
X134515603Y-72896102D01*
X134542894Y-72877868D01*
X134879081Y-72408686D01*
X132500000Y-70029605D01*
X130120919Y-72408686D01*
X128295000Y-72408686D01*
X128295000Y-69833589D01*
X128847450Y-69833589D01*
X128914431Y-70546482D01*
X129119204Y-71232609D01*
X129453898Y-71865603D01*
X129472132Y-71892894D01*
X129941314Y-72229081D01*
X132320395Y-69850000D01*
X132679605Y-69850000D01*
X135058686Y-72229081D01*
X135527868Y-71892894D01*
X135868237Y-71262932D01*
X136061928Y-70634594D01*
X136061928Y-71350000D01*
X136103010Y-71767117D01*
X136224679Y-72168205D01*
X136422258Y-72537849D01*
X136688155Y-72861845D01*
X137012151Y-73127742D01*
X137381795Y-73325321D01*
X137782883Y-73446990D01*
X138200000Y-73488072D01*
X141200000Y-73488072D01*
X141617117Y-73446990D01*
X142018205Y-73325321D01*
X142387849Y-73127742D01*
X142711845Y-72861845D01*
X142977742Y-72537849D01*
X143175321Y-72168205D01*
X143296990Y-71767117D01*
X143338072Y-71350000D01*
X143338072Y-70866000D01*
X146057221Y-70866000D01*
X146067038Y-70877962D01*
X146201614Y-70988405D01*
X146355150Y-71070472D01*
X146521746Y-71121008D01*
X146695000Y-71138072D01*
X147945000Y-71138072D01*
X148118254Y-71121008D01*
X148284850Y-71070472D01*
X148438386Y-70988405D01*
X148572962Y-70877962D01*
X148683405Y-70743386D01*
X148765472Y-70589850D01*
X148816008Y-70423254D01*
X148833072Y-70250000D01*
X148833072Y-69450000D01*
X148816008Y-69276746D01*
X148765472Y-69110150D01*
X148683405Y-68956614D01*
X148572962Y-68822038D01*
X148438386Y-68711595D01*
X148284850Y-68629528D01*
X148118254Y-68578992D01*
X147945000Y-68561928D01*
X146695000Y-68561928D01*
X146521746Y-68578992D01*
X146355150Y-68629528D01*
X146201614Y-68711595D01*
X146067038Y-68822038D01*
X146057221Y-68834000D01*
X143338072Y-68834000D01*
X143338072Y-68350000D01*
X143296990Y-67932883D01*
X143175321Y-67531795D01*
X142977742Y-67162151D01*
X142711845Y-66838155D01*
X142387849Y-66572258D01*
X142018205Y-66374679D01*
X141936850Y-66350000D01*
X145806928Y-66350000D01*
X145806928Y-67150000D01*
X145823992Y-67323254D01*
X145874528Y-67489850D01*
X145956595Y-67643386D01*
X146067038Y-67777962D01*
X146201614Y-67888405D01*
X146355150Y-67970472D01*
X146521746Y-68021008D01*
X146695000Y-68038072D01*
X147945000Y-68038072D01*
X148118254Y-68021008D01*
X148284850Y-67970472D01*
X148438386Y-67888405D01*
X148572962Y-67777962D01*
X148603296Y-67741000D01*
X149196963Y-67741000D01*
X149217038Y-67765462D01*
X149351613Y-67875905D01*
X149505148Y-67957972D01*
X149671744Y-68008508D01*
X149844998Y-68025572D01*
X151145002Y-68025572D01*
X151318256Y-68008508D01*
X151484852Y-67957972D01*
X151638387Y-67875905D01*
X151772962Y-67765462D01*
X151883405Y-67630887D01*
X151965472Y-67477352D01*
X151992728Y-67387500D01*
X152766928Y-67387500D01*
X152779188Y-67511982D01*
X152815498Y-67631680D01*
X152874463Y-67741994D01*
X152953815Y-67838685D01*
X153050506Y-67918037D01*
X153160820Y-67977002D01*
X153280518Y-68013312D01*
X153405000Y-68025572D01*
X154019250Y-68022500D01*
X154178000Y-67863750D01*
X154178000Y-66852000D01*
X154432000Y-66852000D01*
X154432000Y-67863750D01*
X154590750Y-68022500D01*
X155205000Y-68025572D01*
X155329482Y-68013312D01*
X155449180Y-67977002D01*
X155559494Y-67918037D01*
X155656185Y-67838685D01*
X155735537Y-67741994D01*
X155794502Y-67631680D01*
X155830812Y-67511982D01*
X155843072Y-67387500D01*
X155841442Y-67187500D01*
X156116928Y-67187500D01*
X156120000Y-67489250D01*
X156278750Y-67648000D01*
X157353000Y-67648000D01*
X157353000Y-66711250D01*
X157607000Y-66711250D01*
X157607000Y-67648000D01*
X158681250Y-67648000D01*
X158840000Y-67489250D01*
X158843072Y-67187500D01*
X158830812Y-67063018D01*
X158794502Y-66943320D01*
X158735537Y-66833006D01*
X158656185Y-66736315D01*
X158559494Y-66656963D01*
X158449180Y-66597998D01*
X158329482Y-66561688D01*
X158205000Y-66549428D01*
X157765750Y-66552500D01*
X157607000Y-66711250D01*
X157353000Y-66711250D01*
X157194250Y-66552500D01*
X156755000Y-66549428D01*
X156630518Y-66561688D01*
X156510820Y-66597998D01*
X156400506Y-66656963D01*
X156303815Y-66736315D01*
X156224463Y-66833006D01*
X156165498Y-66943320D01*
X156129188Y-67063018D01*
X156116928Y-67187500D01*
X155841442Y-67187500D01*
X155840000Y-67010750D01*
X155681250Y-66852000D01*
X154432000Y-66852000D01*
X154178000Y-66852000D01*
X152928750Y-66852000D01*
X152770000Y-67010750D01*
X152766928Y-67387500D01*
X151992728Y-67387500D01*
X152016008Y-67310756D01*
X152033072Y-67137502D01*
X152033072Y-66312498D01*
X152016008Y-66139244D01*
X151992729Y-66062500D01*
X152766928Y-66062500D01*
X152770000Y-66439250D01*
X152928750Y-66598000D01*
X154178000Y-66598000D01*
X154178000Y-65586250D01*
X154432000Y-65586250D01*
X154432000Y-66598000D01*
X155681250Y-66598000D01*
X155840000Y-66439250D01*
X155843072Y-66062500D01*
X155830812Y-65938018D01*
X155794502Y-65818320D01*
X155735537Y-65708006D01*
X155656185Y-65611315D01*
X155559494Y-65531963D01*
X155449180Y-65472998D01*
X155329482Y-65436688D01*
X155205000Y-65424428D01*
X154590750Y-65427500D01*
X154432000Y-65586250D01*
X154178000Y-65586250D01*
X154019250Y-65427500D01*
X153405000Y-65424428D01*
X153280518Y-65436688D01*
X153160820Y-65472998D01*
X153050506Y-65531963D01*
X152953815Y-65611315D01*
X152874463Y-65708006D01*
X152815498Y-65818320D01*
X152779188Y-65938018D01*
X152766928Y-66062500D01*
X151992729Y-66062500D01*
X151965472Y-65972648D01*
X151883405Y-65819113D01*
X151772962Y-65684538D01*
X151638387Y-65574095D01*
X151484852Y-65492028D01*
X151318256Y-65441492D01*
X151145002Y-65424428D01*
X149844998Y-65424428D01*
X149671744Y-65441492D01*
X149505148Y-65492028D01*
X149351613Y-65574095D01*
X149217038Y-65684538D01*
X149196963Y-65709000D01*
X148557075Y-65709000D01*
X148438386Y-65611595D01*
X148284850Y-65529528D01*
X148118254Y-65478992D01*
X147945000Y-65461928D01*
X146695000Y-65461928D01*
X146521746Y-65478992D01*
X146355150Y-65529528D01*
X146201614Y-65611595D01*
X146067038Y-65722038D01*
X145956595Y-65856614D01*
X145874528Y-66010150D01*
X145823992Y-66176746D01*
X145806928Y-66350000D01*
X141936850Y-66350000D01*
X141617117Y-66253010D01*
X141200000Y-66211928D01*
X138200000Y-66211928D01*
X137782883Y-66253010D01*
X137381795Y-66374679D01*
X137012151Y-66572258D01*
X136688155Y-66838155D01*
X136422258Y-67162151D01*
X136224679Y-67531795D01*
X136103010Y-67932883D01*
X136061928Y-68350000D01*
X136061928Y-69074305D01*
X135880796Y-68467391D01*
X135546102Y-67834397D01*
X135527868Y-67807106D01*
X135058686Y-67470919D01*
X132679605Y-69850000D01*
X132320395Y-69850000D01*
X129941314Y-67470919D01*
X129472132Y-67807106D01*
X129131763Y-68437068D01*
X128920834Y-69121327D01*
X128847450Y-69833589D01*
X128295000Y-69833589D01*
X128295000Y-67291314D01*
X130120919Y-67291314D01*
X132500000Y-69670395D01*
X134879081Y-67291314D01*
X134542894Y-66822132D01*
X133912932Y-66481763D01*
X133228673Y-66270834D01*
X132516411Y-66197450D01*
X131803518Y-66264431D01*
X131117391Y-66469204D01*
X130484397Y-66803898D01*
X130457106Y-66822132D01*
X130120919Y-67291314D01*
X128295000Y-67291314D01*
X128295000Y-64795000D01*
X163068000Y-64795000D01*
X163068000Y-83439000D01*
%TA.AperFunction,Conductor*%
D21*
G36*
X163068000Y-83439000D02*
G01*
X162122459Y-83439000D01*
X162026939Y-83420000D01*
X161823061Y-83420000D01*
X161671000Y-83450247D01*
X161671000Y-72439893D01*
X161675914Y-72389999D01*
X161671000Y-72340105D01*
X161671000Y-72340098D01*
X161656298Y-72190829D01*
X161598202Y-71999313D01*
X161503860Y-71822810D01*
X161376896Y-71668104D01*
X161338133Y-71636292D01*
X158868712Y-69166872D01*
X158836896Y-69128104D01*
X158682190Y-69001140D01*
X158675891Y-68997773D01*
X158582962Y-68884538D01*
X158576406Y-68879158D01*
X158656185Y-68813685D01*
X158735537Y-68716994D01*
X158794502Y-68606680D01*
X158830812Y-68486982D01*
X158843072Y-68362500D01*
X158840000Y-68060750D01*
X158681250Y-67902000D01*
X157607000Y-67902000D01*
X157607000Y-67922000D01*
X157353000Y-67922000D01*
X157353000Y-67902000D01*
X156278750Y-67902000D01*
X156120000Y-68060750D01*
X156116928Y-68362500D01*
X156129188Y-68486982D01*
X156165498Y-68606680D01*
X156224463Y-68716994D01*
X156303815Y-68813685D01*
X156328569Y-68834000D01*
X155603037Y-68834000D01*
X155582962Y-68809538D01*
X155448387Y-68699095D01*
X155294852Y-68617028D01*
X155128256Y-68566492D01*
X154955002Y-68549428D01*
X153654998Y-68549428D01*
X153481744Y-68566492D01*
X153315148Y-68617028D01*
X153161613Y-68699095D01*
X153027038Y-68809538D01*
X153006963Y-68834000D01*
X151793037Y-68834000D01*
X151772962Y-68809538D01*
X151638387Y-68699095D01*
X151484852Y-68617028D01*
X151318256Y-68566492D01*
X151145002Y-68549428D01*
X149844998Y-68549428D01*
X149671744Y-68566492D01*
X149505148Y-68617028D01*
X149351613Y-68699095D01*
X149217038Y-68809538D01*
X149106595Y-68944113D01*
X149024528Y-69097648D01*
X148973992Y-69264244D01*
X148956928Y-69437498D01*
X148956928Y-70262502D01*
X148973992Y-70435756D01*
X149024528Y-70602352D01*
X149106595Y-70755887D01*
X149217038Y-70890462D01*
X149351613Y-71000905D01*
X149505148Y-71082972D01*
X149671744Y-71133508D01*
X149844998Y-71150572D01*
X151145002Y-71150572D01*
X151318256Y-71133508D01*
X151484852Y-71082972D01*
X151638387Y-71000905D01*
X151772962Y-70890462D01*
X151793037Y-70866000D01*
X153006963Y-70866000D01*
X153027038Y-70890462D01*
X153161613Y-71000905D01*
X153315148Y-71082972D01*
X153481744Y-71133508D01*
X153654998Y-71150572D01*
X154955002Y-71150572D01*
X155128256Y-71133508D01*
X155294852Y-71082972D01*
X155448387Y-71000905D01*
X155582962Y-70890462D01*
X155603037Y-70866000D01*
X156438619Y-70866000D01*
X156511614Y-70925905D01*
X156665150Y-71007972D01*
X156831746Y-71058508D01*
X157005000Y-71075572D01*
X157903732Y-71075572D01*
X159639000Y-72810841D01*
X159639001Y-84669158D01*
X159386231Y-84921928D01*
X158585000Y-84921928D01*
X158496000Y-84930693D01*
X158496000Y-82316829D01*
X158582962Y-82245462D01*
X158693405Y-82110886D01*
X158775472Y-81957350D01*
X158826008Y-81790754D01*
X158843072Y-81617500D01*
X158843072Y-80942500D01*
X158826008Y-80769246D01*
X158775472Y-80602650D01*
X158693405Y-80449114D01*
X158582962Y-80314538D01*
X158576406Y-80309158D01*
X158656185Y-80243685D01*
X158735537Y-80146994D01*
X158794502Y-80036680D01*
X158830812Y-79916982D01*
X158843072Y-79792500D01*
X158840000Y-79490750D01*
X158681250Y-79332000D01*
X157607000Y-79332000D01*
X157607000Y-79352000D01*
X157353000Y-79352000D01*
X157353000Y-79332000D01*
X156278750Y-79332000D01*
X156120000Y-79490750D01*
X156116928Y-79792500D01*
X156129188Y-79916982D01*
X156165498Y-80036680D01*
X156224463Y-80146994D01*
X156303815Y-80243685D01*
X156328569Y-80264000D01*
X155603037Y-80264000D01*
X155582962Y-80239538D01*
X155448387Y-80129095D01*
X155294852Y-80047028D01*
X155128256Y-79996492D01*
X154955002Y-79979428D01*
X153654998Y-79979428D01*
X153481744Y-79996492D01*
X153315148Y-80047028D01*
X153161613Y-80129095D01*
X153027038Y-80239538D01*
X153006963Y-80264000D01*
X151793037Y-80264000D01*
X151772962Y-80239538D01*
X151638387Y-80129095D01*
X151484852Y-80047028D01*
X151318256Y-79996492D01*
X151145002Y-79979428D01*
X149844998Y-79979428D01*
X149671744Y-79996492D01*
X149505148Y-80047028D01*
X149351613Y-80129095D01*
X149217038Y-80239538D01*
X149106595Y-80374113D01*
X149024528Y-80527648D01*
X148973992Y-80694244D01*
X148956928Y-80867498D01*
X148956928Y-81692502D01*
X148973992Y-81865756D01*
X149024528Y-82032352D01*
X149106595Y-82185887D01*
X149217038Y-82320462D01*
X149351613Y-82430905D01*
X149505148Y-82512972D01*
X149671744Y-82563508D01*
X149844998Y-82580572D01*
X151145002Y-82580572D01*
X151318256Y-82563508D01*
X151484852Y-82512972D01*
X151638387Y-82430905D01*
X151772962Y-82320462D01*
X151793037Y-82296000D01*
X153006963Y-82296000D01*
X153027038Y-82320462D01*
X153161613Y-82430905D01*
X153315148Y-82512972D01*
X153481744Y-82563508D01*
X153654998Y-82580572D01*
X154955002Y-82580572D01*
X155128256Y-82563508D01*
X155294852Y-82512972D01*
X155448387Y-82430905D01*
X155582962Y-82320462D01*
X155603037Y-82296000D01*
X156438619Y-82296000D01*
X156464000Y-82316830D01*
X156464000Y-83450247D01*
X156311939Y-83420000D01*
X156108061Y-83420000D01*
X155908102Y-83459774D01*
X155719744Y-83537795D01*
X155550226Y-83651063D01*
X155406063Y-83795226D01*
X155351956Y-83876203D01*
X151929160Y-87299000D01*
X151158037Y-87299000D01*
X151137962Y-87274538D01*
X151003387Y-87164095D01*
X150849852Y-87082028D01*
X150683256Y-87031492D01*
X150510002Y-87014428D01*
X149209998Y-87014428D01*
X149036744Y-87031492D01*
X148870148Y-87082028D01*
X148716613Y-87164095D01*
X148582038Y-87274538D01*
X148561963Y-87299000D01*
X148202459Y-87299000D01*
X148106939Y-87280000D01*
X147903061Y-87280000D01*
X147703102Y-87319774D01*
X147514744Y-87397795D01*
X147345226Y-87511063D01*
X147201063Y-87655226D01*
X147087795Y-87824744D01*
X147009774Y-88013102D01*
X146970000Y-88213061D01*
X146970000Y-88416939D01*
X147009774Y-88616898D01*
X147087795Y-88805256D01*
X147201063Y-88974774D01*
X147345226Y-89118937D01*
X147514744Y-89232205D01*
X147703102Y-89310226D01*
X147903061Y-89350000D01*
X148106939Y-89350000D01*
X148202459Y-89331000D01*
X148561963Y-89331000D01*
X148582038Y-89355462D01*
X148716613Y-89465905D01*
X148870148Y-89547972D01*
X149036744Y-89598508D01*
X149209998Y-89615572D01*
X150510002Y-89615572D01*
X150683256Y-89598508D01*
X150849852Y-89547972D01*
X151003387Y-89465905D01*
X151137962Y-89355462D01*
X151158037Y-89331000D01*
X152300098Y-89331000D01*
X152350000Y-89335915D01*
X152399902Y-89331000D01*
X152549171Y-89316298D01*
X152740687Y-89258202D01*
X152778483Y-89238000D01*
X153543000Y-89238000D01*
X153543000Y-89218000D01*
X153797000Y-89218000D01*
X153797000Y-89238000D01*
X154871250Y-89238000D01*
X155030000Y-89079250D01*
X155033072Y-88777500D01*
X155020812Y-88653018D01*
X154984502Y-88533320D01*
X154925537Y-88423006D01*
X154846185Y-88326315D01*
X154749494Y-88246963D01*
X154639180Y-88187998D01*
X154519482Y-88151688D01*
X154395000Y-88139428D01*
X153959366Y-88142475D01*
X156464001Y-85637840D01*
X156464001Y-86945088D01*
X156459085Y-86995000D01*
X156478702Y-87194170D01*
X156511777Y-87303201D01*
X156536799Y-87385687D01*
X156631141Y-87562190D01*
X156758105Y-87716896D01*
X156796868Y-87748708D01*
X157950000Y-88901841D01*
X157950000Y-89041335D01*
X158005147Y-89318574D01*
X158113320Y-89579727D01*
X158270363Y-89814759D01*
X158470241Y-90014637D01*
X158702759Y-90170000D01*
X158470241Y-90325363D01*
X158270363Y-90525241D01*
X158253151Y-90551000D01*
X154835712Y-90551000D01*
X154772962Y-90474538D01*
X154766406Y-90469158D01*
X154846185Y-90403685D01*
X154925537Y-90306994D01*
X154984502Y-90196680D01*
X155020812Y-90076982D01*
X155033072Y-89952500D01*
X155030000Y-89650750D01*
X154871250Y-89492000D01*
X153797000Y-89492000D01*
X153797000Y-89512000D01*
X153543000Y-89512000D01*
X153543000Y-89492000D01*
X152468750Y-89492000D01*
X152310000Y-89650750D01*
X152306928Y-89952500D01*
X152319188Y-90076982D01*
X152355498Y-90196680D01*
X152414463Y-90306994D01*
X152493815Y-90403685D01*
X152573594Y-90469158D01*
X152567038Y-90474538D01*
X152504288Y-90551000D01*
X151257431Y-90551000D01*
X151248405Y-90534113D01*
X151137962Y-90399538D01*
X151003387Y-90289095D01*
X150849852Y-90207028D01*
X150683256Y-90156492D01*
X150510002Y-90139428D01*
X149209998Y-90139428D01*
X149036744Y-90156492D01*
X148870148Y-90207028D01*
X148716613Y-90289095D01*
X148582038Y-90399538D01*
X148471595Y-90534113D01*
X148462569Y-90551000D01*
X145629231Y-90551000D01*
X145620812Y-90465518D01*
X145584502Y-90345820D01*
X145525537Y-90235506D01*
X145446185Y-90138815D01*
X145349494Y-90059463D01*
X145239180Y-90000498D01*
X145119482Y-89964188D01*
X144995000Y-89951928D01*
X143295000Y-89951928D01*
X143170518Y-89964188D01*
X143050820Y-90000498D01*
X142940506Y-90059463D01*
X142843815Y-90138815D01*
X142764463Y-90235506D01*
X142705498Y-90345820D01*
X142681034Y-90426466D01*
X142605269Y-90342412D01*
X142371920Y-90168359D01*
X142109099Y-90043175D01*
X141961890Y-89998524D01*
X141732000Y-90119845D01*
X141732000Y-91313000D01*
X141752000Y-91313000D01*
X141752000Y-91567000D01*
X141732000Y-91567000D01*
X141732000Y-92760155D01*
X141961890Y-92881476D01*
X142109099Y-92836825D01*
X142371920Y-92711641D01*
X142605269Y-92537588D01*
X142681034Y-92453534D01*
X142705498Y-92534180D01*
X142764463Y-92644494D01*
X142843815Y-92741185D01*
X142940506Y-92820537D01*
X143050820Y-92879502D01*
X143170518Y-92915812D01*
X143295000Y-92928072D01*
X144995000Y-92928072D01*
X145119482Y-92915812D01*
X145239180Y-92879502D01*
X145349494Y-92820537D01*
X145446185Y-92741185D01*
X145525537Y-92644494D01*
X145584502Y-92534180D01*
X145620812Y-92414482D01*
X145629231Y-92329000D01*
X148462569Y-92329000D01*
X148471595Y-92345887D01*
X148582038Y-92480462D01*
X148716613Y-92590905D01*
X148870148Y-92672972D01*
X149036744Y-92723508D01*
X149153424Y-92735000D01*
X149036744Y-92746492D01*
X148870148Y-92797028D01*
X148716613Y-92879095D01*
X148582038Y-92989538D01*
X148561963Y-93014000D01*
X148152459Y-93014000D01*
X148056939Y-92995000D01*
X147853061Y-92995000D01*
X147653102Y-93034774D01*
X147464744Y-93112795D01*
X147295226Y-93226063D01*
X147151063Y-93370226D01*
X147037795Y-93539744D01*
X146959774Y-93728102D01*
X146920000Y-93928061D01*
X146920000Y-94131939D01*
X146959774Y-94331898D01*
X147037795Y-94520256D01*
X147151063Y-94689774D01*
X147295226Y-94833937D01*
X147464744Y-94947205D01*
X147653102Y-95025226D01*
X147853061Y-95065000D01*
X148056939Y-95065000D01*
X148152459Y-95046000D01*
X148561963Y-95046000D01*
X148582038Y-95070462D01*
X148716613Y-95180905D01*
X148870148Y-95262972D01*
X149036744Y-95313508D01*
X149209998Y-95330572D01*
X150510002Y-95330572D01*
X150683256Y-95313508D01*
X150849852Y-95262972D01*
X151003387Y-95180905D01*
X151137962Y-95070462D01*
X151248405Y-94935887D01*
X151330472Y-94782352D01*
X151381008Y-94615756D01*
X151393147Y-94492500D01*
X152306928Y-94492500D01*
X152310000Y-94794250D01*
X152468750Y-94953000D01*
X153543000Y-94953000D01*
X153543000Y-94016250D01*
X153797000Y-94016250D01*
X153797000Y-94953000D01*
X154871250Y-94953000D01*
X155030000Y-94794250D01*
X155033072Y-94492500D01*
X155020812Y-94368018D01*
X154984502Y-94248320D01*
X154925537Y-94138006D01*
X154846185Y-94041315D01*
X154749494Y-93961963D01*
X154639180Y-93902998D01*
X154519482Y-93866688D01*
X154395000Y-93854428D01*
X153955750Y-93857500D01*
X153797000Y-94016250D01*
X153543000Y-94016250D01*
X153384250Y-93857500D01*
X152945000Y-93854428D01*
X152820518Y-93866688D01*
X152700820Y-93902998D01*
X152590506Y-93961963D01*
X152493815Y-94041315D01*
X152414463Y-94138006D01*
X152355498Y-94248320D01*
X152319188Y-94368018D01*
X152306928Y-94492500D01*
X151393147Y-94492500D01*
X151398072Y-94442502D01*
X151398072Y-93617498D01*
X151381008Y-93444244D01*
X151330472Y-93277648D01*
X151248405Y-93124113D01*
X151137962Y-92989538D01*
X151003387Y-92879095D01*
X150849852Y-92797028D01*
X150683256Y-92746492D01*
X150566576Y-92735000D01*
X150683256Y-92723508D01*
X150849852Y-92672972D01*
X151003387Y-92590905D01*
X151137962Y-92480462D01*
X151248405Y-92345887D01*
X151257431Y-92329000D01*
X152504288Y-92329000D01*
X152567038Y-92405462D01*
X152701614Y-92515905D01*
X152855150Y-92597972D01*
X153021746Y-92648508D01*
X153195000Y-92665572D01*
X154145000Y-92665572D01*
X154318254Y-92648508D01*
X154484850Y-92597972D01*
X154638386Y-92515905D01*
X154772962Y-92405462D01*
X154835712Y-92329000D01*
X158253151Y-92329000D01*
X158270363Y-92354759D01*
X158470241Y-92554637D01*
X158702759Y-92710000D01*
X158470241Y-92865363D01*
X158270363Y-93065241D01*
X158113320Y-93300273D01*
X158005147Y-93561426D01*
X157950000Y-93838665D01*
X157950000Y-94121335D01*
X157956044Y-94151720D01*
X155841765Y-96266000D01*
X154835712Y-96266000D01*
X154772962Y-96189538D01*
X154766406Y-96184158D01*
X154846185Y-96118685D01*
X154925537Y-96021994D01*
X154984502Y-95911680D01*
X155020812Y-95791982D01*
X155033072Y-95667500D01*
X155030000Y-95365750D01*
X154871250Y-95207000D01*
X153797000Y-95207000D01*
X153797000Y-95227000D01*
X153543000Y-95227000D01*
X153543000Y-95207000D01*
X152468750Y-95207000D01*
X152310000Y-95365750D01*
X152306928Y-95667500D01*
X152319188Y-95791982D01*
X152355498Y-95911680D01*
X152414463Y-96021994D01*
X152493815Y-96118685D01*
X152573594Y-96184158D01*
X152567038Y-96189538D01*
X152504288Y-96266000D01*
X151257431Y-96266000D01*
X151248405Y-96249113D01*
X151137962Y-96114538D01*
X151003387Y-96004095D01*
X150849852Y-95922028D01*
X150683256Y-95871492D01*
X150510002Y-95854428D01*
X149209998Y-95854428D01*
X149036744Y-95871492D01*
X148870148Y-95922028D01*
X148716613Y-96004095D01*
X148582038Y-96114538D01*
X148471595Y-96249113D01*
X148462569Y-96266000D01*
X145629231Y-96266000D01*
X145620812Y-96180518D01*
X145584502Y-96060820D01*
X145525537Y-95950506D01*
X145446185Y-95853815D01*
X145349494Y-95774463D01*
X145239180Y-95715498D01*
X145119482Y-95679188D01*
X144995000Y-95666928D01*
X143295000Y-95666928D01*
X143170518Y-95679188D01*
X143050820Y-95715498D01*
X142940506Y-95774463D01*
X142843815Y-95853815D01*
X142764463Y-95950506D01*
X142705498Y-96060820D01*
X142681034Y-96141466D01*
X142605269Y-96057412D01*
X142371920Y-95883359D01*
X142109099Y-95758175D01*
X141961890Y-95713524D01*
X141732000Y-95834845D01*
X141732000Y-97028000D01*
X141752000Y-97028000D01*
X141752000Y-97282000D01*
X141732000Y-97282000D01*
X141732000Y-98475155D01*
X141961890Y-98596476D01*
X142109099Y-98551825D01*
X142371920Y-98426641D01*
X142605269Y-98252588D01*
X142681034Y-98168534D01*
X142705498Y-98249180D01*
X142764463Y-98359494D01*
X142843815Y-98456185D01*
X142940506Y-98535537D01*
X143050820Y-98594502D01*
X143170518Y-98630812D01*
X143295000Y-98643072D01*
X144995000Y-98643072D01*
X145119482Y-98630812D01*
X145239180Y-98594502D01*
X145349494Y-98535537D01*
X145446185Y-98456185D01*
X145525537Y-98359494D01*
X145584502Y-98249180D01*
X145620812Y-98129482D01*
X145629231Y-98044000D01*
X148462569Y-98044000D01*
X148471595Y-98060887D01*
X148582038Y-98195462D01*
X148716613Y-98305905D01*
X148870148Y-98387972D01*
X149036744Y-98438508D01*
X149153424Y-98450000D01*
X149036744Y-98461492D01*
X148870148Y-98512028D01*
X148716613Y-98594095D01*
X148582038Y-98704538D01*
X148561963Y-98729000D01*
X148202459Y-98729000D01*
X148106939Y-98710000D01*
X147903061Y-98710000D01*
X147703102Y-98749774D01*
X147514744Y-98827795D01*
X147345226Y-98941063D01*
X147201063Y-99085226D01*
X147087795Y-99254744D01*
X147009774Y-99443102D01*
X146970000Y-99643061D01*
X146970000Y-99846939D01*
X147009774Y-100046898D01*
X147087795Y-100235256D01*
X147201063Y-100404774D01*
X147345226Y-100548937D01*
X147514744Y-100662205D01*
X147703102Y-100740226D01*
X147903061Y-100780000D01*
X148106939Y-100780000D01*
X148202459Y-100761000D01*
X148561963Y-100761000D01*
X148582038Y-100785462D01*
X148716613Y-100895905D01*
X148870148Y-100977972D01*
X149036744Y-101028508D01*
X149209998Y-101045572D01*
X150510002Y-101045572D01*
X150683256Y-101028508D01*
X150849852Y-100977972D01*
X151003387Y-100895905D01*
X151137962Y-100785462D01*
X151248405Y-100650887D01*
X151330472Y-100497352D01*
X151381008Y-100330756D01*
X151393147Y-100207500D01*
X152306928Y-100207500D01*
X152310000Y-100509250D01*
X152468750Y-100668000D01*
X153543000Y-100668000D01*
X153543000Y-99731250D01*
X153797000Y-99731250D01*
X153797000Y-100668000D01*
X154871250Y-100668000D01*
X155030000Y-100509250D01*
X155033072Y-100207500D01*
X155020812Y-100083018D01*
X154984502Y-99963320D01*
X154925537Y-99853006D01*
X154846185Y-99756315D01*
X154749494Y-99676963D01*
X154639180Y-99617998D01*
X154519482Y-99581688D01*
X154395000Y-99569428D01*
X153955750Y-99572500D01*
X153797000Y-99731250D01*
X153543000Y-99731250D01*
X153384250Y-99572500D01*
X152945000Y-99569428D01*
X152820518Y-99581688D01*
X152700820Y-99617998D01*
X152590506Y-99676963D01*
X152493815Y-99756315D01*
X152414463Y-99853006D01*
X152355498Y-99963320D01*
X152319188Y-100083018D01*
X152306928Y-100207500D01*
X151393147Y-100207500D01*
X151398072Y-100157502D01*
X151398072Y-99332498D01*
X151381008Y-99159244D01*
X151330472Y-98992648D01*
X151248405Y-98839113D01*
X151137962Y-98704538D01*
X151003387Y-98594095D01*
X150849852Y-98512028D01*
X150683256Y-98461492D01*
X150566576Y-98450000D01*
X150683256Y-98438508D01*
X150849852Y-98387972D01*
X151003387Y-98305905D01*
X151137962Y-98195462D01*
X151248405Y-98060887D01*
X151257431Y-98044000D01*
X152504288Y-98044000D01*
X152567038Y-98120462D01*
X152701614Y-98230905D01*
X152855150Y-98312972D01*
X153021746Y-98363508D01*
X153195000Y-98380572D01*
X154145000Y-98380572D01*
X154318254Y-98363508D01*
X154484850Y-98312972D01*
X154638386Y-98230905D01*
X154772962Y-98120462D01*
X154835712Y-98044000D01*
X156166340Y-98044000D01*
X156210000Y-98048300D01*
X156253660Y-98044000D01*
X156253667Y-98044000D01*
X156384274Y-98031136D01*
X156551851Y-97980303D01*
X156706291Y-97897753D01*
X156841659Y-97786659D01*
X156869499Y-97752736D01*
X157951809Y-96670427D01*
X157956044Y-96691720D01*
X155612259Y-99035506D01*
X155578342Y-99063341D01*
X155550507Y-99097258D01*
X155550505Y-99097260D01*
X155467248Y-99198709D01*
X155384698Y-99353148D01*
X155333864Y-99520726D01*
X155316700Y-99695000D01*
X155321001Y-99738670D01*
X155321000Y-101231764D01*
X155009939Y-101542825D01*
X155020812Y-101506982D01*
X155033072Y-101382500D01*
X155030000Y-101080750D01*
X154871250Y-100922000D01*
X153797000Y-100922000D01*
X153797000Y-100942000D01*
X153543000Y-100942000D01*
X153543000Y-100922000D01*
X152468750Y-100922000D01*
X152310000Y-101080750D01*
X152306928Y-101382500D01*
X152319188Y-101506982D01*
X152355498Y-101626680D01*
X152414463Y-101736994D01*
X152493815Y-101833685D01*
X152573594Y-101899158D01*
X152567038Y-101904538D01*
X152504288Y-101981000D01*
X151257431Y-101981000D01*
X151248405Y-101964113D01*
X151137962Y-101829538D01*
X151003387Y-101719095D01*
X150849852Y-101637028D01*
X150683256Y-101586492D01*
X150510002Y-101569428D01*
X149209998Y-101569428D01*
X149036744Y-101586492D01*
X148870148Y-101637028D01*
X148716613Y-101719095D01*
X148582038Y-101829538D01*
X148471595Y-101964113D01*
X148462569Y-101981000D01*
X145629231Y-101981000D01*
X145620812Y-101895518D01*
X145584502Y-101775820D01*
X145525537Y-101665506D01*
X145446185Y-101568815D01*
X145349494Y-101489463D01*
X145239180Y-101430498D01*
X145119482Y-101394188D01*
X144995000Y-101381928D01*
X143295000Y-101381928D01*
X143170518Y-101394188D01*
X143050820Y-101430498D01*
X142940506Y-101489463D01*
X142843815Y-101568815D01*
X142764463Y-101665506D01*
X142705498Y-101775820D01*
X142681034Y-101856466D01*
X142605269Y-101772412D01*
X142371920Y-101598359D01*
X142109099Y-101473175D01*
X141961890Y-101428524D01*
X141732000Y-101549845D01*
X141732000Y-102743000D01*
X141752000Y-102743000D01*
X141752000Y-102997000D01*
X141732000Y-102997000D01*
X141732000Y-104190155D01*
X141961890Y-104311476D01*
X142109099Y-104266825D01*
X142371920Y-104141641D01*
X142605269Y-103967588D01*
X142681034Y-103883534D01*
X142705498Y-103964180D01*
X142764463Y-104074494D01*
X142843815Y-104171185D01*
X142940506Y-104250537D01*
X143050820Y-104309502D01*
X143170518Y-104345812D01*
X143295000Y-104358072D01*
X144995000Y-104358072D01*
X145119482Y-104345812D01*
X145239180Y-104309502D01*
X145349494Y-104250537D01*
X145446185Y-104171185D01*
X145525537Y-104074494D01*
X145584502Y-103964180D01*
X145620812Y-103844482D01*
X145629231Y-103759000D01*
X148462569Y-103759000D01*
X148471595Y-103775887D01*
X148582038Y-103910462D01*
X148716613Y-104020905D01*
X148870148Y-104102972D01*
X149036744Y-104153508D01*
X149153424Y-104165000D01*
X149036744Y-104176492D01*
X148870148Y-104227028D01*
X148716613Y-104309095D01*
X148582038Y-104419538D01*
X148561963Y-104444000D01*
X148202459Y-104444000D01*
X148106939Y-104425000D01*
X147903061Y-104425000D01*
X147703102Y-104464774D01*
X147514744Y-104542795D01*
X147345226Y-104656063D01*
X147201063Y-104800226D01*
X147087795Y-104969744D01*
X147009774Y-105158102D01*
X146970000Y-105358061D01*
X146970000Y-105561939D01*
X147009774Y-105761898D01*
X147087795Y-105950256D01*
X147201063Y-106119774D01*
X147345226Y-106263937D01*
X147514744Y-106377205D01*
X147703102Y-106455226D01*
X147903061Y-106495000D01*
X148106939Y-106495000D01*
X148202459Y-106476000D01*
X148561963Y-106476000D01*
X148582038Y-106500462D01*
X148716613Y-106610905D01*
X148870148Y-106692972D01*
X149036744Y-106743508D01*
X149209998Y-106760572D01*
X150510002Y-106760572D01*
X150683256Y-106743508D01*
X150849852Y-106692972D01*
X151003387Y-106610905D01*
X151137962Y-106500462D01*
X151248405Y-106365887D01*
X151330472Y-106212352D01*
X151381008Y-106045756D01*
X151393147Y-105922500D01*
X152306928Y-105922500D01*
X152310000Y-106224250D01*
X152468750Y-106383000D01*
X153543000Y-106383000D01*
X153543000Y-105446250D01*
X153797000Y-105446250D01*
X153797000Y-106383000D01*
X154871250Y-106383000D01*
X155030000Y-106224250D01*
X155033072Y-105922500D01*
X155020812Y-105798018D01*
X154984502Y-105678320D01*
X154925537Y-105568006D01*
X154846185Y-105471315D01*
X154749494Y-105391963D01*
X154639180Y-105332998D01*
X154519482Y-105296688D01*
X154395000Y-105284428D01*
X153955750Y-105287500D01*
X153797000Y-105446250D01*
X153543000Y-105446250D01*
X153384250Y-105287500D01*
X152945000Y-105284428D01*
X152820518Y-105296688D01*
X152700820Y-105332998D01*
X152590506Y-105391963D01*
X152493815Y-105471315D01*
X152414463Y-105568006D01*
X152355498Y-105678320D01*
X152319188Y-105798018D01*
X152306928Y-105922500D01*
X151393147Y-105922500D01*
X151398072Y-105872502D01*
X151398072Y-105047498D01*
X151381008Y-104874244D01*
X151330472Y-104707648D01*
X151248405Y-104554113D01*
X151137962Y-104419538D01*
X151003387Y-104309095D01*
X150849852Y-104227028D01*
X150683256Y-104176492D01*
X150566576Y-104165000D01*
X150683256Y-104153508D01*
X150849852Y-104102972D01*
X151003387Y-104020905D01*
X151137962Y-103910462D01*
X151248405Y-103775887D01*
X151257431Y-103759000D01*
X152504288Y-103759000D01*
X152567038Y-103835462D01*
X152701614Y-103945905D01*
X152855150Y-104027972D01*
X153021746Y-104078508D01*
X153195000Y-104095572D01*
X154145000Y-104095572D01*
X154318254Y-104078508D01*
X154484850Y-104027972D01*
X154638386Y-103945905D01*
X154772962Y-103835462D01*
X154835712Y-103759000D01*
X154896340Y-103759000D01*
X154940000Y-103763300D01*
X154983660Y-103759000D01*
X154983667Y-103759000D01*
X155114274Y-103746136D01*
X155281851Y-103695303D01*
X155436291Y-103612753D01*
X155571659Y-103501659D01*
X155599499Y-103467736D01*
X156591001Y-102476235D01*
X156591000Y-105676764D01*
X155009939Y-107257826D01*
X155020812Y-107221982D01*
X155033072Y-107097500D01*
X155030000Y-106795750D01*
X154871250Y-106637000D01*
X153797000Y-106637000D01*
X153797000Y-106657000D01*
X153543000Y-106657000D01*
X153543000Y-106637000D01*
X152468750Y-106637000D01*
X152310000Y-106795750D01*
X152306928Y-107097500D01*
X152319188Y-107221982D01*
X152355498Y-107341680D01*
X152414463Y-107451994D01*
X152493815Y-107548685D01*
X152573594Y-107614158D01*
X152567038Y-107619538D01*
X152504288Y-107696000D01*
X151257431Y-107696000D01*
X151248405Y-107679113D01*
X151137962Y-107544538D01*
X151003387Y-107434095D01*
X150849852Y-107352028D01*
X150683256Y-107301492D01*
X150510002Y-107284428D01*
X149209998Y-107284428D01*
X149036744Y-107301492D01*
X148870148Y-107352028D01*
X148716613Y-107434095D01*
X148582038Y-107544538D01*
X148471595Y-107679113D01*
X148462569Y-107696000D01*
X145629231Y-107696000D01*
X145620812Y-107610518D01*
X145584502Y-107490820D01*
X145525537Y-107380506D01*
X145446185Y-107283815D01*
X145349494Y-107204463D01*
X145239180Y-107145498D01*
X145119482Y-107109188D01*
X144995000Y-107096928D01*
X143295000Y-107096928D01*
X143170518Y-107109188D01*
X143050820Y-107145498D01*
X142940506Y-107204463D01*
X142843815Y-107283815D01*
X142764463Y-107380506D01*
X142705498Y-107490820D01*
X142681034Y-107571466D01*
X142605269Y-107487412D01*
X142371920Y-107313359D01*
X142109099Y-107188175D01*
X141961890Y-107143524D01*
X141732000Y-107264845D01*
X141732000Y-108458000D01*
X141752000Y-108458000D01*
X141752000Y-108712000D01*
X141732000Y-108712000D01*
X141732000Y-109905155D01*
X141961890Y-110026476D01*
X142109099Y-109981825D01*
X142371920Y-109856641D01*
X142605269Y-109682588D01*
X142681034Y-109598534D01*
X142705498Y-109679180D01*
X142764463Y-109789494D01*
X142843815Y-109886185D01*
X142940506Y-109965537D01*
X143050820Y-110024502D01*
X143170518Y-110060812D01*
X143295000Y-110073072D01*
X144995000Y-110073072D01*
X145119482Y-110060812D01*
X145239180Y-110024502D01*
X145349494Y-109965537D01*
X145446185Y-109886185D01*
X145525537Y-109789494D01*
X145584502Y-109679180D01*
X145620812Y-109559482D01*
X145629231Y-109474000D01*
X148462569Y-109474000D01*
X148471595Y-109490887D01*
X148582038Y-109625462D01*
X148716613Y-109735905D01*
X148870148Y-109817972D01*
X149036744Y-109868508D01*
X149209998Y-109885572D01*
X150510002Y-109885572D01*
X150683256Y-109868508D01*
X150849852Y-109817972D01*
X151003387Y-109735905D01*
X151137962Y-109625462D01*
X151248405Y-109490887D01*
X151257431Y-109474000D01*
X152504288Y-109474000D01*
X152567038Y-109550462D01*
X152701614Y-109660905D01*
X152855150Y-109742972D01*
X153021746Y-109793508D01*
X153195000Y-109810572D01*
X154145000Y-109810572D01*
X154318254Y-109793508D01*
X154484850Y-109742972D01*
X154638386Y-109660905D01*
X154772962Y-109550462D01*
X154835712Y-109474000D01*
X154896340Y-109474000D01*
X154940000Y-109478300D01*
X154983660Y-109474000D01*
X154983667Y-109474000D01*
X155114274Y-109461136D01*
X155281851Y-109410303D01*
X155436291Y-109327753D01*
X155571659Y-109216659D01*
X155599499Y-109182736D01*
X158077743Y-106704493D01*
X158111659Y-106676659D01*
X158222753Y-106541291D01*
X158305303Y-106386851D01*
X158354627Y-106224250D01*
X158356136Y-106219276D01*
X158359406Y-106186076D01*
X158369000Y-106088667D01*
X158369000Y-106088661D01*
X158373300Y-106045001D01*
X158369000Y-106001341D01*
X158369000Y-105153396D01*
X158470241Y-105254637D01*
X158705273Y-105411680D01*
X158966426Y-105519853D01*
X159243665Y-105575000D01*
X159526335Y-105575000D01*
X159803574Y-105519853D01*
X160064727Y-105411680D01*
X160299759Y-105254637D01*
X160499637Y-105054759D01*
X160656680Y-104819727D01*
X160764853Y-104558574D01*
X160820000Y-104281335D01*
X160820000Y-103998665D01*
X160764853Y-103721426D01*
X160656680Y-103460273D01*
X160499637Y-103225241D01*
X160299759Y-103025363D01*
X160067241Y-102870000D01*
X160299759Y-102714637D01*
X160499637Y-102514759D01*
X160656680Y-102279727D01*
X160764853Y-102018574D01*
X160820000Y-101741335D01*
X160820000Y-101458665D01*
X160764853Y-101181426D01*
X160656680Y-100920273D01*
X160499637Y-100685241D01*
X160299759Y-100485363D01*
X160067241Y-100330000D01*
X160299759Y-100174637D01*
X160499637Y-99974759D01*
X160656680Y-99739727D01*
X160764853Y-99478574D01*
X160820000Y-99201335D01*
X160820000Y-98918665D01*
X160764853Y-98641426D01*
X160656680Y-98380273D01*
X160499637Y-98145241D01*
X160299759Y-97945363D01*
X160067241Y-97790000D01*
X160299759Y-97634637D01*
X160499637Y-97434759D01*
X160656680Y-97199727D01*
X160764853Y-96938574D01*
X160820000Y-96661335D01*
X160820000Y-96378665D01*
X160764853Y-96101426D01*
X160656680Y-95840273D01*
X160499637Y-95605241D01*
X160299759Y-95405363D01*
X160067241Y-95250000D01*
X160299759Y-95094637D01*
X160499637Y-94894759D01*
X160656680Y-94659727D01*
X160764853Y-94398574D01*
X160820000Y-94121335D01*
X160820000Y-93838665D01*
X160764853Y-93561426D01*
X160656680Y-93300273D01*
X160499637Y-93065241D01*
X160299759Y-92865363D01*
X160067241Y-92710000D01*
X160299759Y-92554637D01*
X160499637Y-92354759D01*
X160656680Y-92119727D01*
X160764853Y-91858574D01*
X160820000Y-91581335D01*
X160820000Y-91298665D01*
X160764853Y-91021426D01*
X160656680Y-90760273D01*
X160499637Y-90525241D01*
X160299759Y-90325363D01*
X160067241Y-90170000D01*
X160299759Y-90014637D01*
X160499637Y-89814759D01*
X160656680Y-89579727D01*
X160764853Y-89318574D01*
X160820000Y-89041335D01*
X160820000Y-88758665D01*
X160764853Y-88481426D01*
X160656680Y-88220273D01*
X160499637Y-87985241D01*
X160301039Y-87786643D01*
X160309482Y-87785812D01*
X160429180Y-87749502D01*
X160539494Y-87690537D01*
X160636185Y-87611185D01*
X160715537Y-87514494D01*
X160774502Y-87404180D01*
X160810812Y-87284482D01*
X160823072Y-87160000D01*
X160823072Y-86358769D01*
X161338133Y-85843708D01*
X161376896Y-85811896D01*
X161503860Y-85657190D01*
X161598202Y-85480687D01*
X161609190Y-85444464D01*
X161623102Y-85450226D01*
X161823061Y-85490000D01*
X162026939Y-85490000D01*
X162122459Y-85471000D01*
X163068000Y-85471000D01*
X163068000Y-89535000D01*
X163070440Y-89559776D01*
X163077667Y-89583601D01*
X163089403Y-89605557D01*
X163105197Y-89624803D01*
X163740197Y-90259803D01*
X163759443Y-90275597D01*
X163781399Y-90287333D01*
X163805224Y-90294560D01*
X163830000Y-90297000D01*
X166139520Y-90297000D01*
X165941481Y-90476586D01*
X165773963Y-90702580D01*
X165653754Y-90956913D01*
X165613096Y-91090961D01*
X165735085Y-91313000D01*
X166878000Y-91313000D01*
X166878000Y-91293000D01*
X167132000Y-91293000D01*
X167132000Y-91313000D01*
X167152000Y-91313000D01*
X167152000Y-91567000D01*
X167132000Y-91567000D01*
X167132000Y-91587000D01*
X166878000Y-91587000D01*
X166878000Y-91567000D01*
X165735085Y-91567000D01*
X165613096Y-91789039D01*
X165653754Y-91923087D01*
X165773963Y-92177420D01*
X165941481Y-92403414D01*
X166139520Y-92583000D01*
X163830000Y-92583000D01*
X163805224Y-92585440D01*
X163781399Y-92592667D01*
X163759443Y-92604403D01*
X163740197Y-92620197D01*
X163105197Y-93255197D01*
X163089403Y-93274443D01*
X163077667Y-93296399D01*
X163070440Y-93320224D01*
X163068000Y-93345000D01*
X163068000Y-111100000D01*
X128295000Y-111100000D01*
X128295000Y-108941891D01*
X140163519Y-108941891D01*
X140260843Y-109216252D01*
X140409822Y-109466355D01*
X140604731Y-109682588D01*
X140838080Y-109856641D01*
X141100901Y-109981825D01*
X141248110Y-110026476D01*
X141478000Y-109905155D01*
X141478000Y-108712000D01*
X140284186Y-108712000D01*
X140163519Y-108941891D01*
X128295000Y-108941891D01*
X128295000Y-108228109D01*
X140163519Y-108228109D01*
X140284186Y-108458000D01*
X141478000Y-108458000D01*
X141478000Y-107264845D01*
X141248110Y-107143524D01*
X141100901Y-107188175D01*
X140838080Y-107313359D01*
X140604731Y-107487412D01*
X140409822Y-107703645D01*
X140260843Y-107953748D01*
X140163519Y-108228109D01*
X128295000Y-108228109D01*
X128295000Y-103226891D01*
X140163519Y-103226891D01*
X140260843Y-103501252D01*
X140409822Y-103751355D01*
X140604731Y-103967588D01*
X140838080Y-104141641D01*
X141100901Y-104266825D01*
X141248110Y-104311476D01*
X141478000Y-104190155D01*
X141478000Y-102997000D01*
X140284186Y-102997000D01*
X140163519Y-103226891D01*
X128295000Y-103226891D01*
X128295000Y-102513109D01*
X140163519Y-102513109D01*
X140284186Y-102743000D01*
X141478000Y-102743000D01*
X141478000Y-101549845D01*
X141248110Y-101428524D01*
X141100901Y-101473175D01*
X140838080Y-101598359D01*
X140604731Y-101772412D01*
X140409822Y-101988645D01*
X140260843Y-102238748D01*
X140163519Y-102513109D01*
X128295000Y-102513109D01*
X128295000Y-97511891D01*
X140163519Y-97511891D01*
X140260843Y-97786252D01*
X140409822Y-98036355D01*
X140604731Y-98252588D01*
X140838080Y-98426641D01*
X141100901Y-98551825D01*
X141248110Y-98596476D01*
X141478000Y-98475155D01*
X141478000Y-97282000D01*
X140284186Y-97282000D01*
X140163519Y-97511891D01*
X128295000Y-97511891D01*
X128295000Y-96798109D01*
X140163519Y-96798109D01*
X140284186Y-97028000D01*
X141478000Y-97028000D01*
X141478000Y-95834845D01*
X141248110Y-95713524D01*
X141100901Y-95758175D01*
X140838080Y-95883359D01*
X140604731Y-96057412D01*
X140409822Y-96273645D01*
X140260843Y-96523748D01*
X140163519Y-96798109D01*
X128295000Y-96798109D01*
X128295000Y-91879495D01*
X130095000Y-91879495D01*
X130095000Y-92270505D01*
X130171282Y-92654003D01*
X130320915Y-93015250D01*
X130538149Y-93340364D01*
X130814636Y-93616851D01*
X131139750Y-93834085D01*
X131500997Y-93983718D01*
X131884495Y-94060000D01*
X132275505Y-94060000D01*
X132659003Y-93983718D01*
X133020250Y-93834085D01*
X133345364Y-93616851D01*
X133621851Y-93340364D01*
X133839085Y-93015250D01*
X133988718Y-92654003D01*
X134065000Y-92270505D01*
X134065000Y-91879495D01*
X134048570Y-91796891D01*
X140163519Y-91796891D01*
X140260843Y-92071252D01*
X140409822Y-92321355D01*
X140604731Y-92537588D01*
X140838080Y-92711641D01*
X141100901Y-92836825D01*
X141248110Y-92881476D01*
X141478000Y-92760155D01*
X141478000Y-91567000D01*
X140284186Y-91567000D01*
X140163519Y-91796891D01*
X134048570Y-91796891D01*
X133988718Y-91495997D01*
X133839085Y-91134750D01*
X133804580Y-91083109D01*
X140163519Y-91083109D01*
X140284186Y-91313000D01*
X141478000Y-91313000D01*
X141478000Y-90119845D01*
X141248110Y-89998524D01*
X141100901Y-90043175D01*
X140838080Y-90168359D01*
X140604731Y-90342412D01*
X140409822Y-90558645D01*
X140260843Y-90808748D01*
X140163519Y-91083109D01*
X133804580Y-91083109D01*
X133621851Y-90809636D01*
X133345364Y-90533149D01*
X133020250Y-90315915D01*
X132659003Y-90166282D01*
X132275505Y-90090000D01*
X131884495Y-90090000D01*
X131500997Y-90166282D01*
X131139750Y-90315915D01*
X130814636Y-90533149D01*
X130538149Y-90809636D01*
X130320915Y-91134750D01*
X130171282Y-91495997D01*
X130095000Y-91879495D01*
X128295000Y-91879495D01*
X128295000Y-83838686D01*
X130120919Y-83838686D01*
X130457106Y-84307868D01*
X131087068Y-84648237D01*
X131771327Y-84859166D01*
X132483589Y-84932550D01*
X133196482Y-84865569D01*
X133882609Y-84660796D01*
X134515603Y-84326102D01*
X134542894Y-84307868D01*
X134879081Y-83838686D01*
X132500000Y-81459605D01*
X130120919Y-83838686D01*
X128295000Y-83838686D01*
X128295000Y-81263589D01*
X128847450Y-81263589D01*
X128914431Y-81976482D01*
X129119204Y-82662609D01*
X129453898Y-83295603D01*
X129472132Y-83322894D01*
X129941314Y-83659081D01*
X132320395Y-81280000D01*
X132679605Y-81280000D01*
X135058686Y-83659081D01*
X135527868Y-83322894D01*
X135868237Y-82692932D01*
X136061928Y-82064594D01*
X136061928Y-82780000D01*
X136103010Y-83197117D01*
X136224679Y-83598205D01*
X136422258Y-83967849D01*
X136688155Y-84291845D01*
X137012151Y-84557742D01*
X137381795Y-84755321D01*
X137782883Y-84876990D01*
X138200000Y-84918072D01*
X141200000Y-84918072D01*
X141617117Y-84876990D01*
X142018205Y-84755321D01*
X142387849Y-84557742D01*
X142711845Y-84291845D01*
X142977742Y-83967849D01*
X143175321Y-83598205D01*
X143296990Y-83197117D01*
X143338072Y-82780000D01*
X143338072Y-82296000D01*
X146057221Y-82296000D01*
X146067038Y-82307962D01*
X146201614Y-82418405D01*
X146355150Y-82500472D01*
X146521746Y-82551008D01*
X146695000Y-82568072D01*
X147945000Y-82568072D01*
X148118254Y-82551008D01*
X148284850Y-82500472D01*
X148438386Y-82418405D01*
X148572962Y-82307962D01*
X148683405Y-82173386D01*
X148765472Y-82019850D01*
X148816008Y-81853254D01*
X148833072Y-81680000D01*
X148833072Y-80880000D01*
X148816008Y-80706746D01*
X148765472Y-80540150D01*
X148683405Y-80386614D01*
X148572962Y-80252038D01*
X148438386Y-80141595D01*
X148284850Y-80059528D01*
X148118254Y-80008992D01*
X147945000Y-79991928D01*
X146695000Y-79991928D01*
X146521746Y-80008992D01*
X146355150Y-80059528D01*
X146201614Y-80141595D01*
X146067038Y-80252038D01*
X146057221Y-80264000D01*
X143338072Y-80264000D01*
X143338072Y-79780000D01*
X143296990Y-79362883D01*
X143175321Y-78961795D01*
X142977742Y-78592151D01*
X142711845Y-78268155D01*
X142387849Y-78002258D01*
X142018205Y-77804679D01*
X141936850Y-77780000D01*
X145806928Y-77780000D01*
X145806928Y-78580000D01*
X145823992Y-78753254D01*
X145874528Y-78919850D01*
X145956595Y-79073386D01*
X146067038Y-79207962D01*
X146201614Y-79318405D01*
X146355150Y-79400472D01*
X146521746Y-79451008D01*
X146695000Y-79468072D01*
X147945000Y-79468072D01*
X148118254Y-79451008D01*
X148284850Y-79400472D01*
X148438386Y-79318405D01*
X148572962Y-79207962D01*
X148582779Y-79196000D01*
X149217694Y-79196000D01*
X149351613Y-79305905D01*
X149505148Y-79387972D01*
X149671744Y-79438508D01*
X149844998Y-79455572D01*
X151145002Y-79455572D01*
X151318256Y-79438508D01*
X151484852Y-79387972D01*
X151638387Y-79305905D01*
X151772962Y-79195462D01*
X151883405Y-79060887D01*
X151965472Y-78907352D01*
X151992728Y-78817500D01*
X152766928Y-78817500D01*
X152779188Y-78941982D01*
X152815498Y-79061680D01*
X152874463Y-79171994D01*
X152953815Y-79268685D01*
X153050506Y-79348037D01*
X153160820Y-79407002D01*
X153280518Y-79443312D01*
X153405000Y-79455572D01*
X154019250Y-79452500D01*
X154178000Y-79293750D01*
X154178000Y-78282000D01*
X154432000Y-78282000D01*
X154432000Y-79293750D01*
X154590750Y-79452500D01*
X155205000Y-79455572D01*
X155329482Y-79443312D01*
X155449180Y-79407002D01*
X155559494Y-79348037D01*
X155656185Y-79268685D01*
X155735537Y-79171994D01*
X155794502Y-79061680D01*
X155830812Y-78941982D01*
X155843072Y-78817500D01*
X155841442Y-78617500D01*
X156116928Y-78617500D01*
X156120000Y-78919250D01*
X156278750Y-79078000D01*
X157353000Y-79078000D01*
X157353000Y-78141250D01*
X157607000Y-78141250D01*
X157607000Y-79078000D01*
X158681250Y-79078000D01*
X158840000Y-78919250D01*
X158843072Y-78617500D01*
X158830812Y-78493018D01*
X158794502Y-78373320D01*
X158735537Y-78263006D01*
X158656185Y-78166315D01*
X158559494Y-78086963D01*
X158449180Y-78027998D01*
X158329482Y-77991688D01*
X158205000Y-77979428D01*
X157765750Y-77982500D01*
X157607000Y-78141250D01*
X157353000Y-78141250D01*
X157194250Y-77982500D01*
X156755000Y-77979428D01*
X156630518Y-77991688D01*
X156510820Y-78027998D01*
X156400506Y-78086963D01*
X156303815Y-78166315D01*
X156224463Y-78263006D01*
X156165498Y-78373320D01*
X156129188Y-78493018D01*
X156116928Y-78617500D01*
X155841442Y-78617500D01*
X155840000Y-78440750D01*
X155681250Y-78282000D01*
X154432000Y-78282000D01*
X154178000Y-78282000D01*
X152928750Y-78282000D01*
X152770000Y-78440750D01*
X152766928Y-78817500D01*
X151992728Y-78817500D01*
X152016008Y-78740756D01*
X152033072Y-78567502D01*
X152033072Y-77742498D01*
X152016008Y-77569244D01*
X151992729Y-77492500D01*
X152766928Y-77492500D01*
X152770000Y-77869250D01*
X152928750Y-78028000D01*
X154178000Y-78028000D01*
X154178000Y-77016250D01*
X154432000Y-77016250D01*
X154432000Y-78028000D01*
X155681250Y-78028000D01*
X155840000Y-77869250D01*
X155843072Y-77492500D01*
X155830812Y-77368018D01*
X155794502Y-77248320D01*
X155735537Y-77138006D01*
X155656185Y-77041315D01*
X155559494Y-76961963D01*
X155449180Y-76902998D01*
X155329482Y-76866688D01*
X155205000Y-76854428D01*
X154590750Y-76857500D01*
X154432000Y-77016250D01*
X154178000Y-77016250D01*
X154019250Y-76857500D01*
X153405000Y-76854428D01*
X153280518Y-76866688D01*
X153160820Y-76902998D01*
X153050506Y-76961963D01*
X152953815Y-77041315D01*
X152874463Y-77138006D01*
X152815498Y-77248320D01*
X152779188Y-77368018D01*
X152766928Y-77492500D01*
X151992729Y-77492500D01*
X151965472Y-77402648D01*
X151883405Y-77249113D01*
X151772962Y-77114538D01*
X151638387Y-77004095D01*
X151484852Y-76922028D01*
X151318256Y-76871492D01*
X151145002Y-76854428D01*
X149844998Y-76854428D01*
X149671744Y-76871492D01*
X149505148Y-76922028D01*
X149351613Y-77004095D01*
X149217038Y-77114538D01*
X149176446Y-77164000D01*
X148582779Y-77164000D01*
X148572962Y-77152038D01*
X148438386Y-77041595D01*
X148284850Y-76959528D01*
X148118254Y-76908992D01*
X147945000Y-76891928D01*
X146695000Y-76891928D01*
X146521746Y-76908992D01*
X146355150Y-76959528D01*
X146201614Y-77041595D01*
X146067038Y-77152038D01*
X145956595Y-77286614D01*
X145874528Y-77440150D01*
X145823992Y-77606746D01*
X145806928Y-77780000D01*
X141936850Y-77780000D01*
X141617117Y-77683010D01*
X141200000Y-77641928D01*
X138200000Y-77641928D01*
X137782883Y-77683010D01*
X137381795Y-77804679D01*
X137012151Y-78002258D01*
X136688155Y-78268155D01*
X136422258Y-78592151D01*
X136224679Y-78961795D01*
X136103010Y-79362883D01*
X136061928Y-79780000D01*
X136061928Y-80504305D01*
X135880796Y-79897391D01*
X135546102Y-79264397D01*
X135527868Y-79237106D01*
X135058686Y-78900919D01*
X132679605Y-81280000D01*
X132320395Y-81280000D01*
X129941314Y-78900919D01*
X129472132Y-79237106D01*
X129131763Y-79867068D01*
X128920834Y-80551327D01*
X128847450Y-81263589D01*
X128295000Y-81263589D01*
X128295000Y-78721314D01*
X130120919Y-78721314D01*
X132500000Y-81100395D01*
X134879081Y-78721314D01*
X134542894Y-78252132D01*
X133912932Y-77911763D01*
X133228673Y-77700834D01*
X132516411Y-77627450D01*
X131803518Y-77694431D01*
X131117391Y-77899204D01*
X130484397Y-78233898D01*
X130457106Y-78252132D01*
X130120919Y-78721314D01*
X128295000Y-78721314D01*
X128295000Y-72408686D01*
X130120919Y-72408686D01*
X130457106Y-72877868D01*
X131087068Y-73218237D01*
X131771327Y-73429166D01*
X132483589Y-73502550D01*
X133196482Y-73435569D01*
X133882609Y-73230796D01*
X134515603Y-72896102D01*
X134542894Y-72877868D01*
X134879081Y-72408686D01*
X132500000Y-70029605D01*
X130120919Y-72408686D01*
X128295000Y-72408686D01*
X128295000Y-69833589D01*
X128847450Y-69833589D01*
X128914431Y-70546482D01*
X129119204Y-71232609D01*
X129453898Y-71865603D01*
X129472132Y-71892894D01*
X129941314Y-72229081D01*
X132320395Y-69850000D01*
X132679605Y-69850000D01*
X135058686Y-72229081D01*
X135527868Y-71892894D01*
X135868237Y-71262932D01*
X136061928Y-70634594D01*
X136061928Y-71350000D01*
X136103010Y-71767117D01*
X136224679Y-72168205D01*
X136422258Y-72537849D01*
X136688155Y-72861845D01*
X137012151Y-73127742D01*
X137381795Y-73325321D01*
X137782883Y-73446990D01*
X138200000Y-73488072D01*
X141200000Y-73488072D01*
X141617117Y-73446990D01*
X142018205Y-73325321D01*
X142387849Y-73127742D01*
X142711845Y-72861845D01*
X142977742Y-72537849D01*
X143175321Y-72168205D01*
X143296990Y-71767117D01*
X143338072Y-71350000D01*
X143338072Y-70866000D01*
X146057221Y-70866000D01*
X146067038Y-70877962D01*
X146201614Y-70988405D01*
X146355150Y-71070472D01*
X146521746Y-71121008D01*
X146695000Y-71138072D01*
X147945000Y-71138072D01*
X148118254Y-71121008D01*
X148284850Y-71070472D01*
X148438386Y-70988405D01*
X148572962Y-70877962D01*
X148683405Y-70743386D01*
X148765472Y-70589850D01*
X148816008Y-70423254D01*
X148833072Y-70250000D01*
X148833072Y-69450000D01*
X148816008Y-69276746D01*
X148765472Y-69110150D01*
X148683405Y-68956614D01*
X148572962Y-68822038D01*
X148438386Y-68711595D01*
X148284850Y-68629528D01*
X148118254Y-68578992D01*
X147945000Y-68561928D01*
X146695000Y-68561928D01*
X146521746Y-68578992D01*
X146355150Y-68629528D01*
X146201614Y-68711595D01*
X146067038Y-68822038D01*
X146057221Y-68834000D01*
X143338072Y-68834000D01*
X143338072Y-68350000D01*
X143296990Y-67932883D01*
X143175321Y-67531795D01*
X142977742Y-67162151D01*
X142711845Y-66838155D01*
X142387849Y-66572258D01*
X142018205Y-66374679D01*
X141936850Y-66350000D01*
X145806928Y-66350000D01*
X145806928Y-67150000D01*
X145823992Y-67323254D01*
X145874528Y-67489850D01*
X145956595Y-67643386D01*
X146067038Y-67777962D01*
X146201614Y-67888405D01*
X146355150Y-67970472D01*
X146521746Y-68021008D01*
X146695000Y-68038072D01*
X147945000Y-68038072D01*
X148118254Y-68021008D01*
X148284850Y-67970472D01*
X148438386Y-67888405D01*
X148572962Y-67777962D01*
X148603296Y-67741000D01*
X149196963Y-67741000D01*
X149217038Y-67765462D01*
X149351613Y-67875905D01*
X149505148Y-67957972D01*
X149671744Y-68008508D01*
X149844998Y-68025572D01*
X151145002Y-68025572D01*
X151318256Y-68008508D01*
X151484852Y-67957972D01*
X151638387Y-67875905D01*
X151772962Y-67765462D01*
X151883405Y-67630887D01*
X151965472Y-67477352D01*
X151992728Y-67387500D01*
X152766928Y-67387500D01*
X152779188Y-67511982D01*
X152815498Y-67631680D01*
X152874463Y-67741994D01*
X152953815Y-67838685D01*
X153050506Y-67918037D01*
X153160820Y-67977002D01*
X153280518Y-68013312D01*
X153405000Y-68025572D01*
X154019250Y-68022500D01*
X154178000Y-67863750D01*
X154178000Y-66852000D01*
X154432000Y-66852000D01*
X154432000Y-67863750D01*
X154590750Y-68022500D01*
X155205000Y-68025572D01*
X155329482Y-68013312D01*
X155449180Y-67977002D01*
X155559494Y-67918037D01*
X155656185Y-67838685D01*
X155735537Y-67741994D01*
X155794502Y-67631680D01*
X155830812Y-67511982D01*
X155843072Y-67387500D01*
X155841442Y-67187500D01*
X156116928Y-67187500D01*
X156120000Y-67489250D01*
X156278750Y-67648000D01*
X157353000Y-67648000D01*
X157353000Y-66711250D01*
X157607000Y-66711250D01*
X157607000Y-67648000D01*
X158681250Y-67648000D01*
X158840000Y-67489250D01*
X158843072Y-67187500D01*
X158830812Y-67063018D01*
X158794502Y-66943320D01*
X158735537Y-66833006D01*
X158656185Y-66736315D01*
X158559494Y-66656963D01*
X158449180Y-66597998D01*
X158329482Y-66561688D01*
X158205000Y-66549428D01*
X157765750Y-66552500D01*
X157607000Y-66711250D01*
X157353000Y-66711250D01*
X157194250Y-66552500D01*
X156755000Y-66549428D01*
X156630518Y-66561688D01*
X156510820Y-66597998D01*
X156400506Y-66656963D01*
X156303815Y-66736315D01*
X156224463Y-66833006D01*
X156165498Y-66943320D01*
X156129188Y-67063018D01*
X156116928Y-67187500D01*
X155841442Y-67187500D01*
X155840000Y-67010750D01*
X155681250Y-66852000D01*
X154432000Y-66852000D01*
X154178000Y-66852000D01*
X152928750Y-66852000D01*
X152770000Y-67010750D01*
X152766928Y-67387500D01*
X151992728Y-67387500D01*
X152016008Y-67310756D01*
X152033072Y-67137502D01*
X152033072Y-66312498D01*
X152016008Y-66139244D01*
X151992729Y-66062500D01*
X152766928Y-66062500D01*
X152770000Y-66439250D01*
X152928750Y-66598000D01*
X154178000Y-66598000D01*
X154178000Y-65586250D01*
X154432000Y-65586250D01*
X154432000Y-66598000D01*
X155681250Y-66598000D01*
X155840000Y-66439250D01*
X155843072Y-66062500D01*
X155830812Y-65938018D01*
X155794502Y-65818320D01*
X155735537Y-65708006D01*
X155656185Y-65611315D01*
X155559494Y-65531963D01*
X155449180Y-65472998D01*
X155329482Y-65436688D01*
X155205000Y-65424428D01*
X154590750Y-65427500D01*
X154432000Y-65586250D01*
X154178000Y-65586250D01*
X154019250Y-65427500D01*
X153405000Y-65424428D01*
X153280518Y-65436688D01*
X153160820Y-65472998D01*
X153050506Y-65531963D01*
X152953815Y-65611315D01*
X152874463Y-65708006D01*
X152815498Y-65818320D01*
X152779188Y-65938018D01*
X152766928Y-66062500D01*
X151992729Y-66062500D01*
X151965472Y-65972648D01*
X151883405Y-65819113D01*
X151772962Y-65684538D01*
X151638387Y-65574095D01*
X151484852Y-65492028D01*
X151318256Y-65441492D01*
X151145002Y-65424428D01*
X149844998Y-65424428D01*
X149671744Y-65441492D01*
X149505148Y-65492028D01*
X149351613Y-65574095D01*
X149217038Y-65684538D01*
X149196963Y-65709000D01*
X148557075Y-65709000D01*
X148438386Y-65611595D01*
X148284850Y-65529528D01*
X148118254Y-65478992D01*
X147945000Y-65461928D01*
X146695000Y-65461928D01*
X146521746Y-65478992D01*
X146355150Y-65529528D01*
X146201614Y-65611595D01*
X146067038Y-65722038D01*
X145956595Y-65856614D01*
X145874528Y-66010150D01*
X145823992Y-66176746D01*
X145806928Y-66350000D01*
X141936850Y-66350000D01*
X141617117Y-66253010D01*
X141200000Y-66211928D01*
X138200000Y-66211928D01*
X137782883Y-66253010D01*
X137381795Y-66374679D01*
X137012151Y-66572258D01*
X136688155Y-66838155D01*
X136422258Y-67162151D01*
X136224679Y-67531795D01*
X136103010Y-67932883D01*
X136061928Y-68350000D01*
X136061928Y-69074305D01*
X135880796Y-68467391D01*
X135546102Y-67834397D01*
X135527868Y-67807106D01*
X135058686Y-67470919D01*
X132679605Y-69850000D01*
X132320395Y-69850000D01*
X129941314Y-67470919D01*
X129472132Y-67807106D01*
X129131763Y-68437068D01*
X128920834Y-69121327D01*
X128847450Y-69833589D01*
X128295000Y-69833589D01*
X128295000Y-67291314D01*
X130120919Y-67291314D01*
X132500000Y-69670395D01*
X134879081Y-67291314D01*
X134542894Y-66822132D01*
X133912932Y-66481763D01*
X133228673Y-66270834D01*
X132516411Y-66197450D01*
X131803518Y-66264431D01*
X131117391Y-66469204D01*
X130484397Y-66803898D01*
X130457106Y-66822132D01*
X130120919Y-67291314D01*
X128295000Y-67291314D01*
X128295000Y-64795000D01*
X163068000Y-64795000D01*
X163068000Y-83439000D01*
G37*
%TD.AperFunction*%
D20*
X168148000Y-92583000D02*
X167870480Y-92583000D01*
X168068519Y-92403414D01*
X168148000Y-92296188D01*
X168148000Y-92583000D01*
%TA.AperFunction,Conductor*%
D21*
G36*
X168148000Y-92583000D02*
G01*
X167870480Y-92583000D01*
X168068519Y-92403414D01*
X168148000Y-92296188D01*
X168148000Y-92583000D01*
G37*
%TD.AperFunction*%
D20*
X168148000Y-90583812D02*
X168068519Y-90476586D01*
X167870480Y-90297000D01*
X168148000Y-90297000D01*
X168148000Y-90583812D01*
%TA.AperFunction,Conductor*%
D21*
G36*
X168148000Y-90583812D02*
G01*
X168068519Y-90476586D01*
X167870480Y-90297000D01*
X168148000Y-90297000D01*
X168148000Y-90583812D01*
G37*
%TD.AperFunction*%
%TD*%
D20*
%TO.N,GNDA*%
X180950001Y-104742572D02*
X180950000Y-104742582D01*
X180950001Y-111100000D01*
X162687000Y-111100000D01*
X162687000Y-104489039D01*
X165613096Y-104489039D01*
X165653754Y-104623087D01*
X165773963Y-104877420D01*
X165941481Y-105103414D01*
X166149869Y-105292385D01*
X166391119Y-105437070D01*
X166655960Y-105531909D01*
X166878000Y-105410624D01*
X166878000Y-104267000D01*
X167132000Y-104267000D01*
X167132000Y-105410624D01*
X167354040Y-105531909D01*
X167618881Y-105437070D01*
X167860131Y-105292385D01*
X168068519Y-105103414D01*
X168236037Y-104877420D01*
X168356246Y-104623087D01*
X168369467Y-104579495D01*
X172640000Y-104579495D01*
X172640000Y-104970505D01*
X172716282Y-105354003D01*
X172865915Y-105715250D01*
X173083149Y-106040364D01*
X173359636Y-106316851D01*
X173684750Y-106534085D01*
X174045997Y-106683718D01*
X174429495Y-106760000D01*
X174820505Y-106760000D01*
X175204003Y-106683718D01*
X175565250Y-106534085D01*
X175890364Y-106316851D01*
X176166851Y-106040364D01*
X176384085Y-105715250D01*
X176533718Y-105354003D01*
X176610000Y-104970505D01*
X176610000Y-104579495D01*
X176533718Y-104195997D01*
X176384085Y-103834750D01*
X176166851Y-103509636D01*
X175890364Y-103233149D01*
X175565250Y-103015915D01*
X175204003Y-102866282D01*
X174820505Y-102790000D01*
X174429495Y-102790000D01*
X174045997Y-102866282D01*
X173684750Y-103015915D01*
X173359636Y-103233149D01*
X173083149Y-103509636D01*
X172865915Y-103834750D01*
X172716282Y-104195997D01*
X172640000Y-104579495D01*
X168369467Y-104579495D01*
X168396904Y-104489039D01*
X168274915Y-104267000D01*
X167132000Y-104267000D01*
X166878000Y-104267000D01*
X165735085Y-104267000D01*
X165613096Y-104489039D01*
X162687000Y-104489039D01*
X162687000Y-85471000D01*
X164679160Y-85471000D01*
X165570000Y-86361841D01*
X165570000Y-86501335D01*
X165625147Y-86778574D01*
X165733320Y-87039727D01*
X165890363Y-87274759D01*
X165989000Y-87373396D01*
X165989001Y-87886603D01*
X165890363Y-87985241D01*
X165733320Y-88220273D01*
X165625147Y-88481426D01*
X165570000Y-88758665D01*
X165570000Y-89041335D01*
X165625147Y-89318574D01*
X165733320Y-89579727D01*
X165890363Y-89814759D01*
X166090241Y-90014637D01*
X166325273Y-90171680D01*
X166335865Y-90176067D01*
X166149869Y-90287615D01*
X165941481Y-90476586D01*
X165773963Y-90702580D01*
X165653754Y-90956913D01*
X165613096Y-91090961D01*
X165735085Y-91313000D01*
X166878000Y-91313000D01*
X166878000Y-91293000D01*
X167132000Y-91293000D01*
X167132000Y-91313000D01*
X168274915Y-91313000D01*
X168396904Y-91090961D01*
X168356246Y-90956913D01*
X168236037Y-90702580D01*
X168068519Y-90476586D01*
X167860131Y-90287615D01*
X167674135Y-90176067D01*
X167684727Y-90171680D01*
X167919759Y-90014637D01*
X168018396Y-89916000D01*
X169576267Y-89916000D01*
X169601595Y-89963386D01*
X169712038Y-90097962D01*
X169718594Y-90103342D01*
X169638815Y-90168815D01*
X169559463Y-90265506D01*
X169500498Y-90375820D01*
X169464188Y-90495518D01*
X169451928Y-90620000D01*
X169455000Y-90921750D01*
X169613750Y-91080500D01*
X170688000Y-91080500D01*
X170688000Y-91060500D01*
X170942000Y-91060500D01*
X170942000Y-91080500D01*
X172016250Y-91080500D01*
X172175000Y-90921750D01*
X172178072Y-90620000D01*
X172165812Y-90495518D01*
X172129502Y-90375820D01*
X172070537Y-90265506D01*
X171991185Y-90168815D01*
X171911406Y-90103342D01*
X171917962Y-90097962D01*
X172028405Y-89963386D01*
X172110472Y-89809850D01*
X172161008Y-89643254D01*
X172178072Y-89470000D01*
X172178072Y-88795000D01*
X172161008Y-88621746D01*
X172110472Y-88455150D01*
X172028405Y-88301614D01*
X171917962Y-88167038D01*
X171783386Y-88056595D01*
X171629850Y-87974528D01*
X171463254Y-87923992D01*
X171290000Y-87906928D01*
X170808788Y-87906928D01*
X170781671Y-87898702D01*
X170632402Y-87884000D01*
X170582500Y-87879085D01*
X170532598Y-87884000D01*
X168021000Y-87884000D01*
X168021000Y-87373396D01*
X168119637Y-87274759D01*
X168276680Y-87039727D01*
X168384853Y-86778574D01*
X168440000Y-86501335D01*
X168440000Y-86218665D01*
X168384853Y-85941426D01*
X168276680Y-85680273D01*
X168253500Y-85645582D01*
X168253500Y-81796431D01*
X168273815Y-81821185D01*
X168370506Y-81900537D01*
X168480820Y-81959502D01*
X168600518Y-81995812D01*
X168725000Y-82008072D01*
X169026750Y-82005000D01*
X169185500Y-81846250D01*
X169185500Y-80772000D01*
X169439500Y-80772000D01*
X169439500Y-81846250D01*
X169598250Y-82005000D01*
X169900000Y-82008072D01*
X170024482Y-81995812D01*
X170144180Y-81959502D01*
X170254494Y-81900537D01*
X170351185Y-81821185D01*
X170430537Y-81724494D01*
X170489502Y-81614180D01*
X170525812Y-81494482D01*
X170538072Y-81370000D01*
X170535000Y-80930750D01*
X170376250Y-80772000D01*
X169439500Y-80772000D01*
X169185500Y-80772000D01*
X169165500Y-80772000D01*
X169165500Y-80518000D01*
X169185500Y-80518000D01*
X169185500Y-79443750D01*
X169439500Y-79443750D01*
X169439500Y-80518000D01*
X170376250Y-80518000D01*
X170535000Y-80359250D01*
X170538072Y-79920000D01*
X170525812Y-79795518D01*
X170489502Y-79675820D01*
X170430537Y-79565506D01*
X170351185Y-79468815D01*
X170254494Y-79389463D01*
X170144180Y-79330498D01*
X170024482Y-79294188D01*
X169900000Y-79281928D01*
X169598250Y-79285000D01*
X169439500Y-79443750D01*
X169185500Y-79443750D01*
X169026750Y-79285000D01*
X168725000Y-79281928D01*
X168600518Y-79294188D01*
X168480820Y-79330498D01*
X168370506Y-79389463D01*
X168273815Y-79468815D01*
X168208342Y-79548594D01*
X168202962Y-79542038D01*
X168068386Y-79431595D01*
X168046000Y-79419629D01*
X168046000Y-76710000D01*
X171691928Y-76710000D01*
X171704188Y-76834482D01*
X171740498Y-76954180D01*
X171799463Y-77064494D01*
X171878815Y-77161185D01*
X171975506Y-77240537D01*
X172085820Y-77299502D01*
X172205518Y-77335812D01*
X172330000Y-77348072D01*
X173044250Y-77345000D01*
X173203000Y-77186250D01*
X173203000Y-76087000D01*
X173457000Y-76087000D01*
X173457000Y-77186250D01*
X173615750Y-77345000D01*
X174330000Y-77348072D01*
X174454482Y-77335812D01*
X174574180Y-77299502D01*
X174684494Y-77240537D01*
X174781185Y-77161185D01*
X174860537Y-77064494D01*
X174919502Y-76954180D01*
X174955812Y-76834482D01*
X174968072Y-76710000D01*
X174965000Y-76245750D01*
X174806250Y-76087000D01*
X173457000Y-76087000D01*
X173203000Y-76087000D01*
X171853750Y-76087000D01*
X171695000Y-76245750D01*
X171691928Y-76710000D01*
X168046000Y-76710000D01*
X168046000Y-76196496D01*
X168154482Y-76185812D01*
X168274180Y-76149502D01*
X168384494Y-76090537D01*
X168481185Y-76011185D01*
X168560537Y-75914494D01*
X168619502Y-75804180D01*
X168655812Y-75684482D01*
X168668072Y-75560000D01*
X168668072Y-74676000D01*
X171752161Y-74676000D01*
X171799463Y-74764494D01*
X171836809Y-74810000D01*
X171799463Y-74855506D01*
X171740498Y-74965820D01*
X171704188Y-75085518D01*
X171691928Y-75210000D01*
X171695000Y-75674250D01*
X171853750Y-75833000D01*
X173203000Y-75833000D01*
X173203000Y-75813000D01*
X173457000Y-75813000D01*
X173457000Y-75833000D01*
X174806250Y-75833000D01*
X174965000Y-75674250D01*
X174967575Y-75285000D01*
X175801928Y-75285000D01*
X175814188Y-75409482D01*
X175850498Y-75529180D01*
X175909463Y-75639494D01*
X175988815Y-75736185D01*
X176085506Y-75815537D01*
X176195820Y-75874502D01*
X176315518Y-75910812D01*
X176440000Y-75923072D01*
X176879250Y-75920000D01*
X177038000Y-75761250D01*
X177038000Y-74824500D01*
X175963750Y-74824500D01*
X175805000Y-74983250D01*
X175801928Y-75285000D01*
X174967575Y-75285000D01*
X174968072Y-75210000D01*
X174955812Y-75085518D01*
X174919502Y-74965820D01*
X174860537Y-74855506D01*
X174823191Y-74810000D01*
X174860537Y-74764494D01*
X174919502Y-74654180D01*
X174955812Y-74534482D01*
X174968072Y-74410000D01*
X174968072Y-72910000D01*
X174955812Y-72785518D01*
X174919502Y-72665820D01*
X174860537Y-72555506D01*
X174823191Y-72510000D01*
X174860537Y-72464494D01*
X174907839Y-72376000D01*
X175481660Y-72376000D01*
X175801928Y-72696268D01*
X175801928Y-72960000D01*
X175818992Y-73133254D01*
X175869528Y-73299850D01*
X175951595Y-73453386D01*
X176062038Y-73587962D01*
X176068594Y-73593342D01*
X175988815Y-73658815D01*
X175909463Y-73755506D01*
X175850498Y-73865820D01*
X175814188Y-73985518D01*
X175801928Y-74110000D01*
X175805000Y-74411750D01*
X175963750Y-74570500D01*
X177038000Y-74570500D01*
X177038000Y-74550500D01*
X177292000Y-74550500D01*
X177292000Y-74570500D01*
X177312000Y-74570500D01*
X177312000Y-74824500D01*
X177292000Y-74824500D01*
X177292000Y-75761250D01*
X177450750Y-75920000D01*
X177890000Y-75923072D01*
X177894115Y-75922667D01*
X177894114Y-84329171D01*
X177865506Y-84344463D01*
X177768815Y-84423815D01*
X177689463Y-84520506D01*
X177630498Y-84630820D01*
X177594188Y-84750518D01*
X177581928Y-84875000D01*
X177581928Y-86575000D01*
X177594188Y-86699482D01*
X177630498Y-86819180D01*
X177689463Y-86929494D01*
X177768815Y-87026185D01*
X177865506Y-87105537D01*
X177975820Y-87164502D01*
X178048380Y-87186513D01*
X177916525Y-87318368D01*
X177878017Y-87376000D01*
X176573668Y-87376000D01*
X176530000Y-87371699D01*
X176355725Y-87388864D01*
X176304892Y-87404284D01*
X176188149Y-87439697D01*
X176033709Y-87522247D01*
X175898341Y-87633341D01*
X175870506Y-87667258D01*
X172109757Y-91428007D01*
X172016250Y-91334500D01*
X170942000Y-91334500D01*
X170942000Y-92271250D01*
X171100750Y-92430000D01*
X171107716Y-92430049D01*
X170446765Y-93091000D01*
X168136849Y-93091000D01*
X168119637Y-93065241D01*
X167919759Y-92865363D01*
X167684727Y-92708320D01*
X167674135Y-92703933D01*
X167860131Y-92592385D01*
X168068519Y-92403414D01*
X168236037Y-92177420D01*
X168356246Y-91923087D01*
X168395095Y-91795000D01*
X169451928Y-91795000D01*
X169464188Y-91919482D01*
X169500498Y-92039180D01*
X169559463Y-92149494D01*
X169638815Y-92246185D01*
X169735506Y-92325537D01*
X169845820Y-92384502D01*
X169965518Y-92420812D01*
X170090000Y-92433072D01*
X170529250Y-92430000D01*
X170688000Y-92271250D01*
X170688000Y-91334500D01*
X169613750Y-91334500D01*
X169455000Y-91493250D01*
X169451928Y-91795000D01*
X168395095Y-91795000D01*
X168396904Y-91789039D01*
X168274915Y-91567000D01*
X167132000Y-91567000D01*
X167132000Y-91587000D01*
X166878000Y-91587000D01*
X166878000Y-91567000D01*
X165735085Y-91567000D01*
X165613096Y-91789039D01*
X165653754Y-91923087D01*
X165773963Y-92177420D01*
X165941481Y-92403414D01*
X166149869Y-92592385D01*
X166335865Y-92703933D01*
X166325273Y-92708320D01*
X166090241Y-92865363D01*
X165890363Y-93065241D01*
X165733320Y-93300273D01*
X165625147Y-93561426D01*
X165570000Y-93838665D01*
X165570000Y-94121335D01*
X165625147Y-94398574D01*
X165733320Y-94659727D01*
X165890363Y-94894759D01*
X166090241Y-95094637D01*
X166322759Y-95250000D01*
X166090241Y-95405363D01*
X165890363Y-95605241D01*
X165733320Y-95840273D01*
X165625147Y-96101426D01*
X165570000Y-96378665D01*
X165570000Y-96661335D01*
X165625147Y-96938574D01*
X165733320Y-97199727D01*
X165890363Y-97434759D01*
X166090241Y-97634637D01*
X166322759Y-97790000D01*
X166090241Y-97945363D01*
X165890363Y-98145241D01*
X165733320Y-98380273D01*
X165625147Y-98641426D01*
X165570000Y-98918665D01*
X165570000Y-99201335D01*
X165625147Y-99478574D01*
X165733320Y-99739727D01*
X165890363Y-99974759D01*
X166090241Y-100174637D01*
X166322759Y-100330000D01*
X166090241Y-100485363D01*
X165890363Y-100685241D01*
X165733320Y-100920273D01*
X165625147Y-101181426D01*
X165570000Y-101458665D01*
X165570000Y-101741335D01*
X165625147Y-102018574D01*
X165733320Y-102279727D01*
X165890363Y-102514759D01*
X166090241Y-102714637D01*
X166325273Y-102871680D01*
X166335865Y-102876067D01*
X166149869Y-102987615D01*
X165941481Y-103176586D01*
X165773963Y-103402580D01*
X165653754Y-103656913D01*
X165613096Y-103790961D01*
X165735085Y-104013000D01*
X166878000Y-104013000D01*
X166878000Y-103993000D01*
X167132000Y-103993000D01*
X167132000Y-104013000D01*
X168274915Y-104013000D01*
X168396904Y-103790961D01*
X168356246Y-103656913D01*
X168236037Y-103402580D01*
X168068519Y-103176586D01*
X167860131Y-102987615D01*
X167674135Y-102876067D01*
X167684727Y-102871680D01*
X167919759Y-102714637D01*
X168119637Y-102514759D01*
X168136849Y-102489000D01*
X170771340Y-102489000D01*
X170815000Y-102493300D01*
X170858660Y-102489000D01*
X170858667Y-102489000D01*
X170989274Y-102476136D01*
X171156851Y-102425303D01*
X171311291Y-102342753D01*
X171446659Y-102231659D01*
X171474499Y-102197736D01*
X172350345Y-101321890D01*
X177628524Y-101321890D01*
X177673175Y-101469099D01*
X177798359Y-101731920D01*
X177972412Y-101965269D01*
X178188645Y-102160178D01*
X178438748Y-102309157D01*
X178713109Y-102406481D01*
X178943000Y-102285814D01*
X178943000Y-101092000D01*
X179197000Y-101092000D01*
X179197000Y-102285814D01*
X179426891Y-102406481D01*
X179701252Y-102309157D01*
X179951355Y-102160178D01*
X180167588Y-101965269D01*
X180341641Y-101731920D01*
X180466825Y-101469099D01*
X180511476Y-101321890D01*
X180390155Y-101092000D01*
X179197000Y-101092000D01*
X178943000Y-101092000D01*
X177749845Y-101092000D01*
X177628524Y-101321890D01*
X172350345Y-101321890D01*
X176898236Y-96774000D01*
X177878017Y-96774000D01*
X177916525Y-96831632D01*
X178123368Y-97038475D01*
X178297760Y-97155000D01*
X178123368Y-97271525D01*
X177916525Y-97478368D01*
X177754010Y-97721589D01*
X177642068Y-97991842D01*
X177585000Y-98278740D01*
X177585000Y-98571260D01*
X177642068Y-98858158D01*
X177754010Y-99128411D01*
X177916525Y-99371632D01*
X178123368Y-99578475D01*
X178305534Y-99700195D01*
X178188645Y-99769822D01*
X177972412Y-99964731D01*
X177798359Y-100198080D01*
X177673175Y-100460901D01*
X177628524Y-100608110D01*
X177749845Y-100838000D01*
X178943000Y-100838000D01*
X178943000Y-100818000D01*
X179197000Y-100818000D01*
X179197000Y-100838000D01*
X180390155Y-100838000D01*
X180511476Y-100608110D01*
X180466825Y-100460901D01*
X180341641Y-100198080D01*
X180167588Y-99964731D01*
X179951355Y-99769822D01*
X179834466Y-99700195D01*
X180016632Y-99578475D01*
X180223475Y-99371632D01*
X180385990Y-99128411D01*
X180497932Y-98858158D01*
X180555000Y-98571260D01*
X180555000Y-98278740D01*
X180497932Y-97991842D01*
X180385990Y-97721589D01*
X180223475Y-97478368D01*
X180016632Y-97271525D01*
X179842240Y-97155000D01*
X180016632Y-97038475D01*
X180223475Y-96831632D01*
X180385990Y-96588411D01*
X180497932Y-96318158D01*
X180555000Y-96031260D01*
X180555000Y-95738740D01*
X180497932Y-95451842D01*
X180385990Y-95181589D01*
X180223475Y-94938368D01*
X180016632Y-94731525D01*
X179842240Y-94615000D01*
X180016632Y-94498475D01*
X180223475Y-94291632D01*
X180385990Y-94048411D01*
X180497932Y-93778158D01*
X180555000Y-93491260D01*
X180555000Y-93198740D01*
X180497932Y-92911842D01*
X180385990Y-92641589D01*
X180223475Y-92398368D01*
X180016632Y-92191525D01*
X179842240Y-92075000D01*
X180016632Y-91958475D01*
X180223475Y-91751632D01*
X180385990Y-91508411D01*
X180497932Y-91238158D01*
X180555000Y-90951260D01*
X180555000Y-90658740D01*
X180497932Y-90371842D01*
X180385990Y-90101589D01*
X180223475Y-89858368D01*
X180016632Y-89651525D01*
X179842240Y-89535000D01*
X180016632Y-89418475D01*
X180223475Y-89211632D01*
X180385990Y-88968411D01*
X180497932Y-88698158D01*
X180555000Y-88411260D01*
X180555000Y-88118740D01*
X180497932Y-87831842D01*
X180385990Y-87561589D01*
X180223475Y-87318368D01*
X180091620Y-87186513D01*
X180164180Y-87164502D01*
X180274494Y-87105537D01*
X180371185Y-87026185D01*
X180450537Y-86929494D01*
X180509502Y-86819180D01*
X180545812Y-86699482D01*
X180558072Y-86575000D01*
X180558072Y-84875000D01*
X180545812Y-84750518D01*
X180509502Y-84630820D01*
X180450537Y-84520506D01*
X180371185Y-84423815D01*
X180274494Y-84344463D01*
X180164180Y-84285498D01*
X180044482Y-84249188D01*
X179926114Y-84237530D01*
X179926114Y-74504788D01*
X179931029Y-74454886D01*
X179911412Y-74255715D01*
X179853316Y-74064198D01*
X179811260Y-73985518D01*
X179758974Y-73887696D01*
X179632010Y-73732990D01*
X179593247Y-73701178D01*
X178528072Y-72636004D01*
X178528072Y-72285000D01*
X178511008Y-72111746D01*
X178460472Y-71945150D01*
X178378405Y-71791614D01*
X178267962Y-71657038D01*
X178133386Y-71546595D01*
X177979850Y-71464528D01*
X177813254Y-71413992D01*
X177640000Y-71396928D01*
X177376269Y-71396928D01*
X176656212Y-70676872D01*
X176624396Y-70638104D01*
X176469690Y-70511140D01*
X176293187Y-70416798D01*
X176101671Y-70358702D01*
X175952402Y-70344000D01*
X175902500Y-70339085D01*
X175852598Y-70344000D01*
X174907839Y-70344000D01*
X174860537Y-70255506D01*
X174781185Y-70158815D01*
X174684494Y-70079463D01*
X174574180Y-70020498D01*
X174454482Y-69984188D01*
X174330000Y-69971928D01*
X172330000Y-69971928D01*
X172205518Y-69984188D01*
X172085820Y-70020498D01*
X171975506Y-70079463D01*
X171878815Y-70158815D01*
X171799463Y-70255506D01*
X171740498Y-70365820D01*
X171704188Y-70485518D01*
X171691928Y-70610000D01*
X171691928Y-72110000D01*
X171704188Y-72234482D01*
X171740498Y-72354180D01*
X171799463Y-72464494D01*
X171836809Y-72510000D01*
X171799463Y-72555506D01*
X171752161Y-72644000D01*
X168668072Y-72644000D01*
X168668072Y-71760000D01*
X168655812Y-71635518D01*
X168619502Y-71515820D01*
X168560537Y-71405506D01*
X168481185Y-71308815D01*
X168384494Y-71229463D01*
X168274180Y-71170498D01*
X168154482Y-71134188D01*
X168030000Y-71121928D01*
X166030000Y-71121928D01*
X165905518Y-71134188D01*
X165785820Y-71170498D01*
X165675506Y-71229463D01*
X165578815Y-71308815D01*
X165499463Y-71405506D01*
X165440498Y-71515820D01*
X165404188Y-71635518D01*
X165391928Y-71760000D01*
X165391928Y-75560000D01*
X165404188Y-75684482D01*
X165440498Y-75804180D01*
X165499463Y-75914494D01*
X165578815Y-76011185D01*
X165675506Y-76090537D01*
X165785820Y-76149502D01*
X165905518Y-76185812D01*
X166014000Y-76196496D01*
X166014001Y-80148953D01*
X166011928Y-80170000D01*
X166011928Y-80408635D01*
X166009085Y-80437500D01*
X166011928Y-80466365D01*
X166011928Y-81120000D01*
X166028992Y-81293254D01*
X166079528Y-81459850D01*
X166161595Y-81613386D01*
X166221500Y-81686381D01*
X166221501Y-84139660D01*
X165853712Y-83771872D01*
X165821896Y-83733104D01*
X165667190Y-83606140D01*
X165490687Y-83511798D01*
X165299171Y-83453702D01*
X165149902Y-83439000D01*
X165100000Y-83434085D01*
X165050098Y-83439000D01*
X163957000Y-83439000D01*
X163957000Y-64795000D01*
X180950000Y-64795000D01*
X180950001Y-104742572D01*
%TA.AperFunction,Conductor*%
D21*
G36*
X180950001Y-104742572D02*
G01*
X180950000Y-104742582D01*
X180950001Y-111100000D01*
X162687000Y-111100000D01*
X162687000Y-104489039D01*
X165613096Y-104489039D01*
X165653754Y-104623087D01*
X165773963Y-104877420D01*
X165941481Y-105103414D01*
X166149869Y-105292385D01*
X166391119Y-105437070D01*
X166655960Y-105531909D01*
X166878000Y-105410624D01*
X166878000Y-104267000D01*
X167132000Y-104267000D01*
X167132000Y-105410624D01*
X167354040Y-105531909D01*
X167618881Y-105437070D01*
X167860131Y-105292385D01*
X168068519Y-105103414D01*
X168236037Y-104877420D01*
X168356246Y-104623087D01*
X168369467Y-104579495D01*
X172640000Y-104579495D01*
X172640000Y-104970505D01*
X172716282Y-105354003D01*
X172865915Y-105715250D01*
X173083149Y-106040364D01*
X173359636Y-106316851D01*
X173684750Y-106534085D01*
X174045997Y-106683718D01*
X174429495Y-106760000D01*
X174820505Y-106760000D01*
X175204003Y-106683718D01*
X175565250Y-106534085D01*
X175890364Y-106316851D01*
X176166851Y-106040364D01*
X176384085Y-105715250D01*
X176533718Y-105354003D01*
X176610000Y-104970505D01*
X176610000Y-104579495D01*
X176533718Y-104195997D01*
X176384085Y-103834750D01*
X176166851Y-103509636D01*
X175890364Y-103233149D01*
X175565250Y-103015915D01*
X175204003Y-102866282D01*
X174820505Y-102790000D01*
X174429495Y-102790000D01*
X174045997Y-102866282D01*
X173684750Y-103015915D01*
X173359636Y-103233149D01*
X173083149Y-103509636D01*
X172865915Y-103834750D01*
X172716282Y-104195997D01*
X172640000Y-104579495D01*
X168369467Y-104579495D01*
X168396904Y-104489039D01*
X168274915Y-104267000D01*
X167132000Y-104267000D01*
X166878000Y-104267000D01*
X165735085Y-104267000D01*
X165613096Y-104489039D01*
X162687000Y-104489039D01*
X162687000Y-85471000D01*
X164679160Y-85471000D01*
X165570000Y-86361841D01*
X165570000Y-86501335D01*
X165625147Y-86778574D01*
X165733320Y-87039727D01*
X165890363Y-87274759D01*
X165989000Y-87373396D01*
X165989001Y-87886603D01*
X165890363Y-87985241D01*
X165733320Y-88220273D01*
X165625147Y-88481426D01*
X165570000Y-88758665D01*
X165570000Y-89041335D01*
X165625147Y-89318574D01*
X165733320Y-89579727D01*
X165890363Y-89814759D01*
X166090241Y-90014637D01*
X166325273Y-90171680D01*
X166335865Y-90176067D01*
X166149869Y-90287615D01*
X165941481Y-90476586D01*
X165773963Y-90702580D01*
X165653754Y-90956913D01*
X165613096Y-91090961D01*
X165735085Y-91313000D01*
X166878000Y-91313000D01*
X166878000Y-91293000D01*
X167132000Y-91293000D01*
X167132000Y-91313000D01*
X168274915Y-91313000D01*
X168396904Y-91090961D01*
X168356246Y-90956913D01*
X168236037Y-90702580D01*
X168068519Y-90476586D01*
X167860131Y-90287615D01*
X167674135Y-90176067D01*
X167684727Y-90171680D01*
X167919759Y-90014637D01*
X168018396Y-89916000D01*
X169576267Y-89916000D01*
X169601595Y-89963386D01*
X169712038Y-90097962D01*
X169718594Y-90103342D01*
X169638815Y-90168815D01*
X169559463Y-90265506D01*
X169500498Y-90375820D01*
X169464188Y-90495518D01*
X169451928Y-90620000D01*
X169455000Y-90921750D01*
X169613750Y-91080500D01*
X170688000Y-91080500D01*
X170688000Y-91060500D01*
X170942000Y-91060500D01*
X170942000Y-91080500D01*
X172016250Y-91080500D01*
X172175000Y-90921750D01*
X172178072Y-90620000D01*
X172165812Y-90495518D01*
X172129502Y-90375820D01*
X172070537Y-90265506D01*
X171991185Y-90168815D01*
X171911406Y-90103342D01*
X171917962Y-90097962D01*
X172028405Y-89963386D01*
X172110472Y-89809850D01*
X172161008Y-89643254D01*
X172178072Y-89470000D01*
X172178072Y-88795000D01*
X172161008Y-88621746D01*
X172110472Y-88455150D01*
X172028405Y-88301614D01*
X171917962Y-88167038D01*
X171783386Y-88056595D01*
X171629850Y-87974528D01*
X171463254Y-87923992D01*
X171290000Y-87906928D01*
X170808788Y-87906928D01*
X170781671Y-87898702D01*
X170632402Y-87884000D01*
X170582500Y-87879085D01*
X170532598Y-87884000D01*
X168021000Y-87884000D01*
X168021000Y-87373396D01*
X168119637Y-87274759D01*
X168276680Y-87039727D01*
X168384853Y-86778574D01*
X168440000Y-86501335D01*
X168440000Y-86218665D01*
X168384853Y-85941426D01*
X168276680Y-85680273D01*
X168253500Y-85645582D01*
X168253500Y-81796431D01*
X168273815Y-81821185D01*
X168370506Y-81900537D01*
X168480820Y-81959502D01*
X168600518Y-81995812D01*
X168725000Y-82008072D01*
X169026750Y-82005000D01*
X169185500Y-81846250D01*
X169185500Y-80772000D01*
X169439500Y-80772000D01*
X169439500Y-81846250D01*
X169598250Y-82005000D01*
X169900000Y-82008072D01*
X170024482Y-81995812D01*
X170144180Y-81959502D01*
X170254494Y-81900537D01*
X170351185Y-81821185D01*
X170430537Y-81724494D01*
X170489502Y-81614180D01*
X170525812Y-81494482D01*
X170538072Y-81370000D01*
X170535000Y-80930750D01*
X170376250Y-80772000D01*
X169439500Y-80772000D01*
X169185500Y-80772000D01*
X169165500Y-80772000D01*
X169165500Y-80518000D01*
X169185500Y-80518000D01*
X169185500Y-79443750D01*
X169439500Y-79443750D01*
X169439500Y-80518000D01*
X170376250Y-80518000D01*
X170535000Y-80359250D01*
X170538072Y-79920000D01*
X170525812Y-79795518D01*
X170489502Y-79675820D01*
X170430537Y-79565506D01*
X170351185Y-79468815D01*
X170254494Y-79389463D01*
X170144180Y-79330498D01*
X170024482Y-79294188D01*
X169900000Y-79281928D01*
X169598250Y-79285000D01*
X169439500Y-79443750D01*
X169185500Y-79443750D01*
X169026750Y-79285000D01*
X168725000Y-79281928D01*
X168600518Y-79294188D01*
X168480820Y-79330498D01*
X168370506Y-79389463D01*
X168273815Y-79468815D01*
X168208342Y-79548594D01*
X168202962Y-79542038D01*
X168068386Y-79431595D01*
X168046000Y-79419629D01*
X168046000Y-76710000D01*
X171691928Y-76710000D01*
X171704188Y-76834482D01*
X171740498Y-76954180D01*
X171799463Y-77064494D01*
X171878815Y-77161185D01*
X171975506Y-77240537D01*
X172085820Y-77299502D01*
X172205518Y-77335812D01*
X172330000Y-77348072D01*
X173044250Y-77345000D01*
X173203000Y-77186250D01*
X173203000Y-76087000D01*
X173457000Y-76087000D01*
X173457000Y-77186250D01*
X173615750Y-77345000D01*
X174330000Y-77348072D01*
X174454482Y-77335812D01*
X174574180Y-77299502D01*
X174684494Y-77240537D01*
X174781185Y-77161185D01*
X174860537Y-77064494D01*
X174919502Y-76954180D01*
X174955812Y-76834482D01*
X174968072Y-76710000D01*
X174965000Y-76245750D01*
X174806250Y-76087000D01*
X173457000Y-76087000D01*
X173203000Y-76087000D01*
X171853750Y-76087000D01*
X171695000Y-76245750D01*
X171691928Y-76710000D01*
X168046000Y-76710000D01*
X168046000Y-76196496D01*
X168154482Y-76185812D01*
X168274180Y-76149502D01*
X168384494Y-76090537D01*
X168481185Y-76011185D01*
X168560537Y-75914494D01*
X168619502Y-75804180D01*
X168655812Y-75684482D01*
X168668072Y-75560000D01*
X168668072Y-74676000D01*
X171752161Y-74676000D01*
X171799463Y-74764494D01*
X171836809Y-74810000D01*
X171799463Y-74855506D01*
X171740498Y-74965820D01*
X171704188Y-75085518D01*
X171691928Y-75210000D01*
X171695000Y-75674250D01*
X171853750Y-75833000D01*
X173203000Y-75833000D01*
X173203000Y-75813000D01*
X173457000Y-75813000D01*
X173457000Y-75833000D01*
X174806250Y-75833000D01*
X174965000Y-75674250D01*
X174967575Y-75285000D01*
X175801928Y-75285000D01*
X175814188Y-75409482D01*
X175850498Y-75529180D01*
X175909463Y-75639494D01*
X175988815Y-75736185D01*
X176085506Y-75815537D01*
X176195820Y-75874502D01*
X176315518Y-75910812D01*
X176440000Y-75923072D01*
X176879250Y-75920000D01*
X177038000Y-75761250D01*
X177038000Y-74824500D01*
X175963750Y-74824500D01*
X175805000Y-74983250D01*
X175801928Y-75285000D01*
X174967575Y-75285000D01*
X174968072Y-75210000D01*
X174955812Y-75085518D01*
X174919502Y-74965820D01*
X174860537Y-74855506D01*
X174823191Y-74810000D01*
X174860537Y-74764494D01*
X174919502Y-74654180D01*
X174955812Y-74534482D01*
X174968072Y-74410000D01*
X174968072Y-72910000D01*
X174955812Y-72785518D01*
X174919502Y-72665820D01*
X174860537Y-72555506D01*
X174823191Y-72510000D01*
X174860537Y-72464494D01*
X174907839Y-72376000D01*
X175481660Y-72376000D01*
X175801928Y-72696268D01*
X175801928Y-72960000D01*
X175818992Y-73133254D01*
X175869528Y-73299850D01*
X175951595Y-73453386D01*
X176062038Y-73587962D01*
X176068594Y-73593342D01*
X175988815Y-73658815D01*
X175909463Y-73755506D01*
X175850498Y-73865820D01*
X175814188Y-73985518D01*
X175801928Y-74110000D01*
X175805000Y-74411750D01*
X175963750Y-74570500D01*
X177038000Y-74570500D01*
X177038000Y-74550500D01*
X177292000Y-74550500D01*
X177292000Y-74570500D01*
X177312000Y-74570500D01*
X177312000Y-74824500D01*
X177292000Y-74824500D01*
X177292000Y-75761250D01*
X177450750Y-75920000D01*
X177890000Y-75923072D01*
X177894115Y-75922667D01*
X177894114Y-84329171D01*
X177865506Y-84344463D01*
X177768815Y-84423815D01*
X177689463Y-84520506D01*
X177630498Y-84630820D01*
X177594188Y-84750518D01*
X177581928Y-84875000D01*
X177581928Y-86575000D01*
X177594188Y-86699482D01*
X177630498Y-86819180D01*
X177689463Y-86929494D01*
X177768815Y-87026185D01*
X177865506Y-87105537D01*
X177975820Y-87164502D01*
X178048380Y-87186513D01*
X177916525Y-87318368D01*
X177878017Y-87376000D01*
X176573668Y-87376000D01*
X176530000Y-87371699D01*
X176355725Y-87388864D01*
X176304892Y-87404284D01*
X176188149Y-87439697D01*
X176033709Y-87522247D01*
X175898341Y-87633341D01*
X175870506Y-87667258D01*
X172109757Y-91428007D01*
X172016250Y-91334500D01*
X170942000Y-91334500D01*
X170942000Y-92271250D01*
X171100750Y-92430000D01*
X171107716Y-92430049D01*
X170446765Y-93091000D01*
X168136849Y-93091000D01*
X168119637Y-93065241D01*
X167919759Y-92865363D01*
X167684727Y-92708320D01*
X167674135Y-92703933D01*
X167860131Y-92592385D01*
X168068519Y-92403414D01*
X168236037Y-92177420D01*
X168356246Y-91923087D01*
X168395095Y-91795000D01*
X169451928Y-91795000D01*
X169464188Y-91919482D01*
X169500498Y-92039180D01*
X169559463Y-92149494D01*
X169638815Y-92246185D01*
X169735506Y-92325537D01*
X169845820Y-92384502D01*
X169965518Y-92420812D01*
X170090000Y-92433072D01*
X170529250Y-92430000D01*
X170688000Y-92271250D01*
X170688000Y-91334500D01*
X169613750Y-91334500D01*
X169455000Y-91493250D01*
X169451928Y-91795000D01*
X168395095Y-91795000D01*
X168396904Y-91789039D01*
X168274915Y-91567000D01*
X167132000Y-91567000D01*
X167132000Y-91587000D01*
X166878000Y-91587000D01*
X166878000Y-91567000D01*
X165735085Y-91567000D01*
X165613096Y-91789039D01*
X165653754Y-91923087D01*
X165773963Y-92177420D01*
X165941481Y-92403414D01*
X166149869Y-92592385D01*
X166335865Y-92703933D01*
X166325273Y-92708320D01*
X166090241Y-92865363D01*
X165890363Y-93065241D01*
X165733320Y-93300273D01*
X165625147Y-93561426D01*
X165570000Y-93838665D01*
X165570000Y-94121335D01*
X165625147Y-94398574D01*
X165733320Y-94659727D01*
X165890363Y-94894759D01*
X166090241Y-95094637D01*
X166322759Y-95250000D01*
X166090241Y-95405363D01*
X165890363Y-95605241D01*
X165733320Y-95840273D01*
X165625147Y-96101426D01*
X165570000Y-96378665D01*
X165570000Y-96661335D01*
X165625147Y-96938574D01*
X165733320Y-97199727D01*
X165890363Y-97434759D01*
X166090241Y-97634637D01*
X166322759Y-97790000D01*
X166090241Y-97945363D01*
X165890363Y-98145241D01*
X165733320Y-98380273D01*
X165625147Y-98641426D01*
X165570000Y-98918665D01*
X165570000Y-99201335D01*
X165625147Y-99478574D01*
X165733320Y-99739727D01*
X165890363Y-99974759D01*
X166090241Y-100174637D01*
X166322759Y-100330000D01*
X166090241Y-100485363D01*
X165890363Y-100685241D01*
X165733320Y-100920273D01*
X165625147Y-101181426D01*
X165570000Y-101458665D01*
X165570000Y-101741335D01*
X165625147Y-102018574D01*
X165733320Y-102279727D01*
X165890363Y-102514759D01*
X166090241Y-102714637D01*
X166325273Y-102871680D01*
X166335865Y-102876067D01*
X166149869Y-102987615D01*
X165941481Y-103176586D01*
X165773963Y-103402580D01*
X165653754Y-103656913D01*
X165613096Y-103790961D01*
X165735085Y-104013000D01*
X166878000Y-104013000D01*
X166878000Y-103993000D01*
X167132000Y-103993000D01*
X167132000Y-104013000D01*
X168274915Y-104013000D01*
X168396904Y-103790961D01*
X168356246Y-103656913D01*
X168236037Y-103402580D01*
X168068519Y-103176586D01*
X167860131Y-102987615D01*
X167674135Y-102876067D01*
X167684727Y-102871680D01*
X167919759Y-102714637D01*
X168119637Y-102514759D01*
X168136849Y-102489000D01*
X170771340Y-102489000D01*
X170815000Y-102493300D01*
X170858660Y-102489000D01*
X170858667Y-102489000D01*
X170989274Y-102476136D01*
X171156851Y-102425303D01*
X171311291Y-102342753D01*
X171446659Y-102231659D01*
X171474499Y-102197736D01*
X172350345Y-101321890D01*
X177628524Y-101321890D01*
X177673175Y-101469099D01*
X177798359Y-101731920D01*
X177972412Y-101965269D01*
X178188645Y-102160178D01*
X178438748Y-102309157D01*
X178713109Y-102406481D01*
X178943000Y-102285814D01*
X178943000Y-101092000D01*
X179197000Y-101092000D01*
X179197000Y-102285814D01*
X179426891Y-102406481D01*
X179701252Y-102309157D01*
X179951355Y-102160178D01*
X180167588Y-101965269D01*
X180341641Y-101731920D01*
X180466825Y-101469099D01*
X180511476Y-101321890D01*
X180390155Y-101092000D01*
X179197000Y-101092000D01*
X178943000Y-101092000D01*
X177749845Y-101092000D01*
X177628524Y-101321890D01*
X172350345Y-101321890D01*
X176898236Y-96774000D01*
X177878017Y-96774000D01*
X177916525Y-96831632D01*
X178123368Y-97038475D01*
X178297760Y-97155000D01*
X178123368Y-97271525D01*
X177916525Y-97478368D01*
X177754010Y-97721589D01*
X177642068Y-97991842D01*
X177585000Y-98278740D01*
X177585000Y-98571260D01*
X177642068Y-98858158D01*
X177754010Y-99128411D01*
X177916525Y-99371632D01*
X178123368Y-99578475D01*
X178305534Y-99700195D01*
X178188645Y-99769822D01*
X177972412Y-99964731D01*
X177798359Y-100198080D01*
X177673175Y-100460901D01*
X177628524Y-100608110D01*
X177749845Y-100838000D01*
X178943000Y-100838000D01*
X178943000Y-100818000D01*
X179197000Y-100818000D01*
X179197000Y-100838000D01*
X180390155Y-100838000D01*
X180511476Y-100608110D01*
X180466825Y-100460901D01*
X180341641Y-100198080D01*
X180167588Y-99964731D01*
X179951355Y-99769822D01*
X179834466Y-99700195D01*
X180016632Y-99578475D01*
X180223475Y-99371632D01*
X180385990Y-99128411D01*
X180497932Y-98858158D01*
X180555000Y-98571260D01*
X180555000Y-98278740D01*
X180497932Y-97991842D01*
X180385990Y-97721589D01*
X180223475Y-97478368D01*
X180016632Y-97271525D01*
X179842240Y-97155000D01*
X180016632Y-97038475D01*
X180223475Y-96831632D01*
X180385990Y-96588411D01*
X180497932Y-96318158D01*
X180555000Y-96031260D01*
X180555000Y-95738740D01*
X180497932Y-95451842D01*
X180385990Y-95181589D01*
X180223475Y-94938368D01*
X180016632Y-94731525D01*
X179842240Y-94615000D01*
X180016632Y-94498475D01*
X180223475Y-94291632D01*
X180385990Y-94048411D01*
X180497932Y-93778158D01*
X180555000Y-93491260D01*
X180555000Y-93198740D01*
X180497932Y-92911842D01*
X180385990Y-92641589D01*
X180223475Y-92398368D01*
X180016632Y-92191525D01*
X179842240Y-92075000D01*
X180016632Y-91958475D01*
X180223475Y-91751632D01*
X180385990Y-91508411D01*
X180497932Y-91238158D01*
X180555000Y-90951260D01*
X180555000Y-90658740D01*
X180497932Y-90371842D01*
X180385990Y-90101589D01*
X180223475Y-89858368D01*
X180016632Y-89651525D01*
X179842240Y-89535000D01*
X180016632Y-89418475D01*
X180223475Y-89211632D01*
X180385990Y-88968411D01*
X180497932Y-88698158D01*
X180555000Y-88411260D01*
X180555000Y-88118740D01*
X180497932Y-87831842D01*
X180385990Y-87561589D01*
X180223475Y-87318368D01*
X180091620Y-87186513D01*
X180164180Y-87164502D01*
X180274494Y-87105537D01*
X180371185Y-87026185D01*
X180450537Y-86929494D01*
X180509502Y-86819180D01*
X180545812Y-86699482D01*
X180558072Y-86575000D01*
X180558072Y-84875000D01*
X180545812Y-84750518D01*
X180509502Y-84630820D01*
X180450537Y-84520506D01*
X180371185Y-84423815D01*
X180274494Y-84344463D01*
X180164180Y-84285498D01*
X180044482Y-84249188D01*
X179926114Y-84237530D01*
X179926114Y-74504788D01*
X179931029Y-74454886D01*
X179911412Y-74255715D01*
X179853316Y-74064198D01*
X179811260Y-73985518D01*
X179758974Y-73887696D01*
X179632010Y-73732990D01*
X179593247Y-73701178D01*
X178528072Y-72636004D01*
X178528072Y-72285000D01*
X178511008Y-72111746D01*
X178460472Y-71945150D01*
X178378405Y-71791614D01*
X178267962Y-71657038D01*
X178133386Y-71546595D01*
X177979850Y-71464528D01*
X177813254Y-71413992D01*
X177640000Y-71396928D01*
X177376269Y-71396928D01*
X176656212Y-70676872D01*
X176624396Y-70638104D01*
X176469690Y-70511140D01*
X176293187Y-70416798D01*
X176101671Y-70358702D01*
X175952402Y-70344000D01*
X175902500Y-70339085D01*
X175852598Y-70344000D01*
X174907839Y-70344000D01*
X174860537Y-70255506D01*
X174781185Y-70158815D01*
X174684494Y-70079463D01*
X174574180Y-70020498D01*
X174454482Y-69984188D01*
X174330000Y-69971928D01*
X172330000Y-69971928D01*
X172205518Y-69984188D01*
X172085820Y-70020498D01*
X171975506Y-70079463D01*
X171878815Y-70158815D01*
X171799463Y-70255506D01*
X171740498Y-70365820D01*
X171704188Y-70485518D01*
X171691928Y-70610000D01*
X171691928Y-72110000D01*
X171704188Y-72234482D01*
X171740498Y-72354180D01*
X171799463Y-72464494D01*
X171836809Y-72510000D01*
X171799463Y-72555506D01*
X171752161Y-72644000D01*
X168668072Y-72644000D01*
X168668072Y-71760000D01*
X168655812Y-71635518D01*
X168619502Y-71515820D01*
X168560537Y-71405506D01*
X168481185Y-71308815D01*
X168384494Y-71229463D01*
X168274180Y-71170498D01*
X168154482Y-71134188D01*
X168030000Y-71121928D01*
X166030000Y-71121928D01*
X165905518Y-71134188D01*
X165785820Y-71170498D01*
X165675506Y-71229463D01*
X165578815Y-71308815D01*
X165499463Y-71405506D01*
X165440498Y-71515820D01*
X165404188Y-71635518D01*
X165391928Y-71760000D01*
X165391928Y-75560000D01*
X165404188Y-75684482D01*
X165440498Y-75804180D01*
X165499463Y-75914494D01*
X165578815Y-76011185D01*
X165675506Y-76090537D01*
X165785820Y-76149502D01*
X165905518Y-76185812D01*
X166014000Y-76196496D01*
X166014001Y-80148953D01*
X166011928Y-80170000D01*
X166011928Y-80408635D01*
X166009085Y-80437500D01*
X166011928Y-80466365D01*
X166011928Y-81120000D01*
X166028992Y-81293254D01*
X166079528Y-81459850D01*
X166161595Y-81613386D01*
X166221500Y-81686381D01*
X166221501Y-84139660D01*
X165853712Y-83771872D01*
X165821896Y-83733104D01*
X165667190Y-83606140D01*
X165490687Y-83511798D01*
X165299171Y-83453702D01*
X165149902Y-83439000D01*
X165100000Y-83434085D01*
X165050098Y-83439000D01*
X163957000Y-83439000D01*
X163957000Y-64795000D01*
X180950000Y-64795000D01*
X180950001Y-104742572D01*
G37*
%TD.AperFunction*%
%TD*%
D20*
%TO.N,GNDA*%
X136374146Y-67252162D02*
X136224679Y-67531795D01*
X136103010Y-67932883D01*
X136061928Y-68350000D01*
X136061928Y-71350000D01*
X136103010Y-71767117D01*
X136224679Y-72168205D01*
X136374146Y-72447838D01*
X136374146Y-73533000D01*
X129008146Y-73533000D01*
X129008146Y-66167000D01*
X136374146Y-66167000D01*
X136374146Y-67252162D01*
%TA.AperFunction,Conductor*%
D21*
G36*
X136374146Y-67252162D02*
G01*
X136224679Y-67531795D01*
X136103010Y-67932883D01*
X136061928Y-68350000D01*
X136061928Y-71350000D01*
X136103010Y-71767117D01*
X136224679Y-72168205D01*
X136374146Y-72447838D01*
X136374146Y-73533000D01*
X129008146Y-73533000D01*
X129008146Y-66167000D01*
X136374146Y-66167000D01*
X136374146Y-67252162D01*
G37*
%TD.AperFunction*%
%TD*%
D20*
%TO.N,GNDA*%
X136374146Y-78682162D02*
X136224679Y-78961795D01*
X136103010Y-79362883D01*
X136061928Y-79780000D01*
X136061928Y-82780000D01*
X136103010Y-83197117D01*
X136224679Y-83598205D01*
X136374146Y-83877838D01*
X136374146Y-84963000D01*
X129008146Y-84963000D01*
X129008146Y-77597000D01*
X136374146Y-77597000D01*
X136374146Y-78682162D01*
%TA.AperFunction,Conductor*%
D21*
G36*
X136374146Y-78682162D02*
G01*
X136224679Y-78961795D01*
X136103010Y-79362883D01*
X136061928Y-79780000D01*
X136061928Y-82780000D01*
X136103010Y-83197117D01*
X136224679Y-83598205D01*
X136374146Y-83877838D01*
X136374146Y-84963000D01*
X129008146Y-84963000D01*
X129008146Y-77597000D01*
X136374146Y-77597000D01*
X136374146Y-78682162D01*
G37*
%TD.AperFunction*%
%TD*%
M02*
