%TF.GenerationSoftware,KiCad,Pcbnew,(5.1.9)-1*%
%TF.CreationDate,2021-11-14T11:10:16-05:00*%
%TF.ProjectId,Telem Board,54656c65-6d20-4426-9f61-72642e6b6963,rev?*%
%TF.SameCoordinates,Original*%
%TF.FileFunction,Copper,L2,Bot*%
%TF.FilePolarity,Positive*%
%FSLAX46Y46*%
G04 Gerber Fmt 4.6, Leading zero omitted, Abs format (unit mm)*
G04 Created by KiCad (PCBNEW (5.1.9)-1) date 2021-11-14 11:10:16*
%MOMM*%
%LPD*%
G01*
G04 APERTURE LIST*
%TA.AperFunction,ComponentPad*%
%ADD10C,6.000000*%
%TD*%
%TA.AperFunction,ComponentPad*%
%ADD11O,1.600000X1.600000*%
%TD*%
%TA.AperFunction,ComponentPad*%
%ADD12R,1.600000X1.600000*%
%TD*%
%TA.AperFunction,ComponentPad*%
%ADD13O,1.700000X1.700000*%
%TD*%
%TA.AperFunction,ComponentPad*%
%ADD14R,1.700000X1.700000*%
%TD*%
%TA.AperFunction,ViaPad*%
%ADD15C,0.800000*%
%TD*%
%TA.AperFunction,Conductor*%
%ADD16C,0.762000*%
%TD*%
%TA.AperFunction,Conductor*%
%ADD17C,0.254000*%
%TD*%
%TA.AperFunction,Conductor*%
%ADD18C,0.100000*%
%TD*%
%TA.AperFunction,NonConductor*%
%ADD19C,0.254000*%
%TD*%
%TA.AperFunction,NonConductor*%
%ADD20C,0.100000*%
%TD*%
G04 APERTURE END LIST*
%TO.P,J7,1*%
%TO.N,Net-(J7-Pad1)*%
%TA.AperFunction,ComponentPad*%
G36*
G01*
X142700000Y-79780000D02*
X142700000Y-82780000D01*
G75*
G02*
X141200000Y-84280000I-1500000J0D01*
G01*
X138200000Y-84280000D01*
G75*
G02*
X136700000Y-82780000I0J1500000D01*
G01*
X136700000Y-79780000D01*
G75*
G02*
X138200000Y-78280000I1500000J0D01*
G01*
X141200000Y-78280000D01*
G75*
G02*
X142700000Y-79780000I0J-1500000D01*
G01*
G37*
%TD.AperFunction*%
D10*
%TO.P,J7,2*%
%TO.N,GNDA*%
X132500000Y-81280000D03*
%TD*%
D11*
%TO.P,U2,16*%
%TO.N,+3V3*%
X167005000Y-86360000D03*
%TO.P,U2,8*%
%TO.N,N/C*%
X159385000Y-104140000D03*
%TO.P,U2,15*%
%TO.N,+3V3*%
X167005000Y-88900000D03*
%TO.P,U2,7*%
%TO.N,N/C*%
X159385000Y-101600000D03*
%TO.P,U2,14*%
%TO.N,GNDA*%
X167005000Y-91440000D03*
%TO.P,U2,6*%
%TO.N,/CH5*%
X159385000Y-99060000D03*
%TO.P,U2,13*%
%TO.N,/SPI_SCK*%
X167005000Y-93980000D03*
%TO.P,U2,5*%
%TO.N,/CH4*%
X159385000Y-96520000D03*
%TO.P,U2,12*%
%TO.N,/SPI_MISO*%
X167005000Y-96520000D03*
%TO.P,U2,4*%
%TO.N,/CH3*%
X159385000Y-93980000D03*
%TO.P,U2,11*%
%TO.N,/SPI_MOSI*%
X167005000Y-99060000D03*
%TO.P,U2,3*%
%TO.N,/CH2*%
X159385000Y-91440000D03*
%TO.P,U2,10*%
%TO.N,/ADC_CS*%
X167005000Y-101600000D03*
%TO.P,U2,2*%
%TO.N,/CH1*%
X159385000Y-88900000D03*
%TO.P,U2,9*%
%TO.N,GNDA*%
X167005000Y-104140000D03*
D12*
%TO.P,U2,1*%
%TO.N,/CH0*%
X159385000Y-86360000D03*
%TD*%
%TO.P,J6,1*%
%TO.N,Net-(J6-Pad1)*%
%TA.AperFunction,ComponentPad*%
G36*
G01*
X142700000Y-68350000D02*
X142700000Y-71350000D01*
G75*
G02*
X141200000Y-72850000I-1500000J0D01*
G01*
X138200000Y-72850000D01*
G75*
G02*
X136700000Y-71350000I0J1500000D01*
G01*
X136700000Y-68350000D01*
G75*
G02*
X138200000Y-66850000I1500000J0D01*
G01*
X141200000Y-66850000D01*
G75*
G02*
X142700000Y-68350000I0J-1500000D01*
G01*
G37*
%TD.AperFunction*%
D10*
%TO.P,J6,2*%
%TO.N,GNDA*%
X132500000Y-69850000D03*
%TD*%
D13*
%TO.P,J5,2*%
%TO.N,GNDA*%
X141605000Y-108585000D03*
D14*
%TO.P,J5,1*%
%TO.N,/CH5*%
X144145000Y-108585000D03*
%TD*%
D13*
%TO.P,J4,2*%
%TO.N,GNDA*%
X141605000Y-102870000D03*
D14*
%TO.P,J4,1*%
%TO.N,/CH4*%
X144145000Y-102870000D03*
%TD*%
D13*
%TO.P,J3,2*%
%TO.N,GNDA*%
X141605000Y-97155000D03*
D14*
%TO.P,J3,1*%
%TO.N,/CH3*%
X144145000Y-97155000D03*
%TD*%
D13*
%TO.P,J2,2*%
%TO.N,GNDA*%
X141605000Y-91440000D03*
D14*
%TO.P,J2,1*%
%TO.N,/CH2*%
X144145000Y-91440000D03*
%TD*%
D13*
%TO.P,J1,7*%
%TO.N,GNDA*%
X179070000Y-100965000D03*
%TO.P,J1,6*%
%TO.N,N/C*%
X179070000Y-98425000D03*
%TO.P,J1,5*%
%TO.N,/ADC_CS*%
X179070000Y-95885000D03*
%TO.P,J1,4*%
%TO.N,/SPI_MOSI*%
X179070000Y-93345000D03*
%TO.P,J1,3*%
%TO.N,/SPI_MISO*%
X179070000Y-90805000D03*
%TO.P,J1,2*%
%TO.N,/SPI_SCK*%
X179070000Y-88265000D03*
D14*
%TO.P,J1,1*%
%TO.N,+5V*%
X179070000Y-85725000D03*
%TD*%
D15*
%TO.N,GNDA*%
X151765000Y-89535000D03*
X151765000Y-95250000D03*
X151765000Y-100965000D03*
X151765000Y-106680000D03*
%TO.N,+3V3*%
X148005000Y-88315000D03*
X147955000Y-94030000D03*
X148005000Y-99745000D03*
X148005000Y-105460000D03*
X156210000Y-84455000D03*
X161925000Y-84455000D03*
%TD*%
D16*
%TO.N,+3V3*%
X148005000Y-105460000D02*
X148005000Y-88315000D01*
X156210000Y-84455000D02*
X161925000Y-84455000D01*
%TD*%
D17*
%TO.N,GNDA*%
X180950001Y-104742572D02*
X180950000Y-104742582D01*
X180950001Y-111100000D01*
X162687000Y-111100000D01*
X162687000Y-104489039D01*
X165613096Y-104489039D01*
X165653754Y-104623087D01*
X165773963Y-104877420D01*
X165941481Y-105103414D01*
X166149869Y-105292385D01*
X166391119Y-105437070D01*
X166655960Y-105531909D01*
X166878000Y-105410624D01*
X166878000Y-104267000D01*
X167132000Y-104267000D01*
X167132000Y-105410624D01*
X167354040Y-105531909D01*
X167618881Y-105437070D01*
X167860131Y-105292385D01*
X168068519Y-105103414D01*
X168236037Y-104877420D01*
X168356246Y-104623087D01*
X168369467Y-104579495D01*
X172640000Y-104579495D01*
X172640000Y-104970505D01*
X172716282Y-105354003D01*
X172865915Y-105715250D01*
X173083149Y-106040364D01*
X173359636Y-106316851D01*
X173684750Y-106534085D01*
X174045997Y-106683718D01*
X174429495Y-106760000D01*
X174820505Y-106760000D01*
X175204003Y-106683718D01*
X175565250Y-106534085D01*
X175890364Y-106316851D01*
X176166851Y-106040364D01*
X176384085Y-105715250D01*
X176533718Y-105354003D01*
X176610000Y-104970505D01*
X176610000Y-104579495D01*
X176533718Y-104195997D01*
X176384085Y-103834750D01*
X176166851Y-103509636D01*
X175890364Y-103233149D01*
X175565250Y-103015915D01*
X175204003Y-102866282D01*
X174820505Y-102790000D01*
X174429495Y-102790000D01*
X174045997Y-102866282D01*
X173684750Y-103015915D01*
X173359636Y-103233149D01*
X173083149Y-103509636D01*
X172865915Y-103834750D01*
X172716282Y-104195997D01*
X172640000Y-104579495D01*
X168369467Y-104579495D01*
X168396904Y-104489039D01*
X168274915Y-104267000D01*
X167132000Y-104267000D01*
X166878000Y-104267000D01*
X165735085Y-104267000D01*
X165613096Y-104489039D01*
X162687000Y-104489039D01*
X162687000Y-93838665D01*
X165570000Y-93838665D01*
X165570000Y-94121335D01*
X165625147Y-94398574D01*
X165733320Y-94659727D01*
X165890363Y-94894759D01*
X166090241Y-95094637D01*
X166322759Y-95250000D01*
X166090241Y-95405363D01*
X165890363Y-95605241D01*
X165733320Y-95840273D01*
X165625147Y-96101426D01*
X165570000Y-96378665D01*
X165570000Y-96661335D01*
X165625147Y-96938574D01*
X165733320Y-97199727D01*
X165890363Y-97434759D01*
X166090241Y-97634637D01*
X166322759Y-97790000D01*
X166090241Y-97945363D01*
X165890363Y-98145241D01*
X165733320Y-98380273D01*
X165625147Y-98641426D01*
X165570000Y-98918665D01*
X165570000Y-99201335D01*
X165625147Y-99478574D01*
X165733320Y-99739727D01*
X165890363Y-99974759D01*
X166090241Y-100174637D01*
X166322759Y-100330000D01*
X166090241Y-100485363D01*
X165890363Y-100685241D01*
X165733320Y-100920273D01*
X165625147Y-101181426D01*
X165570000Y-101458665D01*
X165570000Y-101741335D01*
X165625147Y-102018574D01*
X165733320Y-102279727D01*
X165890363Y-102514759D01*
X166090241Y-102714637D01*
X166325273Y-102871680D01*
X166335865Y-102876067D01*
X166149869Y-102987615D01*
X165941481Y-103176586D01*
X165773963Y-103402580D01*
X165653754Y-103656913D01*
X165613096Y-103790961D01*
X165735085Y-104013000D01*
X166878000Y-104013000D01*
X166878000Y-103993000D01*
X167132000Y-103993000D01*
X167132000Y-104013000D01*
X168274915Y-104013000D01*
X168396904Y-103790961D01*
X168356246Y-103656913D01*
X168236037Y-103402580D01*
X168068519Y-103176586D01*
X167860131Y-102987615D01*
X167674135Y-102876067D01*
X167684727Y-102871680D01*
X167919759Y-102714637D01*
X168119637Y-102514759D01*
X168276680Y-102279727D01*
X168384853Y-102018574D01*
X168440000Y-101741335D01*
X168440000Y-101458665D01*
X168412794Y-101321890D01*
X177628524Y-101321890D01*
X177673175Y-101469099D01*
X177798359Y-101731920D01*
X177972412Y-101965269D01*
X178188645Y-102160178D01*
X178438748Y-102309157D01*
X178713109Y-102406481D01*
X178943000Y-102285814D01*
X178943000Y-101092000D01*
X179197000Y-101092000D01*
X179197000Y-102285814D01*
X179426891Y-102406481D01*
X179701252Y-102309157D01*
X179951355Y-102160178D01*
X180167588Y-101965269D01*
X180341641Y-101731920D01*
X180466825Y-101469099D01*
X180511476Y-101321890D01*
X180390155Y-101092000D01*
X179197000Y-101092000D01*
X178943000Y-101092000D01*
X177749845Y-101092000D01*
X177628524Y-101321890D01*
X168412794Y-101321890D01*
X168384853Y-101181426D01*
X168276680Y-100920273D01*
X168119637Y-100685241D01*
X167919759Y-100485363D01*
X167687241Y-100330000D01*
X167919759Y-100174637D01*
X168119637Y-99974759D01*
X168276680Y-99739727D01*
X168384853Y-99478574D01*
X168440000Y-99201335D01*
X168440000Y-98918665D01*
X168384853Y-98641426D01*
X168276680Y-98380273D01*
X168119637Y-98145241D01*
X167919759Y-97945363D01*
X167687241Y-97790000D01*
X167919759Y-97634637D01*
X168119637Y-97434759D01*
X168276680Y-97199727D01*
X168384853Y-96938574D01*
X168440000Y-96661335D01*
X168440000Y-96378665D01*
X168384853Y-96101426D01*
X168276680Y-95840273D01*
X168119637Y-95605241D01*
X167919759Y-95405363D01*
X167687241Y-95250000D01*
X167919759Y-95094637D01*
X168119637Y-94894759D01*
X168276680Y-94659727D01*
X168384853Y-94398574D01*
X168440000Y-94121335D01*
X168440000Y-93838665D01*
X168384853Y-93561426D01*
X168276680Y-93300273D01*
X168119637Y-93065241D01*
X167919759Y-92865363D01*
X167684727Y-92708320D01*
X167674135Y-92703933D01*
X167860131Y-92592385D01*
X168068519Y-92403414D01*
X168236037Y-92177420D01*
X168356246Y-91923087D01*
X168396904Y-91789039D01*
X168274915Y-91567000D01*
X167132000Y-91567000D01*
X167132000Y-91587000D01*
X166878000Y-91587000D01*
X166878000Y-91567000D01*
X165735085Y-91567000D01*
X165613096Y-91789039D01*
X165653754Y-91923087D01*
X165773963Y-92177420D01*
X165941481Y-92403414D01*
X166149869Y-92592385D01*
X166335865Y-92703933D01*
X166325273Y-92708320D01*
X166090241Y-92865363D01*
X165890363Y-93065241D01*
X165733320Y-93300273D01*
X165625147Y-93561426D01*
X165570000Y-93838665D01*
X162687000Y-93838665D01*
X162687000Y-86218665D01*
X165570000Y-86218665D01*
X165570000Y-86501335D01*
X165625147Y-86778574D01*
X165733320Y-87039727D01*
X165890363Y-87274759D01*
X166090241Y-87474637D01*
X166322759Y-87630000D01*
X166090241Y-87785363D01*
X165890363Y-87985241D01*
X165733320Y-88220273D01*
X165625147Y-88481426D01*
X165570000Y-88758665D01*
X165570000Y-89041335D01*
X165625147Y-89318574D01*
X165733320Y-89579727D01*
X165890363Y-89814759D01*
X166090241Y-90014637D01*
X166325273Y-90171680D01*
X166335865Y-90176067D01*
X166149869Y-90287615D01*
X165941481Y-90476586D01*
X165773963Y-90702580D01*
X165653754Y-90956913D01*
X165613096Y-91090961D01*
X165735085Y-91313000D01*
X166878000Y-91313000D01*
X166878000Y-91293000D01*
X167132000Y-91293000D01*
X167132000Y-91313000D01*
X168274915Y-91313000D01*
X168396904Y-91090961D01*
X168356246Y-90956913D01*
X168236037Y-90702580D01*
X168068519Y-90476586D01*
X167860131Y-90287615D01*
X167674135Y-90176067D01*
X167684727Y-90171680D01*
X167919759Y-90014637D01*
X168119637Y-89814759D01*
X168276680Y-89579727D01*
X168384853Y-89318574D01*
X168440000Y-89041335D01*
X168440000Y-88758665D01*
X168384853Y-88481426D01*
X168276680Y-88220273D01*
X168119637Y-87985241D01*
X167919759Y-87785363D01*
X167687241Y-87630000D01*
X167919759Y-87474637D01*
X168119637Y-87274759D01*
X168276680Y-87039727D01*
X168384853Y-86778574D01*
X168440000Y-86501335D01*
X168440000Y-86218665D01*
X168384853Y-85941426D01*
X168276680Y-85680273D01*
X168119637Y-85445241D01*
X167919759Y-85245363D01*
X167684727Y-85088320D01*
X167423574Y-84980147D01*
X167146335Y-84925000D01*
X166863665Y-84925000D01*
X166586426Y-84980147D01*
X166325273Y-85088320D01*
X166090241Y-85245363D01*
X165890363Y-85445241D01*
X165733320Y-85680273D01*
X165625147Y-85941426D01*
X165570000Y-86218665D01*
X162687000Y-86218665D01*
X162687000Y-85156711D01*
X162728937Y-85114774D01*
X162842205Y-84945256D01*
X162871306Y-84875000D01*
X177581928Y-84875000D01*
X177581928Y-86575000D01*
X177594188Y-86699482D01*
X177630498Y-86819180D01*
X177689463Y-86929494D01*
X177768815Y-87026185D01*
X177865506Y-87105537D01*
X177975820Y-87164502D01*
X178048380Y-87186513D01*
X177916525Y-87318368D01*
X177754010Y-87561589D01*
X177642068Y-87831842D01*
X177585000Y-88118740D01*
X177585000Y-88411260D01*
X177642068Y-88698158D01*
X177754010Y-88968411D01*
X177916525Y-89211632D01*
X178123368Y-89418475D01*
X178297760Y-89535000D01*
X178123368Y-89651525D01*
X177916525Y-89858368D01*
X177754010Y-90101589D01*
X177642068Y-90371842D01*
X177585000Y-90658740D01*
X177585000Y-90951260D01*
X177642068Y-91238158D01*
X177754010Y-91508411D01*
X177916525Y-91751632D01*
X178123368Y-91958475D01*
X178297760Y-92075000D01*
X178123368Y-92191525D01*
X177916525Y-92398368D01*
X177754010Y-92641589D01*
X177642068Y-92911842D01*
X177585000Y-93198740D01*
X177585000Y-93491260D01*
X177642068Y-93778158D01*
X177754010Y-94048411D01*
X177916525Y-94291632D01*
X178123368Y-94498475D01*
X178297760Y-94615000D01*
X178123368Y-94731525D01*
X177916525Y-94938368D01*
X177754010Y-95181589D01*
X177642068Y-95451842D01*
X177585000Y-95738740D01*
X177585000Y-96031260D01*
X177642068Y-96318158D01*
X177754010Y-96588411D01*
X177916525Y-96831632D01*
X178123368Y-97038475D01*
X178297760Y-97155000D01*
X178123368Y-97271525D01*
X177916525Y-97478368D01*
X177754010Y-97721589D01*
X177642068Y-97991842D01*
X177585000Y-98278740D01*
X177585000Y-98571260D01*
X177642068Y-98858158D01*
X177754010Y-99128411D01*
X177916525Y-99371632D01*
X178123368Y-99578475D01*
X178305534Y-99700195D01*
X178188645Y-99769822D01*
X177972412Y-99964731D01*
X177798359Y-100198080D01*
X177673175Y-100460901D01*
X177628524Y-100608110D01*
X177749845Y-100838000D01*
X178943000Y-100838000D01*
X178943000Y-100818000D01*
X179197000Y-100818000D01*
X179197000Y-100838000D01*
X180390155Y-100838000D01*
X180511476Y-100608110D01*
X180466825Y-100460901D01*
X180341641Y-100198080D01*
X180167588Y-99964731D01*
X179951355Y-99769822D01*
X179834466Y-99700195D01*
X180016632Y-99578475D01*
X180223475Y-99371632D01*
X180385990Y-99128411D01*
X180497932Y-98858158D01*
X180555000Y-98571260D01*
X180555000Y-98278740D01*
X180497932Y-97991842D01*
X180385990Y-97721589D01*
X180223475Y-97478368D01*
X180016632Y-97271525D01*
X179842240Y-97155000D01*
X180016632Y-97038475D01*
X180223475Y-96831632D01*
X180385990Y-96588411D01*
X180497932Y-96318158D01*
X180555000Y-96031260D01*
X180555000Y-95738740D01*
X180497932Y-95451842D01*
X180385990Y-95181589D01*
X180223475Y-94938368D01*
X180016632Y-94731525D01*
X179842240Y-94615000D01*
X180016632Y-94498475D01*
X180223475Y-94291632D01*
X180385990Y-94048411D01*
X180497932Y-93778158D01*
X180555000Y-93491260D01*
X180555000Y-93198740D01*
X180497932Y-92911842D01*
X180385990Y-92641589D01*
X180223475Y-92398368D01*
X180016632Y-92191525D01*
X179842240Y-92075000D01*
X180016632Y-91958475D01*
X180223475Y-91751632D01*
X180385990Y-91508411D01*
X180497932Y-91238158D01*
X180555000Y-90951260D01*
X180555000Y-90658740D01*
X180497932Y-90371842D01*
X180385990Y-90101589D01*
X180223475Y-89858368D01*
X180016632Y-89651525D01*
X179842240Y-89535000D01*
X180016632Y-89418475D01*
X180223475Y-89211632D01*
X180385990Y-88968411D01*
X180497932Y-88698158D01*
X180555000Y-88411260D01*
X180555000Y-88118740D01*
X180497932Y-87831842D01*
X180385990Y-87561589D01*
X180223475Y-87318368D01*
X180091620Y-87186513D01*
X180164180Y-87164502D01*
X180274494Y-87105537D01*
X180371185Y-87026185D01*
X180450537Y-86929494D01*
X180509502Y-86819180D01*
X180545812Y-86699482D01*
X180558072Y-86575000D01*
X180558072Y-84875000D01*
X180545812Y-84750518D01*
X180509502Y-84630820D01*
X180450537Y-84520506D01*
X180371185Y-84423815D01*
X180274494Y-84344463D01*
X180164180Y-84285498D01*
X180044482Y-84249188D01*
X179920000Y-84236928D01*
X178220000Y-84236928D01*
X178095518Y-84249188D01*
X177975820Y-84285498D01*
X177865506Y-84344463D01*
X177768815Y-84423815D01*
X177689463Y-84520506D01*
X177630498Y-84630820D01*
X177594188Y-84750518D01*
X177581928Y-84875000D01*
X162871306Y-84875000D01*
X162920226Y-84756898D01*
X162960000Y-84556939D01*
X162960000Y-84353061D01*
X162920226Y-84153102D01*
X162842205Y-83964744D01*
X162830349Y-83947000D01*
X163830000Y-83947000D01*
X163854776Y-83944560D01*
X163878601Y-83937333D01*
X163900557Y-83925597D01*
X163919803Y-83909803D01*
X163935597Y-83890557D01*
X163947333Y-83868601D01*
X163954560Y-83844776D01*
X163957000Y-83820000D01*
X163957000Y-64795000D01*
X180950000Y-64795000D01*
X180950001Y-104742572D01*
%TA.AperFunction,Conductor*%
D18*
G36*
X180950001Y-104742572D02*
G01*
X180950000Y-104742582D01*
X180950001Y-111100000D01*
X162687000Y-111100000D01*
X162687000Y-104489039D01*
X165613096Y-104489039D01*
X165653754Y-104623087D01*
X165773963Y-104877420D01*
X165941481Y-105103414D01*
X166149869Y-105292385D01*
X166391119Y-105437070D01*
X166655960Y-105531909D01*
X166878000Y-105410624D01*
X166878000Y-104267000D01*
X167132000Y-104267000D01*
X167132000Y-105410624D01*
X167354040Y-105531909D01*
X167618881Y-105437070D01*
X167860131Y-105292385D01*
X168068519Y-105103414D01*
X168236037Y-104877420D01*
X168356246Y-104623087D01*
X168369467Y-104579495D01*
X172640000Y-104579495D01*
X172640000Y-104970505D01*
X172716282Y-105354003D01*
X172865915Y-105715250D01*
X173083149Y-106040364D01*
X173359636Y-106316851D01*
X173684750Y-106534085D01*
X174045997Y-106683718D01*
X174429495Y-106760000D01*
X174820505Y-106760000D01*
X175204003Y-106683718D01*
X175565250Y-106534085D01*
X175890364Y-106316851D01*
X176166851Y-106040364D01*
X176384085Y-105715250D01*
X176533718Y-105354003D01*
X176610000Y-104970505D01*
X176610000Y-104579495D01*
X176533718Y-104195997D01*
X176384085Y-103834750D01*
X176166851Y-103509636D01*
X175890364Y-103233149D01*
X175565250Y-103015915D01*
X175204003Y-102866282D01*
X174820505Y-102790000D01*
X174429495Y-102790000D01*
X174045997Y-102866282D01*
X173684750Y-103015915D01*
X173359636Y-103233149D01*
X173083149Y-103509636D01*
X172865915Y-103834750D01*
X172716282Y-104195997D01*
X172640000Y-104579495D01*
X168369467Y-104579495D01*
X168396904Y-104489039D01*
X168274915Y-104267000D01*
X167132000Y-104267000D01*
X166878000Y-104267000D01*
X165735085Y-104267000D01*
X165613096Y-104489039D01*
X162687000Y-104489039D01*
X162687000Y-93838665D01*
X165570000Y-93838665D01*
X165570000Y-94121335D01*
X165625147Y-94398574D01*
X165733320Y-94659727D01*
X165890363Y-94894759D01*
X166090241Y-95094637D01*
X166322759Y-95250000D01*
X166090241Y-95405363D01*
X165890363Y-95605241D01*
X165733320Y-95840273D01*
X165625147Y-96101426D01*
X165570000Y-96378665D01*
X165570000Y-96661335D01*
X165625147Y-96938574D01*
X165733320Y-97199727D01*
X165890363Y-97434759D01*
X166090241Y-97634637D01*
X166322759Y-97790000D01*
X166090241Y-97945363D01*
X165890363Y-98145241D01*
X165733320Y-98380273D01*
X165625147Y-98641426D01*
X165570000Y-98918665D01*
X165570000Y-99201335D01*
X165625147Y-99478574D01*
X165733320Y-99739727D01*
X165890363Y-99974759D01*
X166090241Y-100174637D01*
X166322759Y-100330000D01*
X166090241Y-100485363D01*
X165890363Y-100685241D01*
X165733320Y-100920273D01*
X165625147Y-101181426D01*
X165570000Y-101458665D01*
X165570000Y-101741335D01*
X165625147Y-102018574D01*
X165733320Y-102279727D01*
X165890363Y-102514759D01*
X166090241Y-102714637D01*
X166325273Y-102871680D01*
X166335865Y-102876067D01*
X166149869Y-102987615D01*
X165941481Y-103176586D01*
X165773963Y-103402580D01*
X165653754Y-103656913D01*
X165613096Y-103790961D01*
X165735085Y-104013000D01*
X166878000Y-104013000D01*
X166878000Y-103993000D01*
X167132000Y-103993000D01*
X167132000Y-104013000D01*
X168274915Y-104013000D01*
X168396904Y-103790961D01*
X168356246Y-103656913D01*
X168236037Y-103402580D01*
X168068519Y-103176586D01*
X167860131Y-102987615D01*
X167674135Y-102876067D01*
X167684727Y-102871680D01*
X167919759Y-102714637D01*
X168119637Y-102514759D01*
X168276680Y-102279727D01*
X168384853Y-102018574D01*
X168440000Y-101741335D01*
X168440000Y-101458665D01*
X168412794Y-101321890D01*
X177628524Y-101321890D01*
X177673175Y-101469099D01*
X177798359Y-101731920D01*
X177972412Y-101965269D01*
X178188645Y-102160178D01*
X178438748Y-102309157D01*
X178713109Y-102406481D01*
X178943000Y-102285814D01*
X178943000Y-101092000D01*
X179197000Y-101092000D01*
X179197000Y-102285814D01*
X179426891Y-102406481D01*
X179701252Y-102309157D01*
X179951355Y-102160178D01*
X180167588Y-101965269D01*
X180341641Y-101731920D01*
X180466825Y-101469099D01*
X180511476Y-101321890D01*
X180390155Y-101092000D01*
X179197000Y-101092000D01*
X178943000Y-101092000D01*
X177749845Y-101092000D01*
X177628524Y-101321890D01*
X168412794Y-101321890D01*
X168384853Y-101181426D01*
X168276680Y-100920273D01*
X168119637Y-100685241D01*
X167919759Y-100485363D01*
X167687241Y-100330000D01*
X167919759Y-100174637D01*
X168119637Y-99974759D01*
X168276680Y-99739727D01*
X168384853Y-99478574D01*
X168440000Y-99201335D01*
X168440000Y-98918665D01*
X168384853Y-98641426D01*
X168276680Y-98380273D01*
X168119637Y-98145241D01*
X167919759Y-97945363D01*
X167687241Y-97790000D01*
X167919759Y-97634637D01*
X168119637Y-97434759D01*
X168276680Y-97199727D01*
X168384853Y-96938574D01*
X168440000Y-96661335D01*
X168440000Y-96378665D01*
X168384853Y-96101426D01*
X168276680Y-95840273D01*
X168119637Y-95605241D01*
X167919759Y-95405363D01*
X167687241Y-95250000D01*
X167919759Y-95094637D01*
X168119637Y-94894759D01*
X168276680Y-94659727D01*
X168384853Y-94398574D01*
X168440000Y-94121335D01*
X168440000Y-93838665D01*
X168384853Y-93561426D01*
X168276680Y-93300273D01*
X168119637Y-93065241D01*
X167919759Y-92865363D01*
X167684727Y-92708320D01*
X167674135Y-92703933D01*
X167860131Y-92592385D01*
X168068519Y-92403414D01*
X168236037Y-92177420D01*
X168356246Y-91923087D01*
X168396904Y-91789039D01*
X168274915Y-91567000D01*
X167132000Y-91567000D01*
X167132000Y-91587000D01*
X166878000Y-91587000D01*
X166878000Y-91567000D01*
X165735085Y-91567000D01*
X165613096Y-91789039D01*
X165653754Y-91923087D01*
X165773963Y-92177420D01*
X165941481Y-92403414D01*
X166149869Y-92592385D01*
X166335865Y-92703933D01*
X166325273Y-92708320D01*
X166090241Y-92865363D01*
X165890363Y-93065241D01*
X165733320Y-93300273D01*
X165625147Y-93561426D01*
X165570000Y-93838665D01*
X162687000Y-93838665D01*
X162687000Y-86218665D01*
X165570000Y-86218665D01*
X165570000Y-86501335D01*
X165625147Y-86778574D01*
X165733320Y-87039727D01*
X165890363Y-87274759D01*
X166090241Y-87474637D01*
X166322759Y-87630000D01*
X166090241Y-87785363D01*
X165890363Y-87985241D01*
X165733320Y-88220273D01*
X165625147Y-88481426D01*
X165570000Y-88758665D01*
X165570000Y-89041335D01*
X165625147Y-89318574D01*
X165733320Y-89579727D01*
X165890363Y-89814759D01*
X166090241Y-90014637D01*
X166325273Y-90171680D01*
X166335865Y-90176067D01*
X166149869Y-90287615D01*
X165941481Y-90476586D01*
X165773963Y-90702580D01*
X165653754Y-90956913D01*
X165613096Y-91090961D01*
X165735085Y-91313000D01*
X166878000Y-91313000D01*
X166878000Y-91293000D01*
X167132000Y-91293000D01*
X167132000Y-91313000D01*
X168274915Y-91313000D01*
X168396904Y-91090961D01*
X168356246Y-90956913D01*
X168236037Y-90702580D01*
X168068519Y-90476586D01*
X167860131Y-90287615D01*
X167674135Y-90176067D01*
X167684727Y-90171680D01*
X167919759Y-90014637D01*
X168119637Y-89814759D01*
X168276680Y-89579727D01*
X168384853Y-89318574D01*
X168440000Y-89041335D01*
X168440000Y-88758665D01*
X168384853Y-88481426D01*
X168276680Y-88220273D01*
X168119637Y-87985241D01*
X167919759Y-87785363D01*
X167687241Y-87630000D01*
X167919759Y-87474637D01*
X168119637Y-87274759D01*
X168276680Y-87039727D01*
X168384853Y-86778574D01*
X168440000Y-86501335D01*
X168440000Y-86218665D01*
X168384853Y-85941426D01*
X168276680Y-85680273D01*
X168119637Y-85445241D01*
X167919759Y-85245363D01*
X167684727Y-85088320D01*
X167423574Y-84980147D01*
X167146335Y-84925000D01*
X166863665Y-84925000D01*
X166586426Y-84980147D01*
X166325273Y-85088320D01*
X166090241Y-85245363D01*
X165890363Y-85445241D01*
X165733320Y-85680273D01*
X165625147Y-85941426D01*
X165570000Y-86218665D01*
X162687000Y-86218665D01*
X162687000Y-85156711D01*
X162728937Y-85114774D01*
X162842205Y-84945256D01*
X162871306Y-84875000D01*
X177581928Y-84875000D01*
X177581928Y-86575000D01*
X177594188Y-86699482D01*
X177630498Y-86819180D01*
X177689463Y-86929494D01*
X177768815Y-87026185D01*
X177865506Y-87105537D01*
X177975820Y-87164502D01*
X178048380Y-87186513D01*
X177916525Y-87318368D01*
X177754010Y-87561589D01*
X177642068Y-87831842D01*
X177585000Y-88118740D01*
X177585000Y-88411260D01*
X177642068Y-88698158D01*
X177754010Y-88968411D01*
X177916525Y-89211632D01*
X178123368Y-89418475D01*
X178297760Y-89535000D01*
X178123368Y-89651525D01*
X177916525Y-89858368D01*
X177754010Y-90101589D01*
X177642068Y-90371842D01*
X177585000Y-90658740D01*
X177585000Y-90951260D01*
X177642068Y-91238158D01*
X177754010Y-91508411D01*
X177916525Y-91751632D01*
X178123368Y-91958475D01*
X178297760Y-92075000D01*
X178123368Y-92191525D01*
X177916525Y-92398368D01*
X177754010Y-92641589D01*
X177642068Y-92911842D01*
X177585000Y-93198740D01*
X177585000Y-93491260D01*
X177642068Y-93778158D01*
X177754010Y-94048411D01*
X177916525Y-94291632D01*
X178123368Y-94498475D01*
X178297760Y-94615000D01*
X178123368Y-94731525D01*
X177916525Y-94938368D01*
X177754010Y-95181589D01*
X177642068Y-95451842D01*
X177585000Y-95738740D01*
X177585000Y-96031260D01*
X177642068Y-96318158D01*
X177754010Y-96588411D01*
X177916525Y-96831632D01*
X178123368Y-97038475D01*
X178297760Y-97155000D01*
X178123368Y-97271525D01*
X177916525Y-97478368D01*
X177754010Y-97721589D01*
X177642068Y-97991842D01*
X177585000Y-98278740D01*
X177585000Y-98571260D01*
X177642068Y-98858158D01*
X177754010Y-99128411D01*
X177916525Y-99371632D01*
X178123368Y-99578475D01*
X178305534Y-99700195D01*
X178188645Y-99769822D01*
X177972412Y-99964731D01*
X177798359Y-100198080D01*
X177673175Y-100460901D01*
X177628524Y-100608110D01*
X177749845Y-100838000D01*
X178943000Y-100838000D01*
X178943000Y-100818000D01*
X179197000Y-100818000D01*
X179197000Y-100838000D01*
X180390155Y-100838000D01*
X180511476Y-100608110D01*
X180466825Y-100460901D01*
X180341641Y-100198080D01*
X180167588Y-99964731D01*
X179951355Y-99769822D01*
X179834466Y-99700195D01*
X180016632Y-99578475D01*
X180223475Y-99371632D01*
X180385990Y-99128411D01*
X180497932Y-98858158D01*
X180555000Y-98571260D01*
X180555000Y-98278740D01*
X180497932Y-97991842D01*
X180385990Y-97721589D01*
X180223475Y-97478368D01*
X180016632Y-97271525D01*
X179842240Y-97155000D01*
X180016632Y-97038475D01*
X180223475Y-96831632D01*
X180385990Y-96588411D01*
X180497932Y-96318158D01*
X180555000Y-96031260D01*
X180555000Y-95738740D01*
X180497932Y-95451842D01*
X180385990Y-95181589D01*
X180223475Y-94938368D01*
X180016632Y-94731525D01*
X179842240Y-94615000D01*
X180016632Y-94498475D01*
X180223475Y-94291632D01*
X180385990Y-94048411D01*
X180497932Y-93778158D01*
X180555000Y-93491260D01*
X180555000Y-93198740D01*
X180497932Y-92911842D01*
X180385990Y-92641589D01*
X180223475Y-92398368D01*
X180016632Y-92191525D01*
X179842240Y-92075000D01*
X180016632Y-91958475D01*
X180223475Y-91751632D01*
X180385990Y-91508411D01*
X180497932Y-91238158D01*
X180555000Y-90951260D01*
X180555000Y-90658740D01*
X180497932Y-90371842D01*
X180385990Y-90101589D01*
X180223475Y-89858368D01*
X180016632Y-89651525D01*
X179842240Y-89535000D01*
X180016632Y-89418475D01*
X180223475Y-89211632D01*
X180385990Y-88968411D01*
X180497932Y-88698158D01*
X180555000Y-88411260D01*
X180555000Y-88118740D01*
X180497932Y-87831842D01*
X180385990Y-87561589D01*
X180223475Y-87318368D01*
X180091620Y-87186513D01*
X180164180Y-87164502D01*
X180274494Y-87105537D01*
X180371185Y-87026185D01*
X180450537Y-86929494D01*
X180509502Y-86819180D01*
X180545812Y-86699482D01*
X180558072Y-86575000D01*
X180558072Y-84875000D01*
X180545812Y-84750518D01*
X180509502Y-84630820D01*
X180450537Y-84520506D01*
X180371185Y-84423815D01*
X180274494Y-84344463D01*
X180164180Y-84285498D01*
X180044482Y-84249188D01*
X179920000Y-84236928D01*
X178220000Y-84236928D01*
X178095518Y-84249188D01*
X177975820Y-84285498D01*
X177865506Y-84344463D01*
X177768815Y-84423815D01*
X177689463Y-84520506D01*
X177630498Y-84630820D01*
X177594188Y-84750518D01*
X177581928Y-84875000D01*
X162871306Y-84875000D01*
X162920226Y-84756898D01*
X162960000Y-84556939D01*
X162960000Y-84353061D01*
X162920226Y-84153102D01*
X162842205Y-83964744D01*
X162830349Y-83947000D01*
X163830000Y-83947000D01*
X163854776Y-83944560D01*
X163878601Y-83937333D01*
X163900557Y-83925597D01*
X163919803Y-83909803D01*
X163935597Y-83890557D01*
X163947333Y-83868601D01*
X163954560Y-83844776D01*
X163957000Y-83820000D01*
X163957000Y-64795000D01*
X180950000Y-64795000D01*
X180950001Y-104742572D01*
G37*
%TD.AperFunction*%
%TD*%
D17*
%TO.N,GNDA*%
X163068000Y-111100000D02*
X128295000Y-111100000D01*
X128295000Y-108941891D01*
X140163519Y-108941891D01*
X140260843Y-109216252D01*
X140409822Y-109466355D01*
X140604731Y-109682588D01*
X140838080Y-109856641D01*
X141100901Y-109981825D01*
X141248110Y-110026476D01*
X141478000Y-109905155D01*
X141478000Y-108712000D01*
X140284186Y-108712000D01*
X140163519Y-108941891D01*
X128295000Y-108941891D01*
X128295000Y-108228109D01*
X140163519Y-108228109D01*
X140284186Y-108458000D01*
X141478000Y-108458000D01*
X141478000Y-107264845D01*
X141732000Y-107264845D01*
X141732000Y-108458000D01*
X141752000Y-108458000D01*
X141752000Y-108712000D01*
X141732000Y-108712000D01*
X141732000Y-109905155D01*
X141961890Y-110026476D01*
X142109099Y-109981825D01*
X142371920Y-109856641D01*
X142605269Y-109682588D01*
X142681034Y-109598534D01*
X142705498Y-109679180D01*
X142764463Y-109789494D01*
X142843815Y-109886185D01*
X142940506Y-109965537D01*
X143050820Y-110024502D01*
X143170518Y-110060812D01*
X143295000Y-110073072D01*
X144995000Y-110073072D01*
X145119482Y-110060812D01*
X145239180Y-110024502D01*
X145349494Y-109965537D01*
X145446185Y-109886185D01*
X145525537Y-109789494D01*
X145584502Y-109679180D01*
X145620812Y-109559482D01*
X145633072Y-109435000D01*
X145633072Y-107735000D01*
X145620812Y-107610518D01*
X145584502Y-107490820D01*
X145525537Y-107380506D01*
X145446185Y-107283815D01*
X145349494Y-107204463D01*
X145239180Y-107145498D01*
X145119482Y-107109188D01*
X144995000Y-107096928D01*
X143295000Y-107096928D01*
X143170518Y-107109188D01*
X143050820Y-107145498D01*
X142940506Y-107204463D01*
X142843815Y-107283815D01*
X142764463Y-107380506D01*
X142705498Y-107490820D01*
X142681034Y-107571466D01*
X142605269Y-107487412D01*
X142371920Y-107313359D01*
X142109099Y-107188175D01*
X141961890Y-107143524D01*
X141732000Y-107264845D01*
X141478000Y-107264845D01*
X141248110Y-107143524D01*
X141100901Y-107188175D01*
X140838080Y-107313359D01*
X140604731Y-107487412D01*
X140409822Y-107703645D01*
X140260843Y-107953748D01*
X140163519Y-108228109D01*
X128295000Y-108228109D01*
X128295000Y-103226891D01*
X140163519Y-103226891D01*
X140260843Y-103501252D01*
X140409822Y-103751355D01*
X140604731Y-103967588D01*
X140838080Y-104141641D01*
X141100901Y-104266825D01*
X141248110Y-104311476D01*
X141478000Y-104190155D01*
X141478000Y-102997000D01*
X140284186Y-102997000D01*
X140163519Y-103226891D01*
X128295000Y-103226891D01*
X128295000Y-102513109D01*
X140163519Y-102513109D01*
X140284186Y-102743000D01*
X141478000Y-102743000D01*
X141478000Y-101549845D01*
X141732000Y-101549845D01*
X141732000Y-102743000D01*
X141752000Y-102743000D01*
X141752000Y-102997000D01*
X141732000Y-102997000D01*
X141732000Y-104190155D01*
X141961890Y-104311476D01*
X142109099Y-104266825D01*
X142371920Y-104141641D01*
X142605269Y-103967588D01*
X142681034Y-103883534D01*
X142705498Y-103964180D01*
X142764463Y-104074494D01*
X142843815Y-104171185D01*
X142940506Y-104250537D01*
X143050820Y-104309502D01*
X143170518Y-104345812D01*
X143295000Y-104358072D01*
X144995000Y-104358072D01*
X145119482Y-104345812D01*
X145239180Y-104309502D01*
X145349494Y-104250537D01*
X145446185Y-104171185D01*
X145525537Y-104074494D01*
X145584502Y-103964180D01*
X145620812Y-103844482D01*
X145633072Y-103720000D01*
X145633072Y-102020000D01*
X145620812Y-101895518D01*
X145584502Y-101775820D01*
X145525537Y-101665506D01*
X145446185Y-101568815D01*
X145349494Y-101489463D01*
X145239180Y-101430498D01*
X145119482Y-101394188D01*
X144995000Y-101381928D01*
X143295000Y-101381928D01*
X143170518Y-101394188D01*
X143050820Y-101430498D01*
X142940506Y-101489463D01*
X142843815Y-101568815D01*
X142764463Y-101665506D01*
X142705498Y-101775820D01*
X142681034Y-101856466D01*
X142605269Y-101772412D01*
X142371920Y-101598359D01*
X142109099Y-101473175D01*
X141961890Y-101428524D01*
X141732000Y-101549845D01*
X141478000Y-101549845D01*
X141248110Y-101428524D01*
X141100901Y-101473175D01*
X140838080Y-101598359D01*
X140604731Y-101772412D01*
X140409822Y-101988645D01*
X140260843Y-102238748D01*
X140163519Y-102513109D01*
X128295000Y-102513109D01*
X128295000Y-97511891D01*
X140163519Y-97511891D01*
X140260843Y-97786252D01*
X140409822Y-98036355D01*
X140604731Y-98252588D01*
X140838080Y-98426641D01*
X141100901Y-98551825D01*
X141248110Y-98596476D01*
X141478000Y-98475155D01*
X141478000Y-97282000D01*
X140284186Y-97282000D01*
X140163519Y-97511891D01*
X128295000Y-97511891D01*
X128295000Y-96798109D01*
X140163519Y-96798109D01*
X140284186Y-97028000D01*
X141478000Y-97028000D01*
X141478000Y-95834845D01*
X141732000Y-95834845D01*
X141732000Y-97028000D01*
X141752000Y-97028000D01*
X141752000Y-97282000D01*
X141732000Y-97282000D01*
X141732000Y-98475155D01*
X141961890Y-98596476D01*
X142109099Y-98551825D01*
X142371920Y-98426641D01*
X142605269Y-98252588D01*
X142681034Y-98168534D01*
X142705498Y-98249180D01*
X142764463Y-98359494D01*
X142843815Y-98456185D01*
X142940506Y-98535537D01*
X143050820Y-98594502D01*
X143170518Y-98630812D01*
X143295000Y-98643072D01*
X144995000Y-98643072D01*
X145119482Y-98630812D01*
X145239180Y-98594502D01*
X145349494Y-98535537D01*
X145446185Y-98456185D01*
X145525537Y-98359494D01*
X145584502Y-98249180D01*
X145620812Y-98129482D01*
X145633072Y-98005000D01*
X145633072Y-96305000D01*
X145620812Y-96180518D01*
X145584502Y-96060820D01*
X145525537Y-95950506D01*
X145446185Y-95853815D01*
X145349494Y-95774463D01*
X145239180Y-95715498D01*
X145119482Y-95679188D01*
X144995000Y-95666928D01*
X143295000Y-95666928D01*
X143170518Y-95679188D01*
X143050820Y-95715498D01*
X142940506Y-95774463D01*
X142843815Y-95853815D01*
X142764463Y-95950506D01*
X142705498Y-96060820D01*
X142681034Y-96141466D01*
X142605269Y-96057412D01*
X142371920Y-95883359D01*
X142109099Y-95758175D01*
X141961890Y-95713524D01*
X141732000Y-95834845D01*
X141478000Y-95834845D01*
X141248110Y-95713524D01*
X141100901Y-95758175D01*
X140838080Y-95883359D01*
X140604731Y-96057412D01*
X140409822Y-96273645D01*
X140260843Y-96523748D01*
X140163519Y-96798109D01*
X128295000Y-96798109D01*
X128295000Y-91879495D01*
X130095000Y-91879495D01*
X130095000Y-92270505D01*
X130171282Y-92654003D01*
X130320915Y-93015250D01*
X130538149Y-93340364D01*
X130814636Y-93616851D01*
X131139750Y-93834085D01*
X131500997Y-93983718D01*
X131884495Y-94060000D01*
X132275505Y-94060000D01*
X132659003Y-93983718D01*
X132793371Y-93928061D01*
X146920000Y-93928061D01*
X146920000Y-94131939D01*
X146959774Y-94331898D01*
X146989001Y-94402457D01*
X146989000Y-99547539D01*
X146970000Y-99643061D01*
X146970000Y-99846939D01*
X146989000Y-99942461D01*
X146989000Y-105262541D01*
X146970000Y-105358061D01*
X146970000Y-105561939D01*
X147009774Y-105761898D01*
X147087795Y-105950256D01*
X147201063Y-106119774D01*
X147345226Y-106263937D01*
X147514744Y-106377205D01*
X147703102Y-106455226D01*
X147903061Y-106495000D01*
X148106939Y-106495000D01*
X148306898Y-106455226D01*
X148495256Y-106377205D01*
X148664774Y-106263937D01*
X148808937Y-106119774D01*
X148922205Y-105950256D01*
X149000226Y-105761898D01*
X149040000Y-105561939D01*
X149040000Y-105358061D01*
X149021000Y-105262541D01*
X149021000Y-99942459D01*
X149040000Y-99846939D01*
X149040000Y-99643061D01*
X149021000Y-99547541D01*
X149021000Y-88512459D01*
X149040000Y-88416939D01*
X149040000Y-88213061D01*
X149000226Y-88013102D01*
X148922205Y-87824744D01*
X148808937Y-87655226D01*
X148664774Y-87511063D01*
X148495256Y-87397795D01*
X148306898Y-87319774D01*
X148106939Y-87280000D01*
X147903061Y-87280000D01*
X147703102Y-87319774D01*
X147514744Y-87397795D01*
X147345226Y-87511063D01*
X147201063Y-87655226D01*
X147087795Y-87824744D01*
X147009774Y-88013102D01*
X146970000Y-88213061D01*
X146970000Y-88416939D01*
X146989001Y-88512464D01*
X146989001Y-93657543D01*
X146959774Y-93728102D01*
X146920000Y-93928061D01*
X132793371Y-93928061D01*
X133020250Y-93834085D01*
X133345364Y-93616851D01*
X133621851Y-93340364D01*
X133839085Y-93015250D01*
X133988718Y-92654003D01*
X134065000Y-92270505D01*
X134065000Y-91879495D01*
X134048570Y-91796891D01*
X140163519Y-91796891D01*
X140260843Y-92071252D01*
X140409822Y-92321355D01*
X140604731Y-92537588D01*
X140838080Y-92711641D01*
X141100901Y-92836825D01*
X141248110Y-92881476D01*
X141478000Y-92760155D01*
X141478000Y-91567000D01*
X140284186Y-91567000D01*
X140163519Y-91796891D01*
X134048570Y-91796891D01*
X133988718Y-91495997D01*
X133839085Y-91134750D01*
X133804580Y-91083109D01*
X140163519Y-91083109D01*
X140284186Y-91313000D01*
X141478000Y-91313000D01*
X141478000Y-90119845D01*
X141732000Y-90119845D01*
X141732000Y-91313000D01*
X141752000Y-91313000D01*
X141752000Y-91567000D01*
X141732000Y-91567000D01*
X141732000Y-92760155D01*
X141961890Y-92881476D01*
X142109099Y-92836825D01*
X142371920Y-92711641D01*
X142605269Y-92537588D01*
X142681034Y-92453534D01*
X142705498Y-92534180D01*
X142764463Y-92644494D01*
X142843815Y-92741185D01*
X142940506Y-92820537D01*
X143050820Y-92879502D01*
X143170518Y-92915812D01*
X143295000Y-92928072D01*
X144995000Y-92928072D01*
X145119482Y-92915812D01*
X145239180Y-92879502D01*
X145349494Y-92820537D01*
X145446185Y-92741185D01*
X145525537Y-92644494D01*
X145584502Y-92534180D01*
X145620812Y-92414482D01*
X145633072Y-92290000D01*
X145633072Y-90590000D01*
X145620812Y-90465518D01*
X145584502Y-90345820D01*
X145525537Y-90235506D01*
X145446185Y-90138815D01*
X145349494Y-90059463D01*
X145239180Y-90000498D01*
X145119482Y-89964188D01*
X144995000Y-89951928D01*
X143295000Y-89951928D01*
X143170518Y-89964188D01*
X143050820Y-90000498D01*
X142940506Y-90059463D01*
X142843815Y-90138815D01*
X142764463Y-90235506D01*
X142705498Y-90345820D01*
X142681034Y-90426466D01*
X142605269Y-90342412D01*
X142371920Y-90168359D01*
X142109099Y-90043175D01*
X141961890Y-89998524D01*
X141732000Y-90119845D01*
X141478000Y-90119845D01*
X141248110Y-89998524D01*
X141100901Y-90043175D01*
X140838080Y-90168359D01*
X140604731Y-90342412D01*
X140409822Y-90558645D01*
X140260843Y-90808748D01*
X140163519Y-91083109D01*
X133804580Y-91083109D01*
X133621851Y-90809636D01*
X133345364Y-90533149D01*
X133020250Y-90315915D01*
X132659003Y-90166282D01*
X132275505Y-90090000D01*
X131884495Y-90090000D01*
X131500997Y-90166282D01*
X131139750Y-90315915D01*
X130814636Y-90533149D01*
X130538149Y-90809636D01*
X130320915Y-91134750D01*
X130171282Y-91495997D01*
X130095000Y-91879495D01*
X128295000Y-91879495D01*
X128295000Y-83838686D01*
X130120919Y-83838686D01*
X130457106Y-84307868D01*
X131087068Y-84648237D01*
X131771327Y-84859166D01*
X132483589Y-84932550D01*
X133196482Y-84865569D01*
X133882609Y-84660796D01*
X134515603Y-84326102D01*
X134542894Y-84307868D01*
X134879081Y-83838686D01*
X132500000Y-81459605D01*
X130120919Y-83838686D01*
X128295000Y-83838686D01*
X128295000Y-81263589D01*
X128847450Y-81263589D01*
X128914431Y-81976482D01*
X129119204Y-82662609D01*
X129453898Y-83295603D01*
X129472132Y-83322894D01*
X129941314Y-83659081D01*
X132320395Y-81280000D01*
X132679605Y-81280000D01*
X135058686Y-83659081D01*
X135527868Y-83322894D01*
X135868237Y-82692932D01*
X136061928Y-82064594D01*
X136061928Y-82780000D01*
X136103010Y-83197117D01*
X136224679Y-83598205D01*
X136422258Y-83967849D01*
X136688155Y-84291845D01*
X137012151Y-84557742D01*
X137381795Y-84755321D01*
X137782883Y-84876990D01*
X138200000Y-84918072D01*
X141200000Y-84918072D01*
X141617117Y-84876990D01*
X142018205Y-84755321D01*
X142387849Y-84557742D01*
X142637253Y-84353061D01*
X155175000Y-84353061D01*
X155175000Y-84556939D01*
X155214774Y-84756898D01*
X155292795Y-84945256D01*
X155406063Y-85114774D01*
X155550226Y-85258937D01*
X155719744Y-85372205D01*
X155908102Y-85450226D01*
X156108061Y-85490000D01*
X156311939Y-85490000D01*
X156407459Y-85471000D01*
X157955693Y-85471000D01*
X157946928Y-85560000D01*
X157946928Y-87160000D01*
X157959188Y-87284482D01*
X157995498Y-87404180D01*
X158054463Y-87514494D01*
X158133815Y-87611185D01*
X158230506Y-87690537D01*
X158340820Y-87749502D01*
X158460518Y-87785812D01*
X158468961Y-87786643D01*
X158270363Y-87985241D01*
X158113320Y-88220273D01*
X158005147Y-88481426D01*
X157950000Y-88758665D01*
X157950000Y-89041335D01*
X158005147Y-89318574D01*
X158113320Y-89579727D01*
X158270363Y-89814759D01*
X158470241Y-90014637D01*
X158702759Y-90170000D01*
X158470241Y-90325363D01*
X158270363Y-90525241D01*
X158113320Y-90760273D01*
X158005147Y-91021426D01*
X157950000Y-91298665D01*
X157950000Y-91581335D01*
X158005147Y-91858574D01*
X158113320Y-92119727D01*
X158270363Y-92354759D01*
X158470241Y-92554637D01*
X158702759Y-92710000D01*
X158470241Y-92865363D01*
X158270363Y-93065241D01*
X158113320Y-93300273D01*
X158005147Y-93561426D01*
X157950000Y-93838665D01*
X157950000Y-94121335D01*
X158005147Y-94398574D01*
X158113320Y-94659727D01*
X158270363Y-94894759D01*
X158470241Y-95094637D01*
X158702759Y-95250000D01*
X158470241Y-95405363D01*
X158270363Y-95605241D01*
X158113320Y-95840273D01*
X158005147Y-96101426D01*
X157950000Y-96378665D01*
X157950000Y-96661335D01*
X158005147Y-96938574D01*
X158113320Y-97199727D01*
X158270363Y-97434759D01*
X158470241Y-97634637D01*
X158702759Y-97790000D01*
X158470241Y-97945363D01*
X158270363Y-98145241D01*
X158113320Y-98380273D01*
X158005147Y-98641426D01*
X157950000Y-98918665D01*
X157950000Y-99201335D01*
X158005147Y-99478574D01*
X158113320Y-99739727D01*
X158270363Y-99974759D01*
X158470241Y-100174637D01*
X158702759Y-100330000D01*
X158470241Y-100485363D01*
X158270363Y-100685241D01*
X158113320Y-100920273D01*
X158005147Y-101181426D01*
X157950000Y-101458665D01*
X157950000Y-101741335D01*
X158005147Y-102018574D01*
X158113320Y-102279727D01*
X158270363Y-102514759D01*
X158470241Y-102714637D01*
X158702759Y-102870000D01*
X158470241Y-103025363D01*
X158270363Y-103225241D01*
X158113320Y-103460273D01*
X158005147Y-103721426D01*
X157950000Y-103998665D01*
X157950000Y-104281335D01*
X158005147Y-104558574D01*
X158113320Y-104819727D01*
X158270363Y-105054759D01*
X158470241Y-105254637D01*
X158705273Y-105411680D01*
X158966426Y-105519853D01*
X159243665Y-105575000D01*
X159526335Y-105575000D01*
X159803574Y-105519853D01*
X160064727Y-105411680D01*
X160299759Y-105254637D01*
X160499637Y-105054759D01*
X160656680Y-104819727D01*
X160764853Y-104558574D01*
X160820000Y-104281335D01*
X160820000Y-103998665D01*
X160764853Y-103721426D01*
X160656680Y-103460273D01*
X160499637Y-103225241D01*
X160299759Y-103025363D01*
X160067241Y-102870000D01*
X160299759Y-102714637D01*
X160499637Y-102514759D01*
X160656680Y-102279727D01*
X160764853Y-102018574D01*
X160820000Y-101741335D01*
X160820000Y-101458665D01*
X160764853Y-101181426D01*
X160656680Y-100920273D01*
X160499637Y-100685241D01*
X160299759Y-100485363D01*
X160067241Y-100330000D01*
X160299759Y-100174637D01*
X160499637Y-99974759D01*
X160656680Y-99739727D01*
X160764853Y-99478574D01*
X160820000Y-99201335D01*
X160820000Y-98918665D01*
X160764853Y-98641426D01*
X160656680Y-98380273D01*
X160499637Y-98145241D01*
X160299759Y-97945363D01*
X160067241Y-97790000D01*
X160299759Y-97634637D01*
X160499637Y-97434759D01*
X160656680Y-97199727D01*
X160764853Y-96938574D01*
X160820000Y-96661335D01*
X160820000Y-96378665D01*
X160764853Y-96101426D01*
X160656680Y-95840273D01*
X160499637Y-95605241D01*
X160299759Y-95405363D01*
X160067241Y-95250000D01*
X160299759Y-95094637D01*
X160499637Y-94894759D01*
X160656680Y-94659727D01*
X160764853Y-94398574D01*
X160820000Y-94121335D01*
X160820000Y-93838665D01*
X160764853Y-93561426D01*
X160656680Y-93300273D01*
X160499637Y-93065241D01*
X160299759Y-92865363D01*
X160067241Y-92710000D01*
X160299759Y-92554637D01*
X160499637Y-92354759D01*
X160656680Y-92119727D01*
X160764853Y-91858574D01*
X160820000Y-91581335D01*
X160820000Y-91298665D01*
X160764853Y-91021426D01*
X160656680Y-90760273D01*
X160499637Y-90525241D01*
X160299759Y-90325363D01*
X160067241Y-90170000D01*
X160299759Y-90014637D01*
X160499637Y-89814759D01*
X160656680Y-89579727D01*
X160764853Y-89318574D01*
X160820000Y-89041335D01*
X160820000Y-88758665D01*
X160764853Y-88481426D01*
X160656680Y-88220273D01*
X160499637Y-87985241D01*
X160301039Y-87786643D01*
X160309482Y-87785812D01*
X160429180Y-87749502D01*
X160539494Y-87690537D01*
X160636185Y-87611185D01*
X160715537Y-87514494D01*
X160774502Y-87404180D01*
X160810812Y-87284482D01*
X160823072Y-87160000D01*
X160823072Y-85560000D01*
X160814307Y-85471000D01*
X161727541Y-85471000D01*
X161823061Y-85490000D01*
X162026939Y-85490000D01*
X162226898Y-85450226D01*
X162415256Y-85372205D01*
X162584774Y-85258937D01*
X162728937Y-85114774D01*
X162842205Y-84945256D01*
X162920226Y-84756898D01*
X162960000Y-84556939D01*
X162960000Y-84353061D01*
X162920226Y-84153102D01*
X162842205Y-83964744D01*
X162728937Y-83795226D01*
X162584774Y-83651063D01*
X162415256Y-83537795D01*
X162226898Y-83459774D01*
X162026939Y-83420000D01*
X161823061Y-83420000D01*
X161727541Y-83439000D01*
X156407459Y-83439000D01*
X156311939Y-83420000D01*
X156108061Y-83420000D01*
X155908102Y-83459774D01*
X155719744Y-83537795D01*
X155550226Y-83651063D01*
X155406063Y-83795226D01*
X155292795Y-83964744D01*
X155214774Y-84153102D01*
X155175000Y-84353061D01*
X142637253Y-84353061D01*
X142711845Y-84291845D01*
X142977742Y-83967849D01*
X143175321Y-83598205D01*
X143296990Y-83197117D01*
X143338072Y-82780000D01*
X143338072Y-79780000D01*
X143296990Y-79362883D01*
X143175321Y-78961795D01*
X142977742Y-78592151D01*
X142711845Y-78268155D01*
X142387849Y-78002258D01*
X142018205Y-77804679D01*
X141617117Y-77683010D01*
X141200000Y-77641928D01*
X138200000Y-77641928D01*
X137782883Y-77683010D01*
X137381795Y-77804679D01*
X137012151Y-78002258D01*
X136688155Y-78268155D01*
X136422258Y-78592151D01*
X136224679Y-78961795D01*
X136103010Y-79362883D01*
X136061928Y-79780000D01*
X136061928Y-80504305D01*
X135880796Y-79897391D01*
X135546102Y-79264397D01*
X135527868Y-79237106D01*
X135058686Y-78900919D01*
X132679605Y-81280000D01*
X132320395Y-81280000D01*
X129941314Y-78900919D01*
X129472132Y-79237106D01*
X129131763Y-79867068D01*
X128920834Y-80551327D01*
X128847450Y-81263589D01*
X128295000Y-81263589D01*
X128295000Y-78721314D01*
X130120919Y-78721314D01*
X132500000Y-81100395D01*
X134879081Y-78721314D01*
X134542894Y-78252132D01*
X133912932Y-77911763D01*
X133228673Y-77700834D01*
X132516411Y-77627450D01*
X131803518Y-77694431D01*
X131117391Y-77899204D01*
X130484397Y-78233898D01*
X130457106Y-78252132D01*
X130120919Y-78721314D01*
X128295000Y-78721314D01*
X128295000Y-72408686D01*
X130120919Y-72408686D01*
X130457106Y-72877868D01*
X131087068Y-73218237D01*
X131771327Y-73429166D01*
X132483589Y-73502550D01*
X133196482Y-73435569D01*
X133882609Y-73230796D01*
X134515603Y-72896102D01*
X134542894Y-72877868D01*
X134879081Y-72408686D01*
X132500000Y-70029605D01*
X130120919Y-72408686D01*
X128295000Y-72408686D01*
X128295000Y-69833589D01*
X128847450Y-69833589D01*
X128914431Y-70546482D01*
X129119204Y-71232609D01*
X129453898Y-71865603D01*
X129472132Y-71892894D01*
X129941314Y-72229081D01*
X132320395Y-69850000D01*
X132679605Y-69850000D01*
X135058686Y-72229081D01*
X135527868Y-71892894D01*
X135868237Y-71262932D01*
X136061928Y-70634594D01*
X136061928Y-71350000D01*
X136103010Y-71767117D01*
X136224679Y-72168205D01*
X136422258Y-72537849D01*
X136688155Y-72861845D01*
X137012151Y-73127742D01*
X137381795Y-73325321D01*
X137782883Y-73446990D01*
X138200000Y-73488072D01*
X141200000Y-73488072D01*
X141617117Y-73446990D01*
X142018205Y-73325321D01*
X142387849Y-73127742D01*
X142711845Y-72861845D01*
X142977742Y-72537849D01*
X143175321Y-72168205D01*
X143296990Y-71767117D01*
X143338072Y-71350000D01*
X143338072Y-68350000D01*
X143296990Y-67932883D01*
X143175321Y-67531795D01*
X142977742Y-67162151D01*
X142711845Y-66838155D01*
X142387849Y-66572258D01*
X142018205Y-66374679D01*
X141617117Y-66253010D01*
X141200000Y-66211928D01*
X138200000Y-66211928D01*
X137782883Y-66253010D01*
X137381795Y-66374679D01*
X137012151Y-66572258D01*
X136688155Y-66838155D01*
X136422258Y-67162151D01*
X136224679Y-67531795D01*
X136103010Y-67932883D01*
X136061928Y-68350000D01*
X136061928Y-69074305D01*
X135880796Y-68467391D01*
X135546102Y-67834397D01*
X135527868Y-67807106D01*
X135058686Y-67470919D01*
X132679605Y-69850000D01*
X132320395Y-69850000D01*
X129941314Y-67470919D01*
X129472132Y-67807106D01*
X129131763Y-68437068D01*
X128920834Y-69121327D01*
X128847450Y-69833589D01*
X128295000Y-69833589D01*
X128295000Y-67291314D01*
X130120919Y-67291314D01*
X132500000Y-69670395D01*
X134879081Y-67291314D01*
X134542894Y-66822132D01*
X133912932Y-66481763D01*
X133228673Y-66270834D01*
X132516411Y-66197450D01*
X131803518Y-66264431D01*
X131117391Y-66469204D01*
X130484397Y-66803898D01*
X130457106Y-66822132D01*
X130120919Y-67291314D01*
X128295000Y-67291314D01*
X128295000Y-64795000D01*
X163068000Y-64795000D01*
X163068000Y-111100000D01*
%TA.AperFunction,Conductor*%
D18*
G36*
X163068000Y-111100000D02*
G01*
X128295000Y-111100000D01*
X128295000Y-108941891D01*
X140163519Y-108941891D01*
X140260843Y-109216252D01*
X140409822Y-109466355D01*
X140604731Y-109682588D01*
X140838080Y-109856641D01*
X141100901Y-109981825D01*
X141248110Y-110026476D01*
X141478000Y-109905155D01*
X141478000Y-108712000D01*
X140284186Y-108712000D01*
X140163519Y-108941891D01*
X128295000Y-108941891D01*
X128295000Y-108228109D01*
X140163519Y-108228109D01*
X140284186Y-108458000D01*
X141478000Y-108458000D01*
X141478000Y-107264845D01*
X141732000Y-107264845D01*
X141732000Y-108458000D01*
X141752000Y-108458000D01*
X141752000Y-108712000D01*
X141732000Y-108712000D01*
X141732000Y-109905155D01*
X141961890Y-110026476D01*
X142109099Y-109981825D01*
X142371920Y-109856641D01*
X142605269Y-109682588D01*
X142681034Y-109598534D01*
X142705498Y-109679180D01*
X142764463Y-109789494D01*
X142843815Y-109886185D01*
X142940506Y-109965537D01*
X143050820Y-110024502D01*
X143170518Y-110060812D01*
X143295000Y-110073072D01*
X144995000Y-110073072D01*
X145119482Y-110060812D01*
X145239180Y-110024502D01*
X145349494Y-109965537D01*
X145446185Y-109886185D01*
X145525537Y-109789494D01*
X145584502Y-109679180D01*
X145620812Y-109559482D01*
X145633072Y-109435000D01*
X145633072Y-107735000D01*
X145620812Y-107610518D01*
X145584502Y-107490820D01*
X145525537Y-107380506D01*
X145446185Y-107283815D01*
X145349494Y-107204463D01*
X145239180Y-107145498D01*
X145119482Y-107109188D01*
X144995000Y-107096928D01*
X143295000Y-107096928D01*
X143170518Y-107109188D01*
X143050820Y-107145498D01*
X142940506Y-107204463D01*
X142843815Y-107283815D01*
X142764463Y-107380506D01*
X142705498Y-107490820D01*
X142681034Y-107571466D01*
X142605269Y-107487412D01*
X142371920Y-107313359D01*
X142109099Y-107188175D01*
X141961890Y-107143524D01*
X141732000Y-107264845D01*
X141478000Y-107264845D01*
X141248110Y-107143524D01*
X141100901Y-107188175D01*
X140838080Y-107313359D01*
X140604731Y-107487412D01*
X140409822Y-107703645D01*
X140260843Y-107953748D01*
X140163519Y-108228109D01*
X128295000Y-108228109D01*
X128295000Y-103226891D01*
X140163519Y-103226891D01*
X140260843Y-103501252D01*
X140409822Y-103751355D01*
X140604731Y-103967588D01*
X140838080Y-104141641D01*
X141100901Y-104266825D01*
X141248110Y-104311476D01*
X141478000Y-104190155D01*
X141478000Y-102997000D01*
X140284186Y-102997000D01*
X140163519Y-103226891D01*
X128295000Y-103226891D01*
X128295000Y-102513109D01*
X140163519Y-102513109D01*
X140284186Y-102743000D01*
X141478000Y-102743000D01*
X141478000Y-101549845D01*
X141732000Y-101549845D01*
X141732000Y-102743000D01*
X141752000Y-102743000D01*
X141752000Y-102997000D01*
X141732000Y-102997000D01*
X141732000Y-104190155D01*
X141961890Y-104311476D01*
X142109099Y-104266825D01*
X142371920Y-104141641D01*
X142605269Y-103967588D01*
X142681034Y-103883534D01*
X142705498Y-103964180D01*
X142764463Y-104074494D01*
X142843815Y-104171185D01*
X142940506Y-104250537D01*
X143050820Y-104309502D01*
X143170518Y-104345812D01*
X143295000Y-104358072D01*
X144995000Y-104358072D01*
X145119482Y-104345812D01*
X145239180Y-104309502D01*
X145349494Y-104250537D01*
X145446185Y-104171185D01*
X145525537Y-104074494D01*
X145584502Y-103964180D01*
X145620812Y-103844482D01*
X145633072Y-103720000D01*
X145633072Y-102020000D01*
X145620812Y-101895518D01*
X145584502Y-101775820D01*
X145525537Y-101665506D01*
X145446185Y-101568815D01*
X145349494Y-101489463D01*
X145239180Y-101430498D01*
X145119482Y-101394188D01*
X144995000Y-101381928D01*
X143295000Y-101381928D01*
X143170518Y-101394188D01*
X143050820Y-101430498D01*
X142940506Y-101489463D01*
X142843815Y-101568815D01*
X142764463Y-101665506D01*
X142705498Y-101775820D01*
X142681034Y-101856466D01*
X142605269Y-101772412D01*
X142371920Y-101598359D01*
X142109099Y-101473175D01*
X141961890Y-101428524D01*
X141732000Y-101549845D01*
X141478000Y-101549845D01*
X141248110Y-101428524D01*
X141100901Y-101473175D01*
X140838080Y-101598359D01*
X140604731Y-101772412D01*
X140409822Y-101988645D01*
X140260843Y-102238748D01*
X140163519Y-102513109D01*
X128295000Y-102513109D01*
X128295000Y-97511891D01*
X140163519Y-97511891D01*
X140260843Y-97786252D01*
X140409822Y-98036355D01*
X140604731Y-98252588D01*
X140838080Y-98426641D01*
X141100901Y-98551825D01*
X141248110Y-98596476D01*
X141478000Y-98475155D01*
X141478000Y-97282000D01*
X140284186Y-97282000D01*
X140163519Y-97511891D01*
X128295000Y-97511891D01*
X128295000Y-96798109D01*
X140163519Y-96798109D01*
X140284186Y-97028000D01*
X141478000Y-97028000D01*
X141478000Y-95834845D01*
X141732000Y-95834845D01*
X141732000Y-97028000D01*
X141752000Y-97028000D01*
X141752000Y-97282000D01*
X141732000Y-97282000D01*
X141732000Y-98475155D01*
X141961890Y-98596476D01*
X142109099Y-98551825D01*
X142371920Y-98426641D01*
X142605269Y-98252588D01*
X142681034Y-98168534D01*
X142705498Y-98249180D01*
X142764463Y-98359494D01*
X142843815Y-98456185D01*
X142940506Y-98535537D01*
X143050820Y-98594502D01*
X143170518Y-98630812D01*
X143295000Y-98643072D01*
X144995000Y-98643072D01*
X145119482Y-98630812D01*
X145239180Y-98594502D01*
X145349494Y-98535537D01*
X145446185Y-98456185D01*
X145525537Y-98359494D01*
X145584502Y-98249180D01*
X145620812Y-98129482D01*
X145633072Y-98005000D01*
X145633072Y-96305000D01*
X145620812Y-96180518D01*
X145584502Y-96060820D01*
X145525537Y-95950506D01*
X145446185Y-95853815D01*
X145349494Y-95774463D01*
X145239180Y-95715498D01*
X145119482Y-95679188D01*
X144995000Y-95666928D01*
X143295000Y-95666928D01*
X143170518Y-95679188D01*
X143050820Y-95715498D01*
X142940506Y-95774463D01*
X142843815Y-95853815D01*
X142764463Y-95950506D01*
X142705498Y-96060820D01*
X142681034Y-96141466D01*
X142605269Y-96057412D01*
X142371920Y-95883359D01*
X142109099Y-95758175D01*
X141961890Y-95713524D01*
X141732000Y-95834845D01*
X141478000Y-95834845D01*
X141248110Y-95713524D01*
X141100901Y-95758175D01*
X140838080Y-95883359D01*
X140604731Y-96057412D01*
X140409822Y-96273645D01*
X140260843Y-96523748D01*
X140163519Y-96798109D01*
X128295000Y-96798109D01*
X128295000Y-91879495D01*
X130095000Y-91879495D01*
X130095000Y-92270505D01*
X130171282Y-92654003D01*
X130320915Y-93015250D01*
X130538149Y-93340364D01*
X130814636Y-93616851D01*
X131139750Y-93834085D01*
X131500997Y-93983718D01*
X131884495Y-94060000D01*
X132275505Y-94060000D01*
X132659003Y-93983718D01*
X132793371Y-93928061D01*
X146920000Y-93928061D01*
X146920000Y-94131939D01*
X146959774Y-94331898D01*
X146989001Y-94402457D01*
X146989000Y-99547539D01*
X146970000Y-99643061D01*
X146970000Y-99846939D01*
X146989000Y-99942461D01*
X146989000Y-105262541D01*
X146970000Y-105358061D01*
X146970000Y-105561939D01*
X147009774Y-105761898D01*
X147087795Y-105950256D01*
X147201063Y-106119774D01*
X147345226Y-106263937D01*
X147514744Y-106377205D01*
X147703102Y-106455226D01*
X147903061Y-106495000D01*
X148106939Y-106495000D01*
X148306898Y-106455226D01*
X148495256Y-106377205D01*
X148664774Y-106263937D01*
X148808937Y-106119774D01*
X148922205Y-105950256D01*
X149000226Y-105761898D01*
X149040000Y-105561939D01*
X149040000Y-105358061D01*
X149021000Y-105262541D01*
X149021000Y-99942459D01*
X149040000Y-99846939D01*
X149040000Y-99643061D01*
X149021000Y-99547541D01*
X149021000Y-88512459D01*
X149040000Y-88416939D01*
X149040000Y-88213061D01*
X149000226Y-88013102D01*
X148922205Y-87824744D01*
X148808937Y-87655226D01*
X148664774Y-87511063D01*
X148495256Y-87397795D01*
X148306898Y-87319774D01*
X148106939Y-87280000D01*
X147903061Y-87280000D01*
X147703102Y-87319774D01*
X147514744Y-87397795D01*
X147345226Y-87511063D01*
X147201063Y-87655226D01*
X147087795Y-87824744D01*
X147009774Y-88013102D01*
X146970000Y-88213061D01*
X146970000Y-88416939D01*
X146989001Y-88512464D01*
X146989001Y-93657543D01*
X146959774Y-93728102D01*
X146920000Y-93928061D01*
X132793371Y-93928061D01*
X133020250Y-93834085D01*
X133345364Y-93616851D01*
X133621851Y-93340364D01*
X133839085Y-93015250D01*
X133988718Y-92654003D01*
X134065000Y-92270505D01*
X134065000Y-91879495D01*
X134048570Y-91796891D01*
X140163519Y-91796891D01*
X140260843Y-92071252D01*
X140409822Y-92321355D01*
X140604731Y-92537588D01*
X140838080Y-92711641D01*
X141100901Y-92836825D01*
X141248110Y-92881476D01*
X141478000Y-92760155D01*
X141478000Y-91567000D01*
X140284186Y-91567000D01*
X140163519Y-91796891D01*
X134048570Y-91796891D01*
X133988718Y-91495997D01*
X133839085Y-91134750D01*
X133804580Y-91083109D01*
X140163519Y-91083109D01*
X140284186Y-91313000D01*
X141478000Y-91313000D01*
X141478000Y-90119845D01*
X141732000Y-90119845D01*
X141732000Y-91313000D01*
X141752000Y-91313000D01*
X141752000Y-91567000D01*
X141732000Y-91567000D01*
X141732000Y-92760155D01*
X141961890Y-92881476D01*
X142109099Y-92836825D01*
X142371920Y-92711641D01*
X142605269Y-92537588D01*
X142681034Y-92453534D01*
X142705498Y-92534180D01*
X142764463Y-92644494D01*
X142843815Y-92741185D01*
X142940506Y-92820537D01*
X143050820Y-92879502D01*
X143170518Y-92915812D01*
X143295000Y-92928072D01*
X144995000Y-92928072D01*
X145119482Y-92915812D01*
X145239180Y-92879502D01*
X145349494Y-92820537D01*
X145446185Y-92741185D01*
X145525537Y-92644494D01*
X145584502Y-92534180D01*
X145620812Y-92414482D01*
X145633072Y-92290000D01*
X145633072Y-90590000D01*
X145620812Y-90465518D01*
X145584502Y-90345820D01*
X145525537Y-90235506D01*
X145446185Y-90138815D01*
X145349494Y-90059463D01*
X145239180Y-90000498D01*
X145119482Y-89964188D01*
X144995000Y-89951928D01*
X143295000Y-89951928D01*
X143170518Y-89964188D01*
X143050820Y-90000498D01*
X142940506Y-90059463D01*
X142843815Y-90138815D01*
X142764463Y-90235506D01*
X142705498Y-90345820D01*
X142681034Y-90426466D01*
X142605269Y-90342412D01*
X142371920Y-90168359D01*
X142109099Y-90043175D01*
X141961890Y-89998524D01*
X141732000Y-90119845D01*
X141478000Y-90119845D01*
X141248110Y-89998524D01*
X141100901Y-90043175D01*
X140838080Y-90168359D01*
X140604731Y-90342412D01*
X140409822Y-90558645D01*
X140260843Y-90808748D01*
X140163519Y-91083109D01*
X133804580Y-91083109D01*
X133621851Y-90809636D01*
X133345364Y-90533149D01*
X133020250Y-90315915D01*
X132659003Y-90166282D01*
X132275505Y-90090000D01*
X131884495Y-90090000D01*
X131500997Y-90166282D01*
X131139750Y-90315915D01*
X130814636Y-90533149D01*
X130538149Y-90809636D01*
X130320915Y-91134750D01*
X130171282Y-91495997D01*
X130095000Y-91879495D01*
X128295000Y-91879495D01*
X128295000Y-83838686D01*
X130120919Y-83838686D01*
X130457106Y-84307868D01*
X131087068Y-84648237D01*
X131771327Y-84859166D01*
X132483589Y-84932550D01*
X133196482Y-84865569D01*
X133882609Y-84660796D01*
X134515603Y-84326102D01*
X134542894Y-84307868D01*
X134879081Y-83838686D01*
X132500000Y-81459605D01*
X130120919Y-83838686D01*
X128295000Y-83838686D01*
X128295000Y-81263589D01*
X128847450Y-81263589D01*
X128914431Y-81976482D01*
X129119204Y-82662609D01*
X129453898Y-83295603D01*
X129472132Y-83322894D01*
X129941314Y-83659081D01*
X132320395Y-81280000D01*
X132679605Y-81280000D01*
X135058686Y-83659081D01*
X135527868Y-83322894D01*
X135868237Y-82692932D01*
X136061928Y-82064594D01*
X136061928Y-82780000D01*
X136103010Y-83197117D01*
X136224679Y-83598205D01*
X136422258Y-83967849D01*
X136688155Y-84291845D01*
X137012151Y-84557742D01*
X137381795Y-84755321D01*
X137782883Y-84876990D01*
X138200000Y-84918072D01*
X141200000Y-84918072D01*
X141617117Y-84876990D01*
X142018205Y-84755321D01*
X142387849Y-84557742D01*
X142637253Y-84353061D01*
X155175000Y-84353061D01*
X155175000Y-84556939D01*
X155214774Y-84756898D01*
X155292795Y-84945256D01*
X155406063Y-85114774D01*
X155550226Y-85258937D01*
X155719744Y-85372205D01*
X155908102Y-85450226D01*
X156108061Y-85490000D01*
X156311939Y-85490000D01*
X156407459Y-85471000D01*
X157955693Y-85471000D01*
X157946928Y-85560000D01*
X157946928Y-87160000D01*
X157959188Y-87284482D01*
X157995498Y-87404180D01*
X158054463Y-87514494D01*
X158133815Y-87611185D01*
X158230506Y-87690537D01*
X158340820Y-87749502D01*
X158460518Y-87785812D01*
X158468961Y-87786643D01*
X158270363Y-87985241D01*
X158113320Y-88220273D01*
X158005147Y-88481426D01*
X157950000Y-88758665D01*
X157950000Y-89041335D01*
X158005147Y-89318574D01*
X158113320Y-89579727D01*
X158270363Y-89814759D01*
X158470241Y-90014637D01*
X158702759Y-90170000D01*
X158470241Y-90325363D01*
X158270363Y-90525241D01*
X158113320Y-90760273D01*
X158005147Y-91021426D01*
X157950000Y-91298665D01*
X157950000Y-91581335D01*
X158005147Y-91858574D01*
X158113320Y-92119727D01*
X158270363Y-92354759D01*
X158470241Y-92554637D01*
X158702759Y-92710000D01*
X158470241Y-92865363D01*
X158270363Y-93065241D01*
X158113320Y-93300273D01*
X158005147Y-93561426D01*
X157950000Y-93838665D01*
X157950000Y-94121335D01*
X158005147Y-94398574D01*
X158113320Y-94659727D01*
X158270363Y-94894759D01*
X158470241Y-95094637D01*
X158702759Y-95250000D01*
X158470241Y-95405363D01*
X158270363Y-95605241D01*
X158113320Y-95840273D01*
X158005147Y-96101426D01*
X157950000Y-96378665D01*
X157950000Y-96661335D01*
X158005147Y-96938574D01*
X158113320Y-97199727D01*
X158270363Y-97434759D01*
X158470241Y-97634637D01*
X158702759Y-97790000D01*
X158470241Y-97945363D01*
X158270363Y-98145241D01*
X158113320Y-98380273D01*
X158005147Y-98641426D01*
X157950000Y-98918665D01*
X157950000Y-99201335D01*
X158005147Y-99478574D01*
X158113320Y-99739727D01*
X158270363Y-99974759D01*
X158470241Y-100174637D01*
X158702759Y-100330000D01*
X158470241Y-100485363D01*
X158270363Y-100685241D01*
X158113320Y-100920273D01*
X158005147Y-101181426D01*
X157950000Y-101458665D01*
X157950000Y-101741335D01*
X158005147Y-102018574D01*
X158113320Y-102279727D01*
X158270363Y-102514759D01*
X158470241Y-102714637D01*
X158702759Y-102870000D01*
X158470241Y-103025363D01*
X158270363Y-103225241D01*
X158113320Y-103460273D01*
X158005147Y-103721426D01*
X157950000Y-103998665D01*
X157950000Y-104281335D01*
X158005147Y-104558574D01*
X158113320Y-104819727D01*
X158270363Y-105054759D01*
X158470241Y-105254637D01*
X158705273Y-105411680D01*
X158966426Y-105519853D01*
X159243665Y-105575000D01*
X159526335Y-105575000D01*
X159803574Y-105519853D01*
X160064727Y-105411680D01*
X160299759Y-105254637D01*
X160499637Y-105054759D01*
X160656680Y-104819727D01*
X160764853Y-104558574D01*
X160820000Y-104281335D01*
X160820000Y-103998665D01*
X160764853Y-103721426D01*
X160656680Y-103460273D01*
X160499637Y-103225241D01*
X160299759Y-103025363D01*
X160067241Y-102870000D01*
X160299759Y-102714637D01*
X160499637Y-102514759D01*
X160656680Y-102279727D01*
X160764853Y-102018574D01*
X160820000Y-101741335D01*
X160820000Y-101458665D01*
X160764853Y-101181426D01*
X160656680Y-100920273D01*
X160499637Y-100685241D01*
X160299759Y-100485363D01*
X160067241Y-100330000D01*
X160299759Y-100174637D01*
X160499637Y-99974759D01*
X160656680Y-99739727D01*
X160764853Y-99478574D01*
X160820000Y-99201335D01*
X160820000Y-98918665D01*
X160764853Y-98641426D01*
X160656680Y-98380273D01*
X160499637Y-98145241D01*
X160299759Y-97945363D01*
X160067241Y-97790000D01*
X160299759Y-97634637D01*
X160499637Y-97434759D01*
X160656680Y-97199727D01*
X160764853Y-96938574D01*
X160820000Y-96661335D01*
X160820000Y-96378665D01*
X160764853Y-96101426D01*
X160656680Y-95840273D01*
X160499637Y-95605241D01*
X160299759Y-95405363D01*
X160067241Y-95250000D01*
X160299759Y-95094637D01*
X160499637Y-94894759D01*
X160656680Y-94659727D01*
X160764853Y-94398574D01*
X160820000Y-94121335D01*
X160820000Y-93838665D01*
X160764853Y-93561426D01*
X160656680Y-93300273D01*
X160499637Y-93065241D01*
X160299759Y-92865363D01*
X160067241Y-92710000D01*
X160299759Y-92554637D01*
X160499637Y-92354759D01*
X160656680Y-92119727D01*
X160764853Y-91858574D01*
X160820000Y-91581335D01*
X160820000Y-91298665D01*
X160764853Y-91021426D01*
X160656680Y-90760273D01*
X160499637Y-90525241D01*
X160299759Y-90325363D01*
X160067241Y-90170000D01*
X160299759Y-90014637D01*
X160499637Y-89814759D01*
X160656680Y-89579727D01*
X160764853Y-89318574D01*
X160820000Y-89041335D01*
X160820000Y-88758665D01*
X160764853Y-88481426D01*
X160656680Y-88220273D01*
X160499637Y-87985241D01*
X160301039Y-87786643D01*
X160309482Y-87785812D01*
X160429180Y-87749502D01*
X160539494Y-87690537D01*
X160636185Y-87611185D01*
X160715537Y-87514494D01*
X160774502Y-87404180D01*
X160810812Y-87284482D01*
X160823072Y-87160000D01*
X160823072Y-85560000D01*
X160814307Y-85471000D01*
X161727541Y-85471000D01*
X161823061Y-85490000D01*
X162026939Y-85490000D01*
X162226898Y-85450226D01*
X162415256Y-85372205D01*
X162584774Y-85258937D01*
X162728937Y-85114774D01*
X162842205Y-84945256D01*
X162920226Y-84756898D01*
X162960000Y-84556939D01*
X162960000Y-84353061D01*
X162920226Y-84153102D01*
X162842205Y-83964744D01*
X162728937Y-83795226D01*
X162584774Y-83651063D01*
X162415256Y-83537795D01*
X162226898Y-83459774D01*
X162026939Y-83420000D01*
X161823061Y-83420000D01*
X161727541Y-83439000D01*
X156407459Y-83439000D01*
X156311939Y-83420000D01*
X156108061Y-83420000D01*
X155908102Y-83459774D01*
X155719744Y-83537795D01*
X155550226Y-83651063D01*
X155406063Y-83795226D01*
X155292795Y-83964744D01*
X155214774Y-84153102D01*
X155175000Y-84353061D01*
X142637253Y-84353061D01*
X142711845Y-84291845D01*
X142977742Y-83967849D01*
X143175321Y-83598205D01*
X143296990Y-83197117D01*
X143338072Y-82780000D01*
X143338072Y-79780000D01*
X143296990Y-79362883D01*
X143175321Y-78961795D01*
X142977742Y-78592151D01*
X142711845Y-78268155D01*
X142387849Y-78002258D01*
X142018205Y-77804679D01*
X141617117Y-77683010D01*
X141200000Y-77641928D01*
X138200000Y-77641928D01*
X137782883Y-77683010D01*
X137381795Y-77804679D01*
X137012151Y-78002258D01*
X136688155Y-78268155D01*
X136422258Y-78592151D01*
X136224679Y-78961795D01*
X136103010Y-79362883D01*
X136061928Y-79780000D01*
X136061928Y-80504305D01*
X135880796Y-79897391D01*
X135546102Y-79264397D01*
X135527868Y-79237106D01*
X135058686Y-78900919D01*
X132679605Y-81280000D01*
X132320395Y-81280000D01*
X129941314Y-78900919D01*
X129472132Y-79237106D01*
X129131763Y-79867068D01*
X128920834Y-80551327D01*
X128847450Y-81263589D01*
X128295000Y-81263589D01*
X128295000Y-78721314D01*
X130120919Y-78721314D01*
X132500000Y-81100395D01*
X134879081Y-78721314D01*
X134542894Y-78252132D01*
X133912932Y-77911763D01*
X133228673Y-77700834D01*
X132516411Y-77627450D01*
X131803518Y-77694431D01*
X131117391Y-77899204D01*
X130484397Y-78233898D01*
X130457106Y-78252132D01*
X130120919Y-78721314D01*
X128295000Y-78721314D01*
X128295000Y-72408686D01*
X130120919Y-72408686D01*
X130457106Y-72877868D01*
X131087068Y-73218237D01*
X131771327Y-73429166D01*
X132483589Y-73502550D01*
X133196482Y-73435569D01*
X133882609Y-73230796D01*
X134515603Y-72896102D01*
X134542894Y-72877868D01*
X134879081Y-72408686D01*
X132500000Y-70029605D01*
X130120919Y-72408686D01*
X128295000Y-72408686D01*
X128295000Y-69833589D01*
X128847450Y-69833589D01*
X128914431Y-70546482D01*
X129119204Y-71232609D01*
X129453898Y-71865603D01*
X129472132Y-71892894D01*
X129941314Y-72229081D01*
X132320395Y-69850000D01*
X132679605Y-69850000D01*
X135058686Y-72229081D01*
X135527868Y-71892894D01*
X135868237Y-71262932D01*
X136061928Y-70634594D01*
X136061928Y-71350000D01*
X136103010Y-71767117D01*
X136224679Y-72168205D01*
X136422258Y-72537849D01*
X136688155Y-72861845D01*
X137012151Y-73127742D01*
X137381795Y-73325321D01*
X137782883Y-73446990D01*
X138200000Y-73488072D01*
X141200000Y-73488072D01*
X141617117Y-73446990D01*
X142018205Y-73325321D01*
X142387849Y-73127742D01*
X142711845Y-72861845D01*
X142977742Y-72537849D01*
X143175321Y-72168205D01*
X143296990Y-71767117D01*
X143338072Y-71350000D01*
X143338072Y-68350000D01*
X143296990Y-67932883D01*
X143175321Y-67531795D01*
X142977742Y-67162151D01*
X142711845Y-66838155D01*
X142387849Y-66572258D01*
X142018205Y-66374679D01*
X141617117Y-66253010D01*
X141200000Y-66211928D01*
X138200000Y-66211928D01*
X137782883Y-66253010D01*
X137381795Y-66374679D01*
X137012151Y-66572258D01*
X136688155Y-66838155D01*
X136422258Y-67162151D01*
X136224679Y-67531795D01*
X136103010Y-67932883D01*
X136061928Y-68350000D01*
X136061928Y-69074305D01*
X135880796Y-68467391D01*
X135546102Y-67834397D01*
X135527868Y-67807106D01*
X135058686Y-67470919D01*
X132679605Y-69850000D01*
X132320395Y-69850000D01*
X129941314Y-67470919D01*
X129472132Y-67807106D01*
X129131763Y-68437068D01*
X128920834Y-69121327D01*
X128847450Y-69833589D01*
X128295000Y-69833589D01*
X128295000Y-67291314D01*
X130120919Y-67291314D01*
X132500000Y-69670395D01*
X134879081Y-67291314D01*
X134542894Y-66822132D01*
X133912932Y-66481763D01*
X133228673Y-66270834D01*
X132516411Y-66197450D01*
X131803518Y-66264431D01*
X131117391Y-66469204D01*
X130484397Y-66803898D01*
X130457106Y-66822132D01*
X130120919Y-67291314D01*
X128295000Y-67291314D01*
X128295000Y-64795000D01*
X163068000Y-64795000D01*
X163068000Y-111100000D01*
G37*
%TD.AperFunction*%
%TD*%
D17*
%TO.N,GNDA*%
X136408279Y-67188304D02*
X136224679Y-67531795D01*
X136103010Y-67932883D01*
X136061928Y-68350000D01*
X136061928Y-71350000D01*
X136103010Y-71767117D01*
X136224679Y-72168205D01*
X136408279Y-72511696D01*
X136408279Y-74168000D01*
X129042279Y-74168000D01*
X129042279Y-65532000D01*
X136408279Y-65532000D01*
X136408279Y-67188304D01*
%TA.AperFunction,Conductor*%
D18*
G36*
X136408279Y-67188304D02*
G01*
X136224679Y-67531795D01*
X136103010Y-67932883D01*
X136061928Y-68350000D01*
X136061928Y-71350000D01*
X136103010Y-71767117D01*
X136224679Y-72168205D01*
X136408279Y-72511696D01*
X136408279Y-74168000D01*
X129042279Y-74168000D01*
X129042279Y-65532000D01*
X136408279Y-65532000D01*
X136408279Y-67188304D01*
G37*
%TD.AperFunction*%
%TD*%
D19*
X136061928Y-82780000D02*
X136103010Y-83197117D01*
X136224679Y-83598205D01*
X136408279Y-83941696D01*
X136408279Y-85598000D01*
X129042279Y-85598000D01*
X129042279Y-82431035D01*
X129278705Y-83001818D01*
X129676511Y-83597177D01*
X130182823Y-84103489D01*
X130778182Y-84501295D01*
X131439710Y-84775309D01*
X132141984Y-84915000D01*
X132858016Y-84915000D01*
X133560290Y-84775309D01*
X134221818Y-84501295D01*
X134817177Y-84103489D01*
X135323489Y-83597177D01*
X135721295Y-83001818D01*
X135995309Y-82340290D01*
X136061928Y-82005374D01*
X136061928Y-82780000D01*
%TA.AperFunction,NonConductor*%
D20*
G36*
X136061928Y-82780000D02*
G01*
X136103010Y-83197117D01*
X136224679Y-83598205D01*
X136408279Y-83941696D01*
X136408279Y-85598000D01*
X129042279Y-85598000D01*
X129042279Y-82431035D01*
X129278705Y-83001818D01*
X129676511Y-83597177D01*
X130182823Y-84103489D01*
X130778182Y-84501295D01*
X131439710Y-84775309D01*
X132141984Y-84915000D01*
X132858016Y-84915000D01*
X133560290Y-84775309D01*
X134221818Y-84501295D01*
X134817177Y-84103489D01*
X135323489Y-83597177D01*
X135721295Y-83001818D01*
X135995309Y-82340290D01*
X136061928Y-82005374D01*
X136061928Y-82780000D01*
G37*
%TD.AperFunction*%
D19*
X136408279Y-78618304D02*
X136224679Y-78961795D01*
X136103010Y-79362883D01*
X136061928Y-79780000D01*
X136061928Y-80554626D01*
X135995309Y-80219710D01*
X135721295Y-79558182D01*
X135323489Y-78962823D01*
X134817177Y-78456511D01*
X134221818Y-78058705D01*
X133560290Y-77784691D01*
X132858016Y-77645000D01*
X132141984Y-77645000D01*
X131439710Y-77784691D01*
X130778182Y-78058705D01*
X130182823Y-78456511D01*
X129676511Y-78962823D01*
X129278705Y-79558182D01*
X129042279Y-80128965D01*
X129042279Y-76962000D01*
X136408279Y-76962000D01*
X136408279Y-78618304D01*
%TA.AperFunction,NonConductor*%
D20*
G36*
X136408279Y-78618304D02*
G01*
X136224679Y-78961795D01*
X136103010Y-79362883D01*
X136061928Y-79780000D01*
X136061928Y-80554626D01*
X135995309Y-80219710D01*
X135721295Y-79558182D01*
X135323489Y-78962823D01*
X134817177Y-78456511D01*
X134221818Y-78058705D01*
X133560290Y-77784691D01*
X132858016Y-77645000D01*
X132141984Y-77645000D01*
X131439710Y-77784691D01*
X130778182Y-78058705D01*
X130182823Y-78456511D01*
X129676511Y-78962823D01*
X129278705Y-79558182D01*
X129042279Y-80128965D01*
X129042279Y-76962000D01*
X136408279Y-76962000D01*
X136408279Y-78618304D01*
G37*
%TD.AperFunction*%
M02*
