%TF.GenerationSoftware,KiCad,Pcbnew,(5.1.10)-1*%
%TF.CreationDate,2021-11-17T08:32:04-05:00*%
%TF.ProjectId,Telem Board,54656c65-6d20-4426-9f61-72642e6b6963,rev?*%
%TF.SameCoordinates,Original*%
%TF.FileFunction,Soldermask,Top*%
%TF.FilePolarity,Negative*%
%FSLAX46Y46*%
G04 Gerber Fmt 4.6, Leading zero omitted, Abs format (unit mm)*
G04 Created by KiCad (PCBNEW (5.1.10)-1) date 2021-11-17 08:32:04*
%MOMM*%
%LPD*%
G01*
G04 APERTURE LIST*
%ADD10C,6.000000*%
%ADD11C,2.700000*%
%ADD12O,1.600000X1.600000*%
%ADD13R,1.600000X1.600000*%
%ADD14R,2.000000X1.500000*%
%ADD15R,2.000000X3.800000*%
%ADD16O,1.700000X1.700000*%
%ADD17R,1.700000X1.700000*%
G04 APERTURE END LIST*
%TO.C,F2*%
G36*
G01*
X146695000Y-80630000D02*
X147945000Y-80630000D01*
G75*
G02*
X148195000Y-80880000I0J-250000D01*
G01*
X148195000Y-81680000D01*
G75*
G02*
X147945000Y-81930000I-250000J0D01*
G01*
X146695000Y-81930000D01*
G75*
G02*
X146445000Y-81680000I0J250000D01*
G01*
X146445000Y-80880000D01*
G75*
G02*
X146695000Y-80630000I250000J0D01*
G01*
G37*
G36*
G01*
X146695000Y-77530000D02*
X147945000Y-77530000D01*
G75*
G02*
X148195000Y-77780000I0J-250000D01*
G01*
X148195000Y-78580000D01*
G75*
G02*
X147945000Y-78830000I-250000J0D01*
G01*
X146695000Y-78830000D01*
G75*
G02*
X146445000Y-78580000I0J250000D01*
G01*
X146445000Y-77780000D01*
G75*
G02*
X146695000Y-77530000I250000J0D01*
G01*
G37*
%TD*%
%TO.C,F1*%
G36*
G01*
X146695000Y-69200000D02*
X147945000Y-69200000D01*
G75*
G02*
X148195000Y-69450000I0J-250000D01*
G01*
X148195000Y-70250000D01*
G75*
G02*
X147945000Y-70500000I-250000J0D01*
G01*
X146695000Y-70500000D01*
G75*
G02*
X146445000Y-70250000I0J250000D01*
G01*
X146445000Y-69450000D01*
G75*
G02*
X146695000Y-69200000I250000J0D01*
G01*
G37*
G36*
G01*
X146695000Y-66100000D02*
X147945000Y-66100000D01*
G75*
G02*
X148195000Y-66350000I0J-250000D01*
G01*
X148195000Y-67150000D01*
G75*
G02*
X147945000Y-67400000I-250000J0D01*
G01*
X146695000Y-67400000D01*
G75*
G02*
X146445000Y-67150000I0J250000D01*
G01*
X146445000Y-66350000D01*
G75*
G02*
X146695000Y-66100000I250000J0D01*
G01*
G37*
%TD*%
%TO.C,R8*%
G36*
G01*
X154955002Y-78817500D02*
X153654998Y-78817500D01*
G75*
G02*
X153405000Y-78567502I0J249998D01*
G01*
X153405000Y-77742498D01*
G75*
G02*
X153654998Y-77492500I249998J0D01*
G01*
X154955002Y-77492500D01*
G75*
G02*
X155205000Y-77742498I0J-249998D01*
G01*
X155205000Y-78567502D01*
G75*
G02*
X154955002Y-78817500I-249998J0D01*
G01*
G37*
G36*
G01*
X154955002Y-81942500D02*
X153654998Y-81942500D01*
G75*
G02*
X153405000Y-81692502I0J249998D01*
G01*
X153405000Y-80867498D01*
G75*
G02*
X153654998Y-80617500I249998J0D01*
G01*
X154955002Y-80617500D01*
G75*
G02*
X155205000Y-80867498I0J-249998D01*
G01*
X155205000Y-81692502D01*
G75*
G02*
X154955002Y-81942500I-249998J0D01*
G01*
G37*
%TD*%
%TO.C,R7*%
G36*
G01*
X149844998Y-80617500D02*
X151145002Y-80617500D01*
G75*
G02*
X151395000Y-80867498I0J-249998D01*
G01*
X151395000Y-81692502D01*
G75*
G02*
X151145002Y-81942500I-249998J0D01*
G01*
X149844998Y-81942500D01*
G75*
G02*
X149595000Y-81692502I0J249998D01*
G01*
X149595000Y-80867498D01*
G75*
G02*
X149844998Y-80617500I249998J0D01*
G01*
G37*
G36*
G01*
X149844998Y-77492500D02*
X151145002Y-77492500D01*
G75*
G02*
X151395000Y-77742498I0J-249998D01*
G01*
X151395000Y-78567502D01*
G75*
G02*
X151145002Y-78817500I-249998J0D01*
G01*
X149844998Y-78817500D01*
G75*
G02*
X149595000Y-78567502I0J249998D01*
G01*
X149595000Y-77742498D01*
G75*
G02*
X149844998Y-77492500I249998J0D01*
G01*
G37*
%TD*%
%TO.C,J7*%
G36*
G01*
X142700000Y-79780000D02*
X142700000Y-82780000D01*
G75*
G02*
X141200000Y-84280000I-1500000J0D01*
G01*
X138200000Y-84280000D01*
G75*
G02*
X136700000Y-82780000I0J1500000D01*
G01*
X136700000Y-79780000D01*
G75*
G02*
X138200000Y-78280000I1500000J0D01*
G01*
X141200000Y-78280000D01*
G75*
G02*
X142700000Y-79780000I0J-1500000D01*
G01*
G37*
D10*
X132500000Y-81280000D03*
%TD*%
%TO.C,C9*%
G36*
G01*
X157955000Y-79792500D02*
X157005000Y-79792500D01*
G75*
G02*
X156755000Y-79542500I0J250000D01*
G01*
X156755000Y-78867500D01*
G75*
G02*
X157005000Y-78617500I250000J0D01*
G01*
X157955000Y-78617500D01*
G75*
G02*
X158205000Y-78867500I0J-250000D01*
G01*
X158205000Y-79542500D01*
G75*
G02*
X157955000Y-79792500I-250000J0D01*
G01*
G37*
G36*
G01*
X157955000Y-81867500D02*
X157005000Y-81867500D01*
G75*
G02*
X156755000Y-81617500I0J250000D01*
G01*
X156755000Y-80942500D01*
G75*
G02*
X157005000Y-80692500I250000J0D01*
G01*
X157955000Y-80692500D01*
G75*
G02*
X158205000Y-80942500I0J-250000D01*
G01*
X158205000Y-81617500D01*
G75*
G02*
X157955000Y-81867500I-250000J0D01*
G01*
G37*
%TD*%
D11*
%TO.C,H2*%
X174625000Y-104775000D03*
%TD*%
%TO.C,H1*%
X132080000Y-92075000D03*
%TD*%
D12*
%TO.C,U2*%
X167005000Y-86360000D03*
X159385000Y-104140000D03*
X167005000Y-88900000D03*
X159385000Y-101600000D03*
X167005000Y-91440000D03*
X159385000Y-99060000D03*
X167005000Y-93980000D03*
X159385000Y-96520000D03*
X167005000Y-96520000D03*
X159385000Y-93980000D03*
X167005000Y-99060000D03*
X159385000Y-91440000D03*
X167005000Y-101600000D03*
X159385000Y-88900000D03*
X167005000Y-104140000D03*
D13*
X159385000Y-86360000D03*
%TD*%
D14*
%TO.C,U1*%
X173330000Y-75960000D03*
X173330000Y-71360000D03*
X173330000Y-73660000D03*
D15*
X167030000Y-73660000D03*
%TD*%
%TO.C,R6*%
G36*
G01*
X154955002Y-67387500D02*
X153654998Y-67387500D01*
G75*
G02*
X153405000Y-67137502I0J249998D01*
G01*
X153405000Y-66312498D01*
G75*
G02*
X153654998Y-66062500I249998J0D01*
G01*
X154955002Y-66062500D01*
G75*
G02*
X155205000Y-66312498I0J-249998D01*
G01*
X155205000Y-67137502D01*
G75*
G02*
X154955002Y-67387500I-249998J0D01*
G01*
G37*
G36*
G01*
X154955002Y-70512500D02*
X153654998Y-70512500D01*
G75*
G02*
X153405000Y-70262502I0J249998D01*
G01*
X153405000Y-69437498D01*
G75*
G02*
X153654998Y-69187500I249998J0D01*
G01*
X154955002Y-69187500D01*
G75*
G02*
X155205000Y-69437498I0J-249998D01*
G01*
X155205000Y-70262502D01*
G75*
G02*
X154955002Y-70512500I-249998J0D01*
G01*
G37*
%TD*%
%TO.C,R5*%
G36*
G01*
X149844998Y-69187500D02*
X151145002Y-69187500D01*
G75*
G02*
X151395000Y-69437498I0J-249998D01*
G01*
X151395000Y-70262502D01*
G75*
G02*
X151145002Y-70512500I-249998J0D01*
G01*
X149844998Y-70512500D01*
G75*
G02*
X149595000Y-70262502I0J249998D01*
G01*
X149595000Y-69437498D01*
G75*
G02*
X149844998Y-69187500I249998J0D01*
G01*
G37*
G36*
G01*
X149844998Y-66062500D02*
X151145002Y-66062500D01*
G75*
G02*
X151395000Y-66312498I0J-249998D01*
G01*
X151395000Y-67137502D01*
G75*
G02*
X151145002Y-67387500I-249998J0D01*
G01*
X149844998Y-67387500D01*
G75*
G02*
X149595000Y-67137502I0J249998D01*
G01*
X149595000Y-66312498D01*
G75*
G02*
X149844998Y-66062500I249998J0D01*
G01*
G37*
%TD*%
%TO.C,R4*%
G36*
G01*
X149209998Y-107922500D02*
X150510002Y-107922500D01*
G75*
G02*
X150760000Y-108172498I0J-249998D01*
G01*
X150760000Y-108997502D01*
G75*
G02*
X150510002Y-109247500I-249998J0D01*
G01*
X149209998Y-109247500D01*
G75*
G02*
X148960000Y-108997502I0J249998D01*
G01*
X148960000Y-108172498D01*
G75*
G02*
X149209998Y-107922500I249998J0D01*
G01*
G37*
G36*
G01*
X149209998Y-104797500D02*
X150510002Y-104797500D01*
G75*
G02*
X150760000Y-105047498I0J-249998D01*
G01*
X150760000Y-105872502D01*
G75*
G02*
X150510002Y-106122500I-249998J0D01*
G01*
X149209998Y-106122500D01*
G75*
G02*
X148960000Y-105872502I0J249998D01*
G01*
X148960000Y-105047498D01*
G75*
G02*
X149209998Y-104797500I249998J0D01*
G01*
G37*
%TD*%
%TO.C,R3*%
G36*
G01*
X149209998Y-102207500D02*
X150510002Y-102207500D01*
G75*
G02*
X150760000Y-102457498I0J-249998D01*
G01*
X150760000Y-103282502D01*
G75*
G02*
X150510002Y-103532500I-249998J0D01*
G01*
X149209998Y-103532500D01*
G75*
G02*
X148960000Y-103282502I0J249998D01*
G01*
X148960000Y-102457498D01*
G75*
G02*
X149209998Y-102207500I249998J0D01*
G01*
G37*
G36*
G01*
X149209998Y-99082500D02*
X150510002Y-99082500D01*
G75*
G02*
X150760000Y-99332498I0J-249998D01*
G01*
X150760000Y-100157502D01*
G75*
G02*
X150510002Y-100407500I-249998J0D01*
G01*
X149209998Y-100407500D01*
G75*
G02*
X148960000Y-100157502I0J249998D01*
G01*
X148960000Y-99332498D01*
G75*
G02*
X149209998Y-99082500I249998J0D01*
G01*
G37*
%TD*%
%TO.C,R2*%
G36*
G01*
X149209998Y-96492500D02*
X150510002Y-96492500D01*
G75*
G02*
X150760000Y-96742498I0J-249998D01*
G01*
X150760000Y-97567502D01*
G75*
G02*
X150510002Y-97817500I-249998J0D01*
G01*
X149209998Y-97817500D01*
G75*
G02*
X148960000Y-97567502I0J249998D01*
G01*
X148960000Y-96742498D01*
G75*
G02*
X149209998Y-96492500I249998J0D01*
G01*
G37*
G36*
G01*
X149209998Y-93367500D02*
X150510002Y-93367500D01*
G75*
G02*
X150760000Y-93617498I0J-249998D01*
G01*
X150760000Y-94442502D01*
G75*
G02*
X150510002Y-94692500I-249998J0D01*
G01*
X149209998Y-94692500D01*
G75*
G02*
X148960000Y-94442502I0J249998D01*
G01*
X148960000Y-93617498D01*
G75*
G02*
X149209998Y-93367500I249998J0D01*
G01*
G37*
%TD*%
%TO.C,R1*%
G36*
G01*
X149209998Y-90777500D02*
X150510002Y-90777500D01*
G75*
G02*
X150760000Y-91027498I0J-249998D01*
G01*
X150760000Y-91852502D01*
G75*
G02*
X150510002Y-92102500I-249998J0D01*
G01*
X149209998Y-92102500D01*
G75*
G02*
X148960000Y-91852502I0J249998D01*
G01*
X148960000Y-91027498D01*
G75*
G02*
X149209998Y-90777500I249998J0D01*
G01*
G37*
G36*
G01*
X149209998Y-87652500D02*
X150510002Y-87652500D01*
G75*
G02*
X150760000Y-87902498I0J-249998D01*
G01*
X150760000Y-88727502D01*
G75*
G02*
X150510002Y-88977500I-249998J0D01*
G01*
X149209998Y-88977500D01*
G75*
G02*
X148960000Y-88727502I0J249998D01*
G01*
X148960000Y-87902498D01*
G75*
G02*
X149209998Y-87652500I249998J0D01*
G01*
G37*
%TD*%
%TO.C,J6*%
G36*
G01*
X142700000Y-68350000D02*
X142700000Y-71350000D01*
G75*
G02*
X141200000Y-72850000I-1500000J0D01*
G01*
X138200000Y-72850000D01*
G75*
G02*
X136700000Y-71350000I0J1500000D01*
G01*
X136700000Y-68350000D01*
G75*
G02*
X138200000Y-66850000I1500000J0D01*
G01*
X141200000Y-66850000D01*
G75*
G02*
X142700000Y-68350000I0J-1500000D01*
G01*
G37*
D10*
X132500000Y-69850000D03*
%TD*%
D16*
%TO.C,J5*%
X141605000Y-108585000D03*
D17*
X144145000Y-108585000D03*
%TD*%
D16*
%TO.C,J4*%
X141605000Y-102870000D03*
D17*
X144145000Y-102870000D03*
%TD*%
D16*
%TO.C,J3*%
X141605000Y-97155000D03*
D17*
X144145000Y-97155000D03*
%TD*%
D16*
%TO.C,J2*%
X141605000Y-91440000D03*
D17*
X144145000Y-91440000D03*
%TD*%
D16*
%TO.C,J1*%
X179070000Y-100965000D03*
X179070000Y-98425000D03*
X179070000Y-95885000D03*
X179070000Y-93345000D03*
X179070000Y-90805000D03*
X179070000Y-88265000D03*
D17*
X179070000Y-85725000D03*
%TD*%
%TO.C,C8*%
G36*
G01*
X170340000Y-90620000D02*
X171290000Y-90620000D01*
G75*
G02*
X171540000Y-90870000I0J-250000D01*
G01*
X171540000Y-91545000D01*
G75*
G02*
X171290000Y-91795000I-250000J0D01*
G01*
X170340000Y-91795000D01*
G75*
G02*
X170090000Y-91545000I0J250000D01*
G01*
X170090000Y-90870000D01*
G75*
G02*
X170340000Y-90620000I250000J0D01*
G01*
G37*
G36*
G01*
X170340000Y-88545000D02*
X171290000Y-88545000D01*
G75*
G02*
X171540000Y-88795000I0J-250000D01*
G01*
X171540000Y-89470000D01*
G75*
G02*
X171290000Y-89720000I-250000J0D01*
G01*
X170340000Y-89720000D01*
G75*
G02*
X170090000Y-89470000I0J250000D01*
G01*
X170090000Y-88795000D01*
G75*
G02*
X170340000Y-88545000I250000J0D01*
G01*
G37*
%TD*%
%TO.C,C7*%
G36*
G01*
X176690000Y-74110000D02*
X177640000Y-74110000D01*
G75*
G02*
X177890000Y-74360000I0J-250000D01*
G01*
X177890000Y-75035000D01*
G75*
G02*
X177640000Y-75285000I-250000J0D01*
G01*
X176690000Y-75285000D01*
G75*
G02*
X176440000Y-75035000I0J250000D01*
G01*
X176440000Y-74360000D01*
G75*
G02*
X176690000Y-74110000I250000J0D01*
G01*
G37*
G36*
G01*
X176690000Y-72035000D02*
X177640000Y-72035000D01*
G75*
G02*
X177890000Y-72285000I0J-250000D01*
G01*
X177890000Y-72960000D01*
G75*
G02*
X177640000Y-73210000I-250000J0D01*
G01*
X176690000Y-73210000D01*
G75*
G02*
X176440000Y-72960000I0J250000D01*
G01*
X176440000Y-72285000D01*
G75*
G02*
X176690000Y-72035000I250000J0D01*
G01*
G37*
%TD*%
%TO.C,C6*%
G36*
G01*
X168725000Y-81120000D02*
X168725000Y-80170000D01*
G75*
G02*
X168975000Y-79920000I250000J0D01*
G01*
X169650000Y-79920000D01*
G75*
G02*
X169900000Y-80170000I0J-250000D01*
G01*
X169900000Y-81120000D01*
G75*
G02*
X169650000Y-81370000I-250000J0D01*
G01*
X168975000Y-81370000D01*
G75*
G02*
X168725000Y-81120000I0J250000D01*
G01*
G37*
G36*
G01*
X166650000Y-81120000D02*
X166650000Y-80170000D01*
G75*
G02*
X166900000Y-79920000I250000J0D01*
G01*
X167575000Y-79920000D01*
G75*
G02*
X167825000Y-80170000I0J-250000D01*
G01*
X167825000Y-81120000D01*
G75*
G02*
X167575000Y-81370000I-250000J0D01*
G01*
X166900000Y-81370000D01*
G75*
G02*
X166650000Y-81120000I0J250000D01*
G01*
G37*
%TD*%
%TO.C,C5*%
G36*
G01*
X157955000Y-68362500D02*
X157005000Y-68362500D01*
G75*
G02*
X156755000Y-68112500I0J250000D01*
G01*
X156755000Y-67437500D01*
G75*
G02*
X157005000Y-67187500I250000J0D01*
G01*
X157955000Y-67187500D01*
G75*
G02*
X158205000Y-67437500I0J-250000D01*
G01*
X158205000Y-68112500D01*
G75*
G02*
X157955000Y-68362500I-250000J0D01*
G01*
G37*
G36*
G01*
X157955000Y-70437500D02*
X157005000Y-70437500D01*
G75*
G02*
X156755000Y-70187500I0J250000D01*
G01*
X156755000Y-69512500D01*
G75*
G02*
X157005000Y-69262500I250000J0D01*
G01*
X157955000Y-69262500D01*
G75*
G02*
X158205000Y-69512500I0J-250000D01*
G01*
X158205000Y-70187500D01*
G75*
G02*
X157955000Y-70437500I-250000J0D01*
G01*
G37*
%TD*%
%TO.C,C4*%
G36*
G01*
X154145000Y-107097500D02*
X153195000Y-107097500D01*
G75*
G02*
X152945000Y-106847500I0J250000D01*
G01*
X152945000Y-106172500D01*
G75*
G02*
X153195000Y-105922500I250000J0D01*
G01*
X154145000Y-105922500D01*
G75*
G02*
X154395000Y-106172500I0J-250000D01*
G01*
X154395000Y-106847500D01*
G75*
G02*
X154145000Y-107097500I-250000J0D01*
G01*
G37*
G36*
G01*
X154145000Y-109172500D02*
X153195000Y-109172500D01*
G75*
G02*
X152945000Y-108922500I0J250000D01*
G01*
X152945000Y-108247500D01*
G75*
G02*
X153195000Y-107997500I250000J0D01*
G01*
X154145000Y-107997500D01*
G75*
G02*
X154395000Y-108247500I0J-250000D01*
G01*
X154395000Y-108922500D01*
G75*
G02*
X154145000Y-109172500I-250000J0D01*
G01*
G37*
%TD*%
%TO.C,C3*%
G36*
G01*
X154145000Y-101382500D02*
X153195000Y-101382500D01*
G75*
G02*
X152945000Y-101132500I0J250000D01*
G01*
X152945000Y-100457500D01*
G75*
G02*
X153195000Y-100207500I250000J0D01*
G01*
X154145000Y-100207500D01*
G75*
G02*
X154395000Y-100457500I0J-250000D01*
G01*
X154395000Y-101132500D01*
G75*
G02*
X154145000Y-101382500I-250000J0D01*
G01*
G37*
G36*
G01*
X154145000Y-103457500D02*
X153195000Y-103457500D01*
G75*
G02*
X152945000Y-103207500I0J250000D01*
G01*
X152945000Y-102532500D01*
G75*
G02*
X153195000Y-102282500I250000J0D01*
G01*
X154145000Y-102282500D01*
G75*
G02*
X154395000Y-102532500I0J-250000D01*
G01*
X154395000Y-103207500D01*
G75*
G02*
X154145000Y-103457500I-250000J0D01*
G01*
G37*
%TD*%
%TO.C,C2*%
G36*
G01*
X154145000Y-95667500D02*
X153195000Y-95667500D01*
G75*
G02*
X152945000Y-95417500I0J250000D01*
G01*
X152945000Y-94742500D01*
G75*
G02*
X153195000Y-94492500I250000J0D01*
G01*
X154145000Y-94492500D01*
G75*
G02*
X154395000Y-94742500I0J-250000D01*
G01*
X154395000Y-95417500D01*
G75*
G02*
X154145000Y-95667500I-250000J0D01*
G01*
G37*
G36*
G01*
X154145000Y-97742500D02*
X153195000Y-97742500D01*
G75*
G02*
X152945000Y-97492500I0J250000D01*
G01*
X152945000Y-96817500D01*
G75*
G02*
X153195000Y-96567500I250000J0D01*
G01*
X154145000Y-96567500D01*
G75*
G02*
X154395000Y-96817500I0J-250000D01*
G01*
X154395000Y-97492500D01*
G75*
G02*
X154145000Y-97742500I-250000J0D01*
G01*
G37*
%TD*%
%TO.C,C1*%
G36*
G01*
X154145000Y-89952500D02*
X153195000Y-89952500D01*
G75*
G02*
X152945000Y-89702500I0J250000D01*
G01*
X152945000Y-89027500D01*
G75*
G02*
X153195000Y-88777500I250000J0D01*
G01*
X154145000Y-88777500D01*
G75*
G02*
X154395000Y-89027500I0J-250000D01*
G01*
X154395000Y-89702500D01*
G75*
G02*
X154145000Y-89952500I-250000J0D01*
G01*
G37*
G36*
G01*
X154145000Y-92027500D02*
X153195000Y-92027500D01*
G75*
G02*
X152945000Y-91777500I0J250000D01*
G01*
X152945000Y-91102500D01*
G75*
G02*
X153195000Y-90852500I250000J0D01*
G01*
X154145000Y-90852500D01*
G75*
G02*
X154395000Y-91102500I0J-250000D01*
G01*
X154395000Y-91777500D01*
G75*
G02*
X154145000Y-92027500I-250000J0D01*
G01*
G37*
%TD*%
M02*
